<svg width="500" height="281" viewBox="0 0 500 281" fill="none" xmlns="http://www.w3.org/2000/svg">
<g clip-path="url(#clip0_206_859)">
<path d="M462.997 28.6484H63.1572V51.8293H462.997V28.6484Z" fill="#DEE3FC"/>
<path d="M462.997 51.8281H63.1572V118.819H462.997V51.8281Z" fill="#D2D9FC"/>
<path d="M499.998 275.562H0V277.706H499.998V275.562Z" fill="#001154"/>
<path d="M463.48 275.613H62.6726V0H463.482V275.613H463.48ZM63.0528 275.233H463.1V0.380116H63.0528V275.23V275.233Z" fill="#1A2F34"/>
<path d="M463 0H63V275H463V0Z" fill="white"/>
<path d="M463.289 0.1875H62.8613V28.6428H463.289V0.1875Z" fill="#001154"/>
<path d="M412.078 17.8121C413.953 17.8121 415.473 16.2924 415.473 14.4178C415.473 12.5431 413.953 11.0234 412.078 11.0234C410.203 11.0234 408.684 12.5431 408.684 14.4178C408.684 16.2924 410.203 17.8121 412.078 17.8121Z" fill="white"/>
<path d="M427.494 17.8121C429.369 17.8121 430.889 16.2924 430.889 14.4178C430.889 12.5431 429.369 11.0234 427.494 11.0234C425.619 11.0234 424.1 12.5431 424.1 14.4178C424.1 16.2924 425.619 17.8121 427.494 17.8121Z" fill="white"/>
<path d="M442.909 17.5696C444.783 17.5696 446.303 16.1584 446.303 14.4177C446.303 12.677 444.783 11.2658 442.909 11.2658C441.034 11.2658 439.514 12.677 439.514 14.4177C439.514 16.1584 441.034 17.5696 442.909 17.5696Z" fill="white"/>
<path d="M474.077 248.016L469.425 275.563H447.347L442.685 248.016H474.077Z" fill="#001154"/>
<path d="M472.664 256.008H444.103V256.77H472.664V256.008Z" fill="white"/>
<path d="M454.11 228.242C454.11 228.242 449.073 229.803 443.915 235.447C438.757 241.092 433.078 236.466 434.789 232.581C435.977 229.885 441.507 223.59 454.11 228.244V228.242Z" fill="#4043E2"/>
<path d="M452.198 220.785C452.198 220.785 460.075 212.784 467.659 216.37C475.244 219.955 467.216 224.412 463.597 223.117C459.978 221.823 452.196 220.785 452.196 220.785H452.198Z" fill="#4043E2"/>
<path d="M451.516 214.447C451.516 214.447 445.9 210.106 437.627 213.138C429.354 216.171 435.428 224.065 438.361 222.228C441.293 220.391 445.38 215.23 451.516 214.447Z" fill="#4043E2"/>
<path d="M449.246 209.04C449.246 209.04 452.08 202.531 459.847 201.193C467.617 199.856 467.942 205.57 465.254 207.308C462.566 209.046 459.761 209.247 456.188 209.188C452.614 209.128 449.246 209.04 449.246 209.04Z" fill="#4043E2"/>
<path d="M446.5 201.165C446.5 201.165 440.681 198.036 435.102 199.877C429.523 201.718 430.289 206.939 432.217 208.484C434.144 210.029 436.715 207.767 439.941 205.64C443.167 203.512 446.5 201.167 446.5 201.167V201.165Z" fill="#4043E2"/>
<path d="M444.067 196.484C444.067 196.484 445.469 187.079 452.571 185.514C459.672 183.948 460.412 189.222 459.179 190.841C457.852 192.584 453.711 193.091 450.82 193.845C447.464 194.721 444.067 196.484 444.067 196.484Z" fill="#4043E2"/>
<path d="M438.126 187.626C438.126 187.626 434.892 186.129 429.091 188.12C423.29 190.111 424.028 194.606 427.061 195.445C430.092 196.283 438.126 187.624 438.126 187.624V187.626Z" fill="#4043E2"/>
<path d="M433.454 183.021C433.9 182.322 434.623 173.744 439.543 172.485C444.462 171.225 445.239 177.929 441.088 179.826C437.88 181.293 433.454 183.021 433.454 183.021Z" fill="#4043E2"/>
<path d="M427.494 178.999C427.494 178.999 425.423 174.413 420.072 171.742C414.721 169.073 410.913 174.399 413.186 177.347C415.459 180.296 423.524 181.243 427.494 178.997V178.999Z" fill="#4043E2"/>
<path d="M456.426 248.01H455.661C455.228 237.194 451.934 191.132 426.882 179.145C426.687 179.052 426.607 178.824 426.697 178.635C426.79 178.45 427.018 178.37 427.207 178.457C452.665 190.633 455.996 237.155 456.423 248.008L456.426 248.01Z" fill="#4043E2"/>
<path d="M461.97 229.355C461.97 229.355 468.262 226.796 478.008 228.202C487.755 229.609 489.633 220.363 484.755 217.891C481.368 216.176 470.72 214.425 461.97 229.352V229.355Z" fill="#7E89FD"/>
<path d="M461.83 238.775C461.83 238.775 456.393 225.066 441.38 225.212C441.38 225.212 434.079 227.384 437.174 233.293C440.268 239.202 455.07 236.78 461.83 238.775Z" fill="#7E89FD"/>
<path d="M463.571 220.286C463.571 220.286 457.652 207.091 446.885 208.015C436.117 208.94 443.811 217.925 448.759 217.984C453.707 218.044 463.569 220.286 463.569 220.286H463.571Z" fill="#7E89FD"/>
<path d="M465.416 208.531C465.416 208.531 468.992 200.117 480.199 198.315C491.407 196.516 489.551 209.211 485.1 208.992C480.649 208.772 472.805 205.546 465.418 208.531H465.416Z" fill="#7E89FD"/>
<path d="M467.232 199.606C467.232 199.606 464.232 190.968 454.385 188.49C444.538 186.012 443.562 193.318 446.841 195.815C450.123 198.311 453.707 198.843 458.301 199.117C462.896 199.39 467.232 199.606 467.232 199.606Z" fill="#7E89FD"/>
<path d="M469.203 190.019C469.203 190.019 473.88 182.91 481.331 181.578C488.782 180.249 491.108 186.635 489.871 189.565C488.634 192.495 484.335 191.506 479.375 191.071C474.414 190.635 469.203 190.017 469.203 190.017V190.019Z" fill="#7E89FD"/>
<path d="M471.951 181.068C471.951 181.068 468.355 169.36 459.009 168.735C449.663 168.111 449.735 174.971 451.62 176.794C453.646 178.756 459.017 178.606 462.844 179.009C467.284 179.477 471.951 181.068 471.951 181.068Z" fill="#7E89FD"/>
<path d="M475.454 171.207C475.454 171.207 478.327 167.626 486.16 166.6C493.993 165.575 495.718 171.182 492.701 173.886C489.684 176.59 475.454 171.207 475.454 171.207Z" fill="#7E89FD"/>
<path d="M479.395 162.885C478.695 162.082 476.12 151.294 469.612 150.637C463.104 149.98 463.406 158.669 469.057 160.286C473.424 161.535 479.395 162.885 479.395 162.885Z" fill="#7E89FD"/>
<path d="M484.375 154.906C484.375 154.906 483.019 147.737 487.155 140.116C491.29 132.495 500.243 135.657 499.996 141.049C499.75 146.44 490.957 154.271 484.377 154.906H484.375Z" fill="#7E89FD"/>
<path d="M484.668 155.142C470.434 172.771 464.931 209.951 462.921 230.543C462.185 238.137 461.822 244.365 461.653 248.01H460.889C461.051 244.348 461.419 238.094 462.161 230.467C464.624 205.213 470.432 171.557 484.076 154.659C484.212 154.503 484.45 154.475 484.619 154.61C484.775 154.735 484.804 154.978 484.668 155.14V155.142Z" fill="#7E89FD"/>
<path d="M346.845 63.0156H178.715V106.928H346.845V63.0156Z" fill="#DEE3FC"/>
<path d="M150.017 79.875H138.279V90.773H150.017V79.875Z" fill="#E4E8FF"/>
<path d="M387.285 79.875H375.547V90.773H387.285V79.875Z" fill="#7E89FD"/>
<path d="M164.771 130.695H100.216V148.006H164.771V130.695Z" fill="#D4D8FF"/>
<path d="M251.629 130.695H187.074V148.006H251.629V130.695Z" fill="#E1E1E1"/>
<path d="M338.489 130.695H273.934V148.006H338.489V130.695Z" fill="#7E89FD"/>
<path d="M425.347 130.695H360.792V148.006H425.347V130.695Z" fill="#D4D8FF"/>
<path d="M164.771 250.586H100.216V267.897H164.771V250.586Z" fill="#D4D8FF"/>
<path d="M251.629 250.586H187.074V267.897H251.629V250.586Z" fill="#7E89FD"/>
<path d="M338.489 250.586H273.934V267.897H338.489V250.586Z" fill="#D4D8FF"/>
<path d="M425.347 250.586H360.792V267.897H425.347V250.586Z" fill="#D4D8FF"/>
<path d="M164.771 193.352H100.216V250.589H164.771V193.352Z" fill="#E4E9FF"/>
<path d="M251.629 193.352H187.074V250.589H251.629V193.352Z" fill="#E4E9FF"/>
<path d="M338.489 193.352H273.934V250.589H338.489V193.352Z" fill="#E4E9FF"/>
<path d="M425.347 193.352H360.792V250.589H425.347V193.352Z" fill="#E4E9FF"/>
<path d="M164.771 158.992H100.216V164.024H164.771V158.992Z" fill="#E1E1E1"/>
<path d="M200.643 169.422H100.216V171.939H200.643V169.422Z" fill="#ECECEC"/>
<path d="M212.981 175.008H100.216V177.525H212.981V175.008Z" fill="#ECECEC"/>
<path d="M205.3 180.602H100.216V183.119H205.3V180.602Z" fill="#ECECEC"/>
<path d="M130.086 274.994C129.975 275.199 129.782 275.401 129.523 275.6C129.523 275.6 129.519 275.6 129.515 275.604C125.467 278.69 104.84 281.094 100.459 280.829C95.794 280.542 90.0999 278.555 87.4326 277.425L89.5882 274.199L91.9883 270.601L99.4415 259.43C99.4415 259.43 104.731 261.277 108.606 262.16C108.943 262.236 109.266 262.304 109.574 262.364C113.466 263.116 123.533 264.447 126.909 265.425C130.29 266.403 131.946 271.622 130.088 274.994H130.086Z" fill="#7E89FD"/>
<path d="M91.9753 270.613L89.8916 273.736C89.8916 273.736 104.498 273.726 99.4387 259.43L91.9753 270.613Z" fill="#FDCCC6"/>
<path d="M67.95 278.661C65.3649 279.546 59.8783 281.04 55.4746 281.001C51.3299 280.96 32.0055 277.319 28.4711 274.143H28.467C28.2471 273.945 28.0889 273.748 28.0005 273.555C27.5711 272.62 27.4128 271.566 27.4827 270.516C27.6615 267.868 29.2992 265.266 31.6254 264.767C34.8619 264.071 44.4151 263.481 48.1283 263.033C49.2627 262.895 50.6148 262.647 51.9381 262.367L55.8034 264.042L56.7117 264.428C54.6856 274.235 65.8807 275.03 65.8807 275.03L66.6081 276.304L67.952 278.661H67.95Z" fill="#7E89FD"/>
<path d="M114.082 191.871L77.1882 191.064L62.5654 222.656L60.1591 228.097L61.7496 228.153L60.9154 230.035L45.4398 229.492C45.4398 229.492 42.3842 227.731 37.9024 225.962C33.657 224.288 32.1076 222.743 26.6827 222.545L27.1265 210.626C27.1265 210.626 18.276 206.003 16.4903 197.663C14.4539 188.171 18.2432 160.905 32.8494 149.974C47.4516 139.039 62.3045 139.487 62.3045 139.487L80.5541 141.891C80.5541 141.891 97.8975 148.575 101.709 154.338C104.767 158.976 111.536 182.703 114.084 191.869L114.082 191.871Z" fill="#7E89FD"/>
<path d="M65.8766 275.024C65.8766 275.024 54.6794 274.229 56.7076 264.422L60.8256 266.164L64.1237 271.95L65.8766 275.024Z" fill="#FDCCC6"/>
<path d="M127.065 239.406C125.45 240.639 123.245 242.223 120.767 243.955C111.464 250.452 98.319 259.02 98.319 259.02L99.441 259.429L91.9878 270.6L87.4321 277.424L76.6747 272.871L76.2719 273.138L67.9495 278.657L61.1581 266.746L60.8272 266.168L56.7092 264.426L55.8009 264.04L51.9356 262.365C50.6102 262.644 49.2581 262.893 48.1258 263.031C44.4147 263.479 34.8594 264.066 31.6229 264.765C29.2988 265.266 27.661 267.865 27.4802 270.514C23.9807 270.002 20.6415 268.767 17.8447 267.422L17.8406 267.417C16.7269 266.885 15.6994 266.326 14.785 265.792C3.39052 259.127 -6.73401 237.904 5.71873 225.202C9.6847 221.156 15.011 219.926 20.4319 220.125C26.0726 220.33 31.814 222.091 36.2259 223.84C40.8864 225.689 44.0633 227.532 44.0633 227.532L73.6704 244.537L95.4421 229.334C95.4421 229.334 107.155 216.116 120.136 217.187C121.237 217.277 122.259 217.47 123.196 217.752C133.326 220.782 134.081 234.035 127.065 239.408V239.406Z" fill="#192F35"/>
<path d="M62.5653 222.657L60.159 228.098L44.065 227.533C44.065 227.533 40.8881 225.69 36.2275 223.84L36.3015 221.734L62.5653 222.657Z" fill="#E1E1E1"/>
<path d="M120.765 243.961C120.765 243.961 117.808 254.138 108.604 262.165C104.729 261.282 99.4394 259.435 99.4394 259.435L98.3174 259.026C98.3174 259.026 111.463 250.456 120.765 243.961Z" fill="#122428"/>
<path d="M64.448 218.771C64.448 218.771 64.4295 218.771 64.4213 218.771C34.3518 215.822 27.1781 211.154 26.8884 210.957C26.7014 210.829 26.6562 210.578 26.7856 210.398C26.9151 210.217 27.174 210.172 27.361 210.299C27.4432 210.355 34.7751 215.058 64.5035 217.973C64.7295 217.996 64.896 218.193 64.8734 218.413C64.8528 218.625 64.6637 218.781 64.448 218.775V218.771Z" fill="#4043E2"/>
<path d="M72.0615 201.204L71.7286 201.948C70.9888 201.846 70.2347 201.743 69.4703 201.64C56.3209 199.838 39.9577 197.592 38.6364 188.743C37.5945 181.792 44.1476 169.745 44.4271 169.234C44.534 169.041 44.7847 168.964 44.986 169.073C45.1854 169.176 45.2634 169.421 45.1566 169.614C45.0867 169.735 38.4473 181.94 39.4501 188.632C40.6851 196.883 56.7072 199.08 69.5812 200.845C70.3867 200.954 71.1779 201.061 71.9546 201.174C71.9916 201.18 72.0286 201.188 72.0615 201.204Z" fill="#4043E2"/>
<path d="M133.302 194.917L123.196 217.752C122.258 217.471 121.235 217.278 120.136 217.187C107.155 216.117 95.4419 229.335 95.4419 229.335L60.1592 228.096L62.5655 222.655L71.7304 201.948L72.0633 201.204L75.9347 192.455C76.4402 191.313 77.6177 190.59 78.8979 190.635L131.717 192.488C132.977 192.533 133.799 193.793 133.302 194.917Z" fill="#E1E1E1"/>
<path d="M98.399 172.892L97.7538 191.298L96.9277 191.269L97.573 172.863C97.5812 172.643 97.7682 172.469 98.0004 172.477C98.2285 172.485 98.4073 172.672 98.399 172.892Z" fill="#4043E2"/>
<path d="M57.3567 119.859C57.7677 126.161 64.3105 125.15 64.3105 125.15L61.8179 141.232C61.8179 141.232 63.6796 149.101 70.6848 150.139C77.69 151.176 79.4675 145.616 79.4675 145.616L80.3491 139.925C96.3465 141.793 96.7863 112.327 96.7863 112.327C85.0959 111.819 81.3683 108.398 79.8477 106.993C78.3311 105.587 75.5447 104.5 74.9446 106.691C74.3446 108.875 73.1815 111.32 71.1287 113.377C69.0717 115.433 67.6579 120.627 67.6579 120.627L65.5352 120.313L65.8558 118.246C65.5311 116.707 64.2838 115.667 62.8351 115.261C60.2685 114.55 57.0875 115.828 57.3546 119.857L57.3567 119.859Z" fill="#FDCCC6"/>
<path d="M62.8373 115.259C64.286 115.666 65.5334 116.708 65.858 118.244L65.5375 120.311L67.6602 120.626C67.6602 120.626 69.074 115.432 71.1309 113.375C73.1838 111.316 74.3469 108.873 74.9469 106.689C75.5469 104.499 78.3354 105.586 79.8499 106.991C81.3705 108.396 85.0981 111.819 96.7885 112.325C96.7885 112.325 103.44 110.065 106.535 102.421C109.628 94.7841 105.146 88.9714 99.8154 90.2884C94.485 91.6075 92.9767 94.5909 88.5586 92.8424C84.1364 91.0898 76.8107 87.8968 73.1674 94.6074C73.1674 94.6074 63.5339 90.3152 60.9201 98.1969C58.3145 106.066 62.4325 112.748 62.8353 115.257L62.8373 115.259Z" fill="#1A2F34"/>
<path d="M67.9287 132.898C67.9287 132.898 68.7342 141.711 79.7033 144.09L80.3486 139.925C80.3486 139.925 71.757 139.288 67.9287 132.898Z" fill="#EEBBB8"/>
<path d="M95.4401 229.335L73.6705 244.538L44.0634 227.531L95.4401 229.335Z" fill="#122428"/>
<path d="M98.3024 259.425C98.2346 259.423 98.1668 259.405 98.1031 259.368L73.4935 244.426C73.2983 244.311 73.3867 244.278 73.5059 244.089C73.623 243.9 74.1182 243.902 74.3135 244.017L98.5305 258.681C98.7258 258.796 98.7895 259.043 98.6703 259.232C98.5901 259.361 98.4463 259.429 98.3024 259.425Z" fill="#122428"/>
<path d="M51.9354 262.364C50.61 262.644 49.2578 262.893 48.1256 263.03C44.4144 263.478 34.8591 264.066 31.6226 264.764C29.2985 265.266 27.6607 267.865 27.4799 270.513C23.9804 270.002 20.6412 268.767 17.8445 267.421L17.8403 267.417C10.8578 254.437 20.5446 248.312 20.5446 248.312L51.9333 262.364H51.9354Z" fill="#122428"/>
<path d="M76.6726 272.868L67.9496 278.654L60.8252 266.164L76.6726 272.868Z" fill="#122428"/>
<path d="M67.9496 278.659C65.3645 279.544 59.8779 281.038 55.4742 280.999C51.3295 280.958 32.0051 277.317 28.4707 274.141C28.4707 274.141 52.2378 280.13 66.6057 276.302L67.9496 278.659Z" fill="#4043E2"/>
<path d="M129.515 275.609C125.467 278.695 104.84 281.099 100.459 280.834C95.794 280.546 90.0999 278.559 87.4326 277.429L89.5882 274.203C100.202 280.54 128.917 275.709 129.515 275.609Z" fill="#4043E2"/>
<path d="M104.379 210.184C104.446 208.276 102.907 206.673 100.943 206.604C98.9786 206.535 97.3318 208.026 97.2649 209.935C97.1979 211.843 98.736 213.447 100.7 213.515C102.665 213.584 104.312 212.093 104.379 210.184Z" fill="white"/>
<path d="M353.832 34.5625H171.732V45.9146H353.832V34.5625Z" fill="#E4E8FF"/>
<path d="M111.393 41.4204C112.047 37.4306 109.344 33.6655 105.353 33.0107C101.363 32.3559 97.5974 35.0594 96.9426 39.0493C96.2877 43.0391 98.9916 46.8042 102.982 47.459C106.972 48.1138 110.738 45.4102 111.393 41.4204Z" fill="#E4E8FF"/>
<path d="M399.622 35.4219H375.136V45.0439H399.622V35.4219Z" fill="#D4D8FF"/>
<path d="M429.301 35.4219H404.814V45.0439H429.301V35.4219Z" fill="#7E89FD"/>
<path d="M136.208 177.188L131.677 183.415V190.358L142.553 183.415L136.208 177.188Z" fill="#1A2F34"/>
<path d="M303.255 86.3047H131.677V183.409H303.255V86.3047Z" fill="#001154"/>
<path d="M146.488 110.096C146.488 110.379 146.421 110.645 146.288 110.896C146.155 111.147 145.941 111.352 145.648 111.512C145.355 111.667 144.979 111.744 144.52 111.744H143.512V114H142.6V108.44H144.52C144.947 108.44 145.307 108.515 145.6 108.664C145.899 108.808 146.12 109.005 146.264 109.256C146.413 109.507 146.488 109.787 146.488 110.096ZM144.52 111C144.867 111 145.125 110.923 145.296 110.768C145.467 110.608 145.552 110.384 145.552 110.096C145.552 109.488 145.208 109.184 144.52 109.184H143.512V111H144.52ZM148.27 110.232C148.403 110.008 148.579 109.835 148.798 109.712C149.022 109.584 149.286 109.52 149.59 109.52V110.464H149.358C149 110.464 148.728 110.555 148.542 110.736C148.36 110.917 148.27 111.232 148.27 111.68V114H147.358V109.592H148.27V110.232ZM152.34 114.072C151.924 114.072 151.548 113.979 151.212 113.792C150.876 113.6 150.612 113.333 150.42 112.992C150.228 112.645 150.132 112.245 150.132 111.792C150.132 111.344 150.231 110.947 150.428 110.6C150.625 110.253 150.895 109.987 151.236 109.8C151.577 109.613 151.959 109.52 152.38 109.52C152.801 109.52 153.183 109.613 153.524 109.8C153.865 109.987 154.135 110.253 154.332 110.6C154.529 110.947 154.628 111.344 154.628 111.792C154.628 112.24 154.527 112.637 154.324 112.984C154.121 113.331 153.844 113.6 153.492 113.792C153.145 113.979 152.761 114.072 152.34 114.072ZM152.34 113.28C152.575 113.28 152.793 113.224 152.996 113.112C153.204 113 153.372 112.832 153.5 112.608C153.628 112.384 153.692 112.112 153.692 111.792C153.692 111.472 153.631 111.203 153.508 110.984C153.385 110.76 153.223 110.592 153.02 110.48C152.817 110.368 152.599 110.312 152.364 110.312C152.129 110.312 151.911 110.368 151.708 110.48C151.511 110.592 151.353 110.76 151.236 110.984C151.119 111.203 151.06 111.472 151.06 111.792C151.06 112.267 151.18 112.635 151.42 112.896C151.665 113.152 151.972 113.28 152.34 113.28ZM160.866 109.52C161.212 109.52 161.522 109.592 161.794 109.736C162.071 109.88 162.287 110.093 162.442 110.376C162.602 110.659 162.682 111 162.682 111.4V114H161.778V111.536C161.778 111.141 161.679 110.84 161.482 110.632C161.284 110.419 161.015 110.312 160.674 110.312C160.332 110.312 160.06 110.419 159.858 110.632C159.66 110.84 159.562 111.141 159.562 111.536V114H158.658V111.536C158.658 111.141 158.559 110.84 158.362 110.632C158.164 110.419 157.895 110.312 157.554 110.312C157.212 110.312 156.94 110.419 156.738 110.632C156.54 110.84 156.442 111.141 156.442 111.536V114H155.53V109.592H156.442V110.096C156.591 109.915 156.78 109.773 157.01 109.672C157.239 109.571 157.484 109.52 157.746 109.52C158.098 109.52 158.412 109.595 158.69 109.744C158.967 109.893 159.18 110.109 159.33 110.392C159.463 110.125 159.671 109.915 159.954 109.76C160.236 109.6 160.54 109.52 160.866 109.52ZM164.754 110.24C164.909 110.037 165.12 109.867 165.386 109.728C165.653 109.589 165.954 109.52 166.29 109.52C166.674 109.52 167.024 109.616 167.338 109.808C167.658 109.995 167.909 110.259 168.09 110.6C168.272 110.941 168.362 111.333 168.362 111.776C168.362 112.219 168.272 112.616 168.09 112.968C167.909 113.315 167.658 113.587 167.338 113.784C167.024 113.976 166.674 114.072 166.29 114.072C165.954 114.072 165.656 114.005 165.394 113.872C165.133 113.733 164.92 113.563 164.754 113.36V116.096H163.842V109.592H164.754V110.24ZM167.434 111.776C167.434 111.472 167.37 111.211 167.242 110.992C167.12 110.768 166.954 110.6 166.746 110.488C166.544 110.371 166.325 110.312 166.09 110.312C165.861 110.312 165.642 110.371 165.434 110.488C165.232 110.605 165.066 110.776 164.938 111C164.816 111.224 164.754 111.488 164.754 111.792C164.754 112.096 164.816 112.363 164.938 112.592C165.066 112.816 165.232 112.987 165.434 113.104C165.642 113.221 165.861 113.28 166.09 113.28C166.325 113.28 166.544 113.221 166.746 113.104C166.954 112.981 167.12 112.805 167.242 112.576C167.37 112.347 167.434 112.08 167.434 111.776ZM170.328 110.336V112.776C170.328 112.941 170.365 113.061 170.44 113.136C170.52 113.205 170.653 113.24 170.84 113.24H171.4V114H170.68C170.269 114 169.955 113.904 169.736 113.712C169.517 113.52 169.408 113.208 169.408 112.776V110.336H168.888V109.592H169.408V108.496H170.328V109.592H171.4V110.336H170.328ZM178.759 108.44V114H177.847V111.568H175.231V114H174.319V108.44H175.231V110.824H177.847V108.44H178.759ZM183.999 111.688C183.999 111.853 183.989 112.003 183.967 112.136H180.599C180.626 112.488 180.757 112.771 180.991 112.984C181.226 113.197 181.514 113.304 181.855 113.304C182.346 113.304 182.693 113.099 182.895 112.688H183.879C183.746 113.093 183.503 113.427 183.151 113.688C182.805 113.944 182.373 114.072 181.855 114.072C181.434 114.072 181.055 113.979 180.719 113.792C180.389 113.6 180.127 113.333 179.935 112.992C179.749 112.645 179.655 112.245 179.655 111.792C179.655 111.339 179.746 110.941 179.927 110.6C180.114 110.253 180.373 109.987 180.703 109.8C181.039 109.613 181.423 109.52 181.855 109.52C182.271 109.52 182.642 109.611 182.967 109.792C183.293 109.973 183.546 110.229 183.727 110.56C183.909 110.885 183.999 111.261 183.999 111.688ZM183.047 111.4C183.042 111.064 182.922 110.795 182.687 110.592C182.453 110.389 182.162 110.288 181.815 110.288C181.501 110.288 181.231 110.389 181.007 110.592C180.783 110.789 180.65 111.059 180.607 111.4H183.047ZM185.809 110.232C185.942 110.008 186.118 109.835 186.337 109.712C186.561 109.584 186.825 109.52 187.129 109.52V110.464H186.897C186.54 110.464 186.268 110.555 186.081 110.736C185.9 110.917 185.809 111.232 185.809 111.68V114H184.897V109.592H185.809V110.232ZM192.007 111.688C192.007 111.853 191.997 112.003 191.975 112.136H188.607C188.634 112.488 188.765 112.771 188.999 112.984C189.234 113.197 189.522 113.304 189.863 113.304C190.354 113.304 190.701 113.099 190.903 112.688H191.887C191.754 113.093 191.511 113.427 191.159 113.688C190.813 113.944 190.381 114.072 189.863 114.072C189.442 114.072 189.063 113.979 188.727 113.792C188.397 113.6 188.135 113.333 187.943 112.992C187.757 112.645 187.663 112.245 187.663 111.792C187.663 111.339 187.754 110.941 187.935 110.6C188.122 110.253 188.381 109.987 188.711 109.8C189.047 109.613 189.431 109.52 189.863 109.52C190.279 109.52 190.65 109.611 190.975 109.792C191.301 109.973 191.554 110.229 191.735 110.56C191.917 110.885 192.007 111.261 192.007 111.688ZM191.055 111.4C191.05 111.064 190.93 110.795 190.695 110.592C190.461 110.389 190.17 110.288 189.823 110.288C189.509 110.288 189.239 110.389 189.015 110.592C188.791 110.789 188.658 111.059 188.615 111.4H191.055ZM193.273 114.056C193.107 114.056 192.969 114 192.857 113.888C192.745 113.776 192.689 113.637 192.689 113.472C192.689 113.307 192.745 113.168 192.857 113.056C192.969 112.944 193.107 112.888 193.273 112.888C193.433 112.888 193.569 112.944 193.681 113.056C193.793 113.168 193.849 113.307 193.849 113.472C193.849 113.637 193.793 113.776 193.681 113.888C193.569 114 193.433 114.056 193.273 114.056ZM195.202 114.056C195.037 114.056 194.898 114 194.786 113.888C194.674 113.776 194.618 113.637 194.618 113.472C194.618 113.307 194.674 113.168 194.786 113.056C194.898 112.944 195.037 112.888 195.202 112.888C195.362 112.888 195.498 112.944 195.61 113.056C195.722 113.168 195.778 113.307 195.778 113.472C195.778 113.637 195.722 113.776 195.61 113.888C195.498 114 195.362 114.056 195.202 114.056ZM197.132 114.056C196.967 114.056 196.828 114 196.716 113.888C196.604 113.776 196.548 113.637 196.548 113.472C196.548 113.307 196.604 113.168 196.716 113.056C196.828 112.944 196.967 112.888 197.132 112.888C197.292 112.888 197.428 112.944 197.54 113.056C197.652 113.168 197.708 113.307 197.708 113.472C197.708 113.637 197.652 113.776 197.54 113.888C197.428 114 197.292 114.056 197.132 114.056Z" fill="white"/>
<path d="M303.255 98.5312H131.677V98.9463H303.255V98.5312Z" fill="white"/>
<path d="M258.832 128.008H141.815V128.423H258.832V128.008Z" fill="white"/>
<path d="M277.833 128.008H267.99V128.423H277.833V128.008Z" fill="#FF735C"/>
<path d="M293.963 128.008H283.984V128.423H293.963V128.008Z" fill="#7E89FD"/>
<path d="M215.225 137.984H141.815V138.399H215.225V137.984Z" fill="white"/>
<path d="M242.29 137.984H223.699V138.399H242.29V137.984Z" fill="#7E89FD"/>
<path d="M147.557 143.727H141.815V144.142H147.557V143.727Z" fill="#7E89FD"/>
<path d="M147.557 149.469H141.815V149.884H147.557V149.469Z" fill="#7E89FD"/>
<path d="M174.076 143.727H152.614V144.142H174.076V143.727Z" fill="white"/>
<path d="M200.322 143.727H179.816V144.142H200.322V143.727Z" fill="white"/>
<path d="M242.29 143.727H205.655V144.142H242.29V143.727Z" fill="white"/>
<path d="M258.83 149.469H152.614V149.884H258.83V149.469Z" fill="white"/>
<path d="M147.557 155.211H141.815V155.626H147.557V155.211Z" fill="#7E89FD"/>
<path d="M195.539 155.211H152.614V155.626H195.539V155.211Z" fill="#FF735C"/>
<path d="M147.557 160.953H141.815V161.368H147.557V160.953Z" fill="#7E89FD"/>
<path d="M189.751 160.953H152.614V161.368H189.751V160.953Z" fill="white"/>
<path d="M215.225 170.523H141.815V170.938H215.225V170.523Z" fill="white"/>
<path d="M251.724 170.523H222.879V170.938H251.724V170.523Z" fill="#FF735C"/>
<path d="M277.126 92.9878C277.26 92.16 276.698 91.3801 275.87 91.2457C275.042 91.1113 274.262 91.6734 274.128 92.5012C273.994 93.329 274.556 94.1089 275.384 94.2433C276.212 94.3777 276.992 93.8155 277.126 92.9878Z" fill="white"/>
<path d="M284.022 92.9956C284.156 92.1678 283.594 91.3879 282.766 91.2535C281.938 91.1192 281.158 91.6813 281.024 92.509C280.889 93.3368 281.451 94.1167 282.279 94.2511C283.107 94.3855 283.887 93.8234 284.022 92.9956Z" fill="white"/>
<path d="M290.78 92.9878C290.915 92.16 290.352 91.3801 289.525 91.2457C288.697 91.1114 287.917 91.6735 287.782 92.5012C287.648 93.329 288.21 94.1089 289.038 94.2433C289.866 94.3777 290.646 93.8156 290.78 92.9878Z" fill="white"/>
</g>
<defs>
<clipPath id="clip0_206_859">
<rect width="500" height="281" fill="white"/>
</clipPath>
</defs>
</svg>
