<svg width="150" height="141" viewBox="0 0 150 141" fill="none" xmlns="http://www.w3.org/2000/svg">
<g clip-path="url(#clip0_206_1436)">
<path d="M120.498 6.75H105.224V108.172H120.498C127.674 108.172 133.494 102.336 133.494 95.1393V19.7831C133.494 12.5866 127.674 6.75 120.498 6.75Z" fill="#161C1C"/>
<path d="M120.498 108.308H105.086V6.60938H120.498C127.74 6.60938 133.632 12.5184 133.632 19.7808V95.1369C133.632 102.399 127.74 108.308 120.498 108.308ZM105.361 108.032H120.497C127.588 108.032 133.356 102.247 133.356 95.1369V19.7808C133.356 12.6699 127.588 6.88515 120.497 6.88515H105.361V108.032Z" fill="black"/>
<path d="M70.3906 20.0556V95.4117C70.3906 102.337 76.2108 108.172 83.3871 108.172H118.443C125.623 108.172 131.44 102.336 131.44 95.1393V19.7831C131.44 12.5866 125.623 6.75 118.443 6.75H83.3871C76.2108 6.75 70.3906 12.5866 70.3906 20.0556Z" fill="white"/>
<path d="M118.444 108.308H83.3874C76.1455 108.308 70.2539 102.521 70.2539 95.4086V20.0533C70.2539 16.418 71.6199 13.0263 74.1006 10.5024C76.5682 7.99237 79.8666 6.60938 83.3883 6.60938H118.445C125.687 6.60938 131.579 12.5184 131.579 19.7808V95.1369C131.579 102.399 125.687 108.308 118.445 108.308H118.444ZM83.3874 6.88515C76.1767 6.88515 70.5289 12.669 70.5289 20.0525V95.4086C70.5289 102.369 76.2973 108.032 83.3874 108.032H118.444C125.535 108.032 131.303 102.247 131.303 95.1369V19.7808C131.303 12.6699 125.535 6.88515 118.444 6.88515H83.3874Z" fill="black"/>
<path d="M45.4116 3.35915L45.0914 20.7701C45.0577 22.5812 46.4951 24.0753 48.3003 24.1091L78.2745 24.6631C80.0829 24.6968 81.5737 23.2562 81.6073 21.4451L81.9275 4.03665C81.9612 2.22476 80.5229 0.728157 78.7153 0.694405L48.7419 0.141206C46.936 0.107454 45.446 1.5489 45.4124 3.35915H45.4116Z" fill="white"/>
<path d="M45.4116 3.35478L45.0914 20.7657C45.0577 22.5768 46.4951 24.0709 48.3003 24.1047L78.2745 24.6587C79.6413 24.6842 80.8259 23.8676 81.3389 22.6838C80.8217 23.0065 80.211 23.1835 79.5609 23.172L49.5866 22.618C47.7807 22.5842 46.3441 21.0893 46.3777 19.279L46.6979 1.86805C46.7061 1.42434 46.7997 1.00532 46.9663 0.625C46.051 1.1889 45.4337 2.19651 45.4124 3.35478H45.4116Z" fill="#E5E8FF"/>
<path d="M78.3363 24.7994C78.3149 24.7994 78.2936 24.7994 78.2723 24.7994L48.298 24.2454C47.3877 24.2281 46.5388 23.8576 45.9076 23.1999C45.2755 22.543 44.9373 21.6786 44.9537 20.7656L45.2738 3.35467C45.2911 2.44173 45.6605 1.59052 46.3164 0.957472C46.9715 0.322774 47.8367 -0.00568796 48.743 7.45329e-05L78.7172 0.554097C80.5979 0.588672 82.0993 2.15113 82.064 4.03629L81.7438 21.4448C81.7093 23.3069 80.1866 24.7986 78.3355 24.7986L78.3363 24.7994ZM45.4109 3.35632L45.5488 3.35878L45.2287 20.7697C45.2131 21.6086 45.5242 22.403 46.1054 23.0072C46.6858 23.6115 47.4665 23.9523 48.303 23.9679L78.2772 24.522C80.006 24.5532 81.4376 23.1719 81.4696 21.4398L81.7898 4.03135C81.8218 2.29766 80.4411 0.861979 78.7131 0.829874L48.7388 0.275851C47.0158 0.243746 45.5809 1.62592 45.5488 3.35796L45.4109 3.35549V3.35632Z" fill="#242B2B"/>
<path d="M71.8748 15.5459L71.7822 20.5625L75.9738 20.6403L76.0664 15.6236L71.8748 15.5459Z" fill="#04B5A4"/>
<path d="M64.8967 13.8007L64.7744 20.4297L68.966 20.5075L69.0883 13.8784L64.8967 13.8007Z" fill="#FF4148"/>
<path d="M57.929 11.5003L57.7666 20.3047L61.9582 20.3825L62.1206 11.5781L57.929 11.5003Z" fill="#04B5A4"/>
<path d="M50.9502 9.7954L50.7588 20.1719L54.9504 20.2496L55.1418 9.87317L50.9502 9.7954Z" fill="#FF4148"/>
<path d="M74.7109 13.0938C66.818 13.0938 58.7543 9.61735 55.0176 4.57929L55.4592 4.25C59.1442 9.21727 67.18 12.6204 74.9998 12.5398L75.0056 13.0913C74.9079 13.0921 74.8086 13.093 74.7109 13.093V13.0938Z" fill="#242B2B"/>
<path d="M55.5106 6.38168L57.3322 4.92871C57.6228 4.69738 57.5415 4.23474 57.1902 4.11619L55.1609 3.43128C54.8391 3.32262 54.5124 3.58275 54.5453 3.92192L54.7529 6.06062C54.7891 6.43107 55.22 6.61465 55.5106 6.3825V6.38168Z" fill="#242B2B"/>
<path d="M93.5547 11.7241C93.5547 12.6115 94.2721 13.3318 95.1579 13.3318H106.673C107.115 13.3318 107.516 13.1516 107.807 12.8626C108.098 12.5712 108.278 12.1686 108.278 11.7249C108.278 10.8375 107.56 10.1172 106.673 10.1172H95.1579C94.7154 10.1172 94.314 10.2975 94.0234 10.5872C93.7353 10.8787 93.5555 11.2812 93.5555 11.7249L93.5547 11.7241Z" fill="#161C1C"/>
<path d="M88.01 34.3518C87.5429 38.621 85.1048 41.9287 82.5641 41.741C80.0235 41.5525 78.3423 37.9394 78.8094 33.6702C79.2764 29.401 81.7145 26.0934 84.2552 26.281C86.7959 26.4696 88.4771 30.0826 88.01 34.3518Z" fill="#007AFD"/>
<path d="M82.769 41.8831C82.6976 41.8831 82.6262 41.8807 82.5548 41.8749C81.6887 41.8107 80.8842 41.3587 80.2292 40.5693C78.9502 39.0274 78.3682 36.4409 78.6736 33.651C79.148 29.3159 81.6575 25.9564 84.2663 26.14C85.1324 26.2042 85.9369 26.6553 86.5919 27.4448C87.8709 28.9867 88.4529 31.5732 88.1475 34.3631C87.6862 38.5796 85.3007 41.8823 82.7698 41.8823L82.769 41.8831ZM84.0472 26.4092C81.6551 26.4092 79.3927 29.6057 78.9461 33.6831C78.653 36.3594 79.226 38.9311 80.4401 40.3939C81.0468 41.1249 81.7848 41.5423 82.5745 41.6008C85.033 41.7917 87.4145 38.5236 87.8725 34.3343C88.1656 31.658 87.5934 29.0863 86.3793 27.6226C85.7727 26.8916 85.0355 26.475 84.245 26.4166C84.1793 26.4117 84.1128 26.4092 84.0472 26.4092Z" fill="black"/>
<path d="M77.2928 71.373C69.8769 71.373 61.1401 60.7552 60.7001 60.2143C60.5564 60.0373 60.5827 59.7764 60.7592 59.6323C60.9357 59.4874 61.1959 59.5146 61.3395 59.6916C61.4446 59.82 70.252 70.5267 77.3109 70.5275C78.6375 70.5275 79.9017 70.1497 81.0353 69.2524C84.6793 66.3687 84.2417 60.1238 84.2368 60.0612C84.2187 59.8332 84.3887 59.6339 84.6161 59.6167C84.8418 59.6002 85.0421 59.769 85.0593 59.997C85.0807 60.2711 85.5396 66.7432 81.5467 69.9027C80.2349 70.9408 78.7902 71.3738 77.292 71.3738L77.2928 71.373Z" fill="black"/>
<path d="M59.5975 60.8351C58.4811 60.8351 57.2391 60.2341 56.3246 59.1359C56.1785 58.9606 56.2014 58.6996 56.3771 58.5531C56.552 58.4066 56.8122 58.4304 56.9583 58.6058C58.0895 59.9641 59.783 60.4218 60.7344 59.6258C61.685 58.8297 61.5381 57.0763 60.4069 55.718C60.2608 55.5426 60.2838 55.2817 60.4594 55.1351C60.6351 54.9886 60.8945 55.0125 61.0406 55.1878C62.4632 56.8968 62.5634 59.173 61.2639 60.2613C60.7993 60.6498 60.2181 60.8359 59.5983 60.8359L59.5975 60.8351Z" fill="black"/>
<path d="M119.301 56.8081C119.301 72.9777 109.812 86.9229 99.5066 86.5475C89.2011 86.173 81.9805 71.6186 81.9805 55.4531L119.301 56.8081Z" fill="white"/>
<path d="M99.9158 86.695C99.7779 86.695 99.64 86.6926 99.5021 86.6876C89.5996 86.3271 81.8438 72.6082 81.8438 55.4557V55.3125L81.9866 55.3174L119.439 56.6774V56.8107C119.439 66.7552 115.806 76.4469 109.957 82.1032C106.843 85.1137 103.38 86.6959 99.9158 86.6959V86.695ZM82.1196 55.5982C82.1623 72.5349 89.7867 86.0579 99.5127 86.411C103.032 86.5345 106.584 84.9803 109.767 81.9031C115.537 76.3225 119.131 66.7675 119.164 56.9425L82.1196 55.5973V55.5982Z" fill="black"/>
<path d="M96.5812 69.4666C95.5772 70.1375 94.2211 69.8691 93.5488 68.8624C92.8797 67.8556 93.1474 66.4956 94.1513 65.8214C95.1553 65.1505 96.5114 65.4221 97.1837 66.4256C97.8527 67.4324 97.5818 68.7924 96.5812 69.4666Z" fill="#FFD24F"/>
<path d="M95.37 69.9685C94.6189 69.9685 93.8817 69.6055 93.4343 68.9354C92.7235 67.8668 93.0108 66.4172 94.0738 65.7034C95.1377 64.9914 96.5833 65.2795 97.2975 66.3447C98.0067 67.4116 97.7194 68.8621 96.658 69.5775C96.2623 69.8417 95.8141 69.9685 95.3709 69.9685H95.37ZM95.3602 65.5882C94.9694 65.5882 94.5746 65.6993 94.2265 65.9323C93.2891 66.5612 93.0362 67.8397 93.6626 68.7822C94.2897 69.7224 95.5646 69.9759 96.5045 69.3478C97.4411 68.7172 97.694 67.4388 97.0685 66.4978C96.6728 65.9076 96.0218 65.5882 95.3602 65.5882Z" fill="black"/>
<path d="M95.9776 75.2869C94.9737 75.9578 93.6176 75.6895 92.9452 74.6827C92.2762 73.6759 92.5438 72.3159 93.5478 71.6417C94.5517 70.9708 95.9079 71.2425 96.5802 72.246C97.2492 73.2527 96.9783 74.6127 95.9776 75.2869Z" fill="#007AFD"/>
<path d="M94.7671 75.7896C94.016 75.7896 93.2788 75.4266 92.8314 74.7565C92.1214 73.688 92.4079 72.2383 93.4709 71.5237C94.5348 70.8117 95.9804 71.0998 96.6946 72.165C97.4038 73.2319 97.1165 74.6824 96.0551 75.3978C95.6594 75.662 95.2112 75.7888 94.7679 75.7888L94.7671 75.7896ZM94.7573 71.4093C94.3665 71.4093 93.9717 71.5204 93.6236 71.7534C92.6862 72.3832 92.4333 73.6616 93.0597 74.6034C93.6868 75.5427 94.9617 75.7962 95.9016 75.1689C96.8382 74.5375 97.0911 73.2591 96.4656 72.319C96.0699 71.7287 95.4189 71.4093 94.7573 71.4093Z" fill="black"/>
<path d="M119.302 56.7523C119.302 60.2814 110.948 62.8523 100.642 62.4942C90.3367 62.1361 81.9824 58.984 81.9824 55.4549C81.9824 51.9258 90.3367 49.3549 100.642 49.713C110.948 50.0711 119.302 53.2232 119.302 56.7523Z" fill="#161C1C"/>
<path d="M102.531 62.6619C101.907 62.6619 101.275 62.6512 100.638 62.629C90.2753 62.2684 81.8447 59.0488 81.8447 55.4514C81.8447 54.7055 82.1936 53.9885 82.8823 53.3217C85.4862 50.8002 92.6223 49.2937 100.647 49.572C111.009 49.9325 119.439 53.1521 119.439 56.7496C119.439 57.4954 119.09 58.2124 118.402 58.8792C116.006 61.2007 109.765 62.6619 102.531 62.6619ZM98.7412 49.8148C91.5806 49.8148 85.423 51.2456 83.0744 53.5201C82.4415 54.1334 82.1205 54.7829 82.1205 55.4514C82.1205 58.9014 90.4321 61.9976 100.647 62.3532C108.599 62.6339 115.657 61.1538 118.21 58.6808C118.843 58.0675 119.164 57.418 119.164 56.7496C119.164 53.2995 110.853 50.2034 100.638 49.8477C99.9989 49.8255 99.3659 49.8148 98.7412 49.8148Z" fill="black"/>
<path d="M101.429 56.2966C112.95 56.2966 122.29 47.9265 122.29 37.6014C122.29 27.2764 112.95 18.9062 101.429 18.9062C89.9074 18.9062 80.5674 27.2764 80.5674 37.6014C80.5674 47.9265 89.9074 56.2966 101.429 56.2966Z" fill="white"/>
<path d="M101.429 56.4326C89.8503 56.4326 80.4297 47.9839 80.4297 37.5991C80.4297 27.2143 89.8503 18.7656 101.429 18.7656C113.008 18.7656 122.428 27.2143 122.428 37.5991C122.428 47.9839 113.008 56.4326 101.429 56.4326ZM101.429 19.0414C90.0022 19.0414 80.7047 27.3657 80.7047 37.5991C80.7047 47.8325 90.0013 56.1568 101.429 56.1568C112.857 56.1568 122.153 47.8325 122.153 37.5991C122.153 27.3657 112.857 19.0414 101.429 19.0414Z" fill="black"/>
<path d="M125.257 38.7321C125.105 43.0243 122.917 46.5032 120.369 46.5032C117.822 46.5032 115.88 43.0243 116.032 38.7321C116.184 34.4398 118.372 30.9609 120.919 30.9609C123.467 30.9609 125.409 34.4398 125.257 38.7321Z" fill="#007AFD"/>
<path d="M120.369 46.6384C119.501 46.6384 118.665 46.2473 117.954 45.5089C116.565 44.0658 115.795 41.5295 115.894 38.7248C116.049 34.3659 118.303 30.8203 120.919 30.8203C121.788 30.8203 122.623 31.2113 123.334 31.9498C124.723 33.3929 125.493 35.9292 125.394 38.7339C125.239 43.0928 122.985 46.6384 120.368 46.6384H120.369ZM120.919 31.0961C118.449 31.0961 116.318 34.5223 116.169 38.7339C116.074 41.4241 116.833 43.9473 118.152 45.3171C118.81 46.0012 119.577 46.3626 120.369 46.3626C122.839 46.3626 124.97 42.9364 125.12 38.7248C125.215 36.0337 124.455 33.5114 123.137 32.1416C122.479 31.4575 121.712 31.0961 120.92 31.0961H120.919Z" fill="black"/>
<path d="M125.252 38.8177C125.153 41.6084 123.731 43.8697 122.074 43.8697C120.418 43.8697 119.155 41.6076 119.255 38.8177C119.353 36.027 120.776 33.7656 122.432 33.7656C124.089 33.7656 125.351 36.0278 125.252 38.8177Z" fill="#FFD24F"/>
<path d="M122.075 44.0057C121.496 44.0057 120.941 43.7464 120.47 43.2566C119.558 42.3091 119.052 40.647 119.117 38.8104C119.218 35.9514 120.705 33.625 122.432 33.625C123.01 33.625 123.565 33.8843 124.037 34.3741C124.949 35.3216 125.454 36.9837 125.389 38.8203C125.288 41.6793 123.801 44.0057 122.074 44.0057H122.075ZM122.432 33.9008C120.851 33.9008 119.487 36.1078 119.392 38.8203C119.33 40.5573 119.819 42.1831 120.668 43.0648C121.086 43.4994 121.573 43.7299 122.075 43.7299C123.655 43.7299 125.019 41.5237 125.115 38.8112C125.177 37.0743 124.688 35.4476 123.839 34.5668C123.421 34.1313 122.934 33.9016 122.432 33.9016L122.432 33.9008Z" fill="black"/>
<path d="M109.616 40.0708C102.05 40.8018 94.5151 40.121 87.3873 38.1453C85.7824 37.6991 84.9032 36.2198 85.3843 34.9233C85.9047 33.4695 86.4112 32.0074 86.9062 30.5462C87.3618 29.2398 88.7729 28.5343 90.1044 28.9015C96.1167 30.5462 102.488 31.1044 108.906 30.4565C110.324 30.3124 111.645 31.2377 111.838 32.6051C112.04 34.1387 112.226 35.6716 112.402 37.2093C112.572 38.5808 111.318 39.9128 109.617 40.0708H109.616Z" fill="#161C1C"/>
<path d="M103.657 40.4946C98.1417 40.4946 92.6786 39.7528 87.351 38.2752C86.4734 38.0307 85.7568 37.4709 85.3841 36.7382C85.0779 36.1373 85.0328 35.4746 85.256 34.8728C85.7461 33.5038 86.2436 32.0731 86.7763 30.4991C87.2516 29.1375 88.7293 28.3769 90.1412 28.7654C96.2421 30.4349 102.552 30.956 108.892 30.3164C110.415 30.1599 111.773 31.1569 111.975 32.5827C112.17 34.0702 112.354 35.5775 112.539 37.1902C112.615 37.8092 112.419 38.4481 111.986 38.9864C111.435 39.6722 110.577 40.1167 109.629 40.2048C107.635 40.3974 105.642 40.4937 103.656 40.4937L103.657 40.4946ZM89.3917 28.9399C88.3516 28.9399 87.3871 29.5812 87.0358 30.5897C86.5022 32.1636 86.0047 33.596 85.5138 34.9675C85.3168 35.4977 85.3578 36.0813 85.6287 36.6131C85.9669 37.2774 86.6212 37.7862 87.424 38.0101C94.6373 40.0097 102.1 40.6559 109.604 39.9315C110.477 39.85 111.267 39.4433 111.772 38.8152C112.157 38.3353 112.333 37.7697 112.265 37.2248C112.08 35.6121 111.897 34.1064 111.701 32.6222C111.521 31.3445 110.295 30.4547 108.919 30.5921C102.544 31.2367 96.2019 30.7115 90.0673 29.033C89.8424 28.9704 89.615 28.9408 89.3909 28.9408L89.3917 28.9399Z" fill="black"/>
<path d="M92.3655 34.1747C92.2326 35.2045 91.5652 35.9676 90.8756 35.8771C90.1861 35.7873 89.7346 34.8802 89.8667 33.8503C89.9997 32.8213 90.6671 32.0574 91.3567 32.1479C92.0462 32.2376 92.4985 33.1448 92.3655 34.1747Z" fill="white"/>
<path d="M105.245 35.3387C105.112 36.3686 104.444 37.1317 103.755 37.0411C103.065 36.9514 102.613 36.0442 102.746 35.0144C102.879 33.9845 103.546 33.2214 104.236 33.312C104.925 33.4017 105.377 34.3089 105.245 35.3387Z" fill="white"/>
<path d="M92.9906 43.4887C92.6787 43.3661 92.3265 43.5735 92.297 43.9086C92.297 43.911 92.297 43.9135 92.297 43.9152C92.0983 46.2251 93.805 48.2593 96.1084 48.4585C98.4118 48.6577 100.44 46.9462 100.639 44.6363C100.639 44.6297 100.64 44.6239 100.641 44.6174C100.667 44.2873 100.364 44.0205 100.04 44.0814C97.4358 44.5721 95.1044 44.3185 92.9906 43.4887Z" fill="#FFD24F"/>
<path d="M96.4762 48.6096C96.3498 48.6096 96.2242 48.6038 96.097 48.5931C94.9461 48.4935 93.9027 47.951 93.159 47.0644C92.4152 46.1778 92.0606 45.0541 92.1599 43.9C92.178 43.6942 92.2864 43.518 92.4587 43.411C92.6328 43.3023 92.8511 43.2826 93.0416 43.3567C95.2104 44.2087 97.5565 44.4054 100.014 43.9428C100.213 43.9058 100.415 43.9626 100.567 44.1C100.717 44.235 100.793 44.4269 100.778 44.6253C100.677 45.7992 100.136 46.8455 99.2517 47.5913C98.4653 48.2548 97.4917 48.6096 96.4762 48.6096ZM92.8035 43.588C92.7346 43.588 92.6648 43.6078 92.6032 43.6456C92.5055 43.7065 92.444 43.8053 92.4341 43.9173C92.3405 45.0047 92.673 46.0568 93.3691 46.8866C94.0652 47.7164 95.0421 48.2252 96.1199 48.3182C97.1994 48.412 98.2469 48.0786 99.0744 47.3797C99.9018 46.6816 100.409 45.702 100.502 44.6211C100.513 44.4911 100.468 44.3824 100.383 44.305C100.295 44.2252 100.178 44.1922 100.065 44.2136C97.5565 44.687 95.1587 44.4845 92.9406 43.6135C92.8955 43.5962 92.8495 43.5872 92.8027 43.5872L92.8035 43.588Z" fill="black"/>
<path d="M106.775 81.2354C102.865 81.2354 99.6203 80.7143 99.2936 80.66C99.0687 80.623 98.9168 80.4098 98.9538 80.1842C98.9907 79.9586 99.2042 79.8063 99.4283 79.8434C99.622 79.8755 118.871 82.9634 120.508 73.9549C121.341 69.368 116.894 64.9811 116.849 64.9375C116.686 64.7786 116.682 64.516 116.84 64.3522C116.999 64.1883 117.261 64.1842 117.424 64.3431C117.621 64.5341 122.232 69.0856 121.321 74.1031C120.245 80.0245 112.737 81.2354 106.775 81.2354Z" fill="black"/>
<path d="M96.1103 82.8132C95.8444 82.8132 95.5735 82.7926 95.3026 82.7506C95.0768 82.716 94.9225 82.5045 94.957 82.2789C94.9914 82.0525 95.2032 81.8978 95.4273 81.9323C96.2958 82.0657 97.1438 81.9455 97.817 81.5923C98.4491 81.2614 98.8447 80.7642 98.9326 80.1937C99.1206 78.9663 97.8547 77.7488 96.1103 77.4796C95.8854 77.445 95.7302 77.2334 95.7655 77.007C95.8008 76.7807 96.0085 76.6259 96.2367 76.6613C98.431 76.9996 100.006 78.6411 99.7494 80.3197C99.6213 81.1569 99.0713 81.8698 98.2003 82.3258C97.5879 82.6469 96.8664 82.8132 96.1103 82.8132Z" fill="black"/>
<path d="M118.305 91.443C118.305 91.9254 118.109 92.3625 117.793 92.6786C117.478 92.9956 117.042 93.1915 116.561 93.1915H85.1537C84.1916 93.1915 83.4102 92.4078 83.4102 91.443C83.4102 90.9606 83.6055 90.5235 83.9216 90.2074C84.2368 89.8912 84.6727 89.6953 85.1537 89.6953H116.561C117.523 89.6953 118.305 90.479 118.305 91.4438V91.443Z" fill="#C5CDE3"/>
<path d="M108.861 97.318C108.861 97.8004 108.666 98.2375 108.35 98.5536C108.035 98.8698 107.599 99.0665 107.118 99.0665H93.0844C92.1223 99.0665 91.3408 98.2828 91.3408 97.318C91.3408 96.8356 91.5362 96.3985 91.8522 96.0823C92.1683 95.7662 92.6034 95.5703 93.0844 95.5703H107.118C108.08 95.5703 108.861 96.354 108.861 97.3188V97.318Z" fill="#C5CDE3"/>
<path d="M21.8028 138.795L15.0444 135.132L13.2195 133.516L5.85691 134.627L5.86265 140.416C5.80109 140.718 6.02848 140.995 6.32974 140.995H22.091C22.3561 140.995 22.5704 140.78 22.5704 140.515V139.941C22.5704 139.435 22.2691 138.985 21.802 138.794L21.8028 138.795Z" fill="black"/>
<path d="M13.2193 133.513L13.2381 126.844L5.85254 129.742L5.85664 134.625C8.84389 135.888 11.5438 135.453 13.2193 133.513Z" fill="#FFCFC5"/>
<path d="M15.4608 137.396L15.2178 137.266C15.7628 136.246 16.7578 136.144 16.8005 136.141L16.8259 136.416C16.7898 136.419 15.9336 136.512 15.4608 137.397V137.396Z" fill="white"/>
<path d="M16.9217 138.264L16.6787 138.134C17.2238 137.114 18.2204 137.012 18.2622 137.008L18.2877 137.283C18.2515 137.286 17.3945 137.379 16.9217 138.265V138.264Z" fill="white"/>
<path d="M45.3662 138.795L38.6077 135.132L36.7829 133.516L29.4203 134.627L29.426 140.416C29.3644 140.718 29.5918 140.996 29.8931 140.996H45.6543C45.9195 140.996 46.1337 140.78 46.1337 140.515V139.941C46.1337 139.436 45.8325 138.985 45.3654 138.794L45.3662 138.795Z" fill="black"/>
<path d="M36.7836 133.514L36.8025 126.844L29.4169 129.743L29.421 134.625C32.4082 135.888 35.1081 135.453 36.7836 133.514Z" fill="#FFCFC5"/>
<path d="M39.0243 137.396L38.7821 137.266C39.3272 136.246 40.3221 136.144 40.3648 136.141L40.3902 136.416C40.3541 136.419 39.4979 136.512 39.0251 137.397L39.0243 137.396Z" fill="white"/>
<path d="M40.4853 138.264L40.2432 138.134C40.7882 137.114 41.784 137.012 41.8267 137.008L41.8521 137.283C41.816 137.286 40.959 137.379 40.4861 138.265L40.4853 138.264Z" fill="white"/>
<path d="M39.9926 130.101L27.0175 130.481L16.084 71.7885L21.9813 56.7188L28.074 57.2547L39.4122 126.546L39.7102 128.381L39.9926 130.101Z" fill="#444BA1"/>
<path d="M20.1546 70.0781L21.3769 100.204L17.2158 77.8608L20.1546 70.0781Z" fill="black"/>
<path d="M22.1499 58.0208C22.1499 61.9805 19.5124 77.41 19.5124 77.41L16.741 126.287L16.6228 128.385L16.4677 131.107L3.1084 131.025C3.1084 131.025 5.57437 75.6359 5.50706 69.9731C5.40034 61.2108 8.18564 57.4553 8.18564 57.4553C8.18564 57.4553 22.1491 54.0612 22.1491 58.0216L22.1499 58.0208Z" fill="#444BA1"/>
<path d="M19.3434 78.9099L19.0684 78.8943L19.5683 70.0735C19.5749 70.0299 20.0592 67.1947 20.5952 63.7422L20.8669 63.785C20.3301 67.24 19.8457 70.0768 19.8408 70.1048L19.3425 78.9099H19.3434Z" fill="white"/>
<path d="M16.7415 126.289L16.6233 128.387L9.21387 128.412C12.1059 127.884 14.7631 127.247 16.7415 126.29V126.289Z" fill="black"/>
<path d="M39.71 128.382L31.1719 128.407C33.7881 127.929 37.5084 127.364 39.412 126.547L39.7108 128.382H39.71Z" fill="black"/>
<path d="M17.7068 130.012C17.7068 130.49 17.5131 130.932 17.2012 131.254C16.89 131.575 16.455 131.782 15.9788 131.794C11.7717 131.897 7.56219 131.897 3.3551 131.794C2.40039 131.77 1.62793 130.97 1.62793 130.012C1.62793 129.535 1.82166 129.105 2.1336 128.802C2.44472 128.499 2.8798 128.316 3.35592 128.329C7.56301 128.432 11.7726 128.432 15.9797 128.329C16.9344 128.305 17.7068 129.055 17.7068 130.013V130.012Z" fill="#444BA1"/>
<path d="M41.5076 130.012C41.5076 130.49 41.3139 130.932 41.0019 131.254C40.6908 131.575 40.2557 131.782 39.7796 131.794C35.5725 131.897 31.363 131.897 27.1559 131.794C26.2012 131.77 25.4287 130.97 25.4287 130.012C25.4287 129.535 25.6224 129.105 25.9344 128.802C26.2455 128.499 26.6806 128.316 27.1567 128.329C31.3638 128.432 35.5734 128.432 39.7805 128.329C40.7352 128.305 41.5076 129.055 41.5076 130.013V130.012Z" fill="#444BA1"/>
<path d="M28.7337 32.9318L36.1267 38.0703L45.5695 29.3047L49.5598 34.0925C49.5598 34.0925 42.6668 45.6982 37.12 46.2398C32.4737 46.6943 24.4305 39.5208 24.4305 39.5208" fill="#FFCFC5"/>
<path d="M31.3664 43.7592C30.8189 44.4219 30.2467 44.8623 29.7 44.9084L26.3023 43.3846L22.1699 41.5315L23.4218 31.2266C23.4218 31.2266 26.4952 31.8695 28.8381 33.0047C31.1834 34.1399 34.1033 35.9913 34.1033 35.9913C34.9029 36.4367 33.2816 41.4492 31.3673 43.7583L31.3664 43.7592Z" fill="#04B5A4"/>
<path d="M31.3659 43.7558C30.8183 44.4185 30.2462 44.8589 29.6995 44.905L26.3018 43.3812C26.7138 40.7033 27.5011 36.1172 27.5011 36.1172C27.5011 36.1172 29.0017 41.4253 31.3659 43.755V43.7558Z" fill="black"/>
<path d="M4.09452 66.2073C4.72661 67.7887 7.18027 67.7022 7.18027 67.7022C7.18027 67.7022 29.9626 67.4668 31.2079 65.8434C32.9507 63.5738 30.7367 62.1472 30.3517 62.1719C30.3517 62.1719 30.3328 61.7504 30.2943 61.0153C30.0726 56.9181 28.696 37.8731 26.8457 34.1093C24.6629 29.6755 15.6092 29.8764 15.6092 29.8764C15.6092 29.8764 6.65079 30.2378 2.95922 33.8509C-0.19385 36.9379 4.31862 51.7656 4.74795 54.5958C5.15183 57.2523 5.23392 64.2151 5.23392 64.2151C5.23392 64.2151 3.45914 64.6209 4.09369 66.2073H4.09452Z" fill="#04B5A4"/>
<path d="M9.73535 39.5781L14.2683 50.8512L27.2475 57.4526C27.2475 57.4526 10.7278 54.545 10.2919 53.2229C9.8552 51.9008 9.73535 39.5781 9.73535 39.5781Z" fill="black"/>
<path d="M10.7878 28.6799L12.5067 31.7134L16.8624 31.8665L19.2816 32.2469L18.3334 28.5243L18.3285 27.5834L18.3195 25.0956L10.6934 20.8906C10.7426 21.2133 10.7853 21.5352 10.8206 21.8505C11.254 25.6085 10.7886 28.6799 10.7886 28.6799H10.7878Z" fill="#FFCFC5"/>
<path d="M12.7381 22.0156C14.0048 24.9454 16.0381 27.7016 18.3284 27.5805L18.3186 25.0936L12.7373 22.0164L12.7381 22.0156Z" fill="#FC9B88"/>
<path d="M10.7873 28.6797C11.655 30.3944 14.5298 31.2037 16.8619 31.8655C16.8619 31.8655 16.2717 36.9752 15.5854 37.009C14.9525 37.0402 8.70467 34.3755 8.56348 31.2259C9.4246 30.513 10.1527 29.6494 10.7873 28.6797Z" fill="#00887D"/>
<path d="M16.8623 31.8657C16.8623 31.8657 18.3957 36.2131 19.311 36.4049C20.3528 36.623 21.3362 31.9538 21.0825 30.444L18.3334 28.5234C18.5969 29.5582 19.027 30.4621 16.8623 31.8657Z" fill="#00887D"/>
<path d="M5.2352 64.212C5.2352 64.212 10.4241 66.0865 15.1139 64.3223C15.1139 64.3223 9.52685 65.2418 5.17773 61.5703L5.2352 64.212Z" fill="black"/>
<path d="M18.957 26.0628C16.3818 26.36 12.7806 24.4065 11.5254 21.0132C11.4737 20.7671 11.4023 20.5465 11.3071 20.3571C10.6963 20.3514 10.0166 20.0188 9.50108 19.422C8.68511 18.4736 8.58907 17.2042 9.29832 16.5983C9.70138 16.2493 10.2662 16.1859 10.8391 16.381C11.0009 12.7259 12.8208 9.81259 15.4066 9.4512C17.1321 9.21082 18.8355 10.1526 20.1227 11.8328C20.2778 12.0344 20.4289 12.2485 20.5701 12.4716C21.3852 13.7459 21.9787 15.3471 22.2201 17.1244C22.8727 21.7895 21.6635 25.7475 18.957 26.062V26.0628Z" fill="#FFCFC5"/>
<path d="M22.7539 13.6137C21.1466 15.9294 14.0368 14.0557 14.0368 14.0557C14.7469 15.1885 13.3538 16.2801 13.3538 16.2801L13.0107 18.3768L12.1299 18.106C12.134 16.9567 10.8386 16.3805 10.8386 16.3805C10.2656 16.1854 9.70168 16.2488 9.2978 16.5978C8.58936 17.2037 8.68459 18.4731 9.50056 19.4215C10.0161 20.0191 10.6958 20.3509 11.3065 20.3566C11.4018 20.546 11.4732 20.7666 11.5249 21.0127C11.685 21.7355 12.0166 22.5991 12.0462 23.5136C12.0462 23.5136 6.54041 21.0926 6.64302 15.8899C6.75302 10.3439 10.1704 12.057 10.1704 12.057C10.1704 12.057 9.92004 9.36014 13.8718 8.11626C17.4854 6.97858 26.2641 8.5575 22.7539 13.6145V13.6137Z" fill="black"/>
<path d="M19.9629 17.0156L21.1656 20.6863L19.335 21.0346L19.9629 17.0156Z" fill="#FC9B88"/>
<path d="M25.7398 56.8854L25.4024 62.5894C25.4024 62.5894 7.00448 60.6425 5.49074 57.4024C4.34395 54.9459 1.75977 44.8072 1.75977 44.8072L10.3866 43.9609L12.8608 51.9239L25.7398 56.8854Z" fill="#FFCFC5"/>
<path d="M5.35013 32.2196C5.35013 32.2196 0.863113 33.9006 0.0717681 38.313C-0.487263 41.4297 2.40311 49.7005 2.40311 49.7005C3.06476 50.9905 12.0954 47.463 11.9206 45.8948C10.7057 40.5307 8.80857 34.7287 5.34931 32.2188L5.35013 32.2196Z" fill="#04B5A4"/>
<path d="M25.7393 56.8868C25.7393 56.8868 29.3405 55.405 30.4356 55.987C31.5299 56.569 29.0327 57.8952 29.0327 57.8952" fill="#FFCFC5"/>
<path d="M29.56 69.1873H41.8965C42.7855 69.1873 43.535 68.5247 43.6466 67.6397L45.7046 51.303C45.8384 50.2452 45.0183 49.3125 43.9545 49.3125H31.6213C30.7323 49.3125 29.982 49.9752 29.8712 50.8601L27.8132 67.1968C27.6794 68.2546 28.4994 69.1873 29.56 69.1873Z" fill="#242B2B"/>
<path d="M41.8969 69.3233H29.5604C29.0153 69.3233 28.4965 69.0887 28.137 68.6787C27.7766 68.268 27.6083 67.7213 27.6773 67.1772L29.7353 50.8405C29.8551 49.8889 30.6662 49.1719 31.6217 49.1719H43.9548C44.5016 49.1719 45.0212 49.4073 45.3816 49.8173C45.7419 50.2272 45.9094 50.7747 45.8413 51.318L43.7833 67.6547C43.6634 68.6063 42.8524 69.3233 41.8969 69.3233ZM31.6217 49.4485C30.8041 49.4485 30.1104 50.0618 30.0078 50.8759L27.9498 67.2126C27.8915 67.6777 28.0344 68.1461 28.343 68.4968C28.6509 68.8475 29.095 69.0475 29.5604 69.0475H41.8969C42.7145 69.0475 43.4081 68.4342 43.5107 67.6201L45.5687 51.2834C45.627 50.8183 45.4842 50.3507 45.1755 50C44.8677 49.6493 44.4219 49.4485 43.9548 49.4485H31.6217Z" fill="#242B2B"/>
<path d="M30.1899 69.1873H42.5263C43.4154 69.1873 44.1649 68.5247 44.2765 67.6397L46.3345 51.303C46.4683 50.2452 45.6482 49.3125 44.5843 49.3125H32.2512C31.3622 49.3125 30.6119 49.9752 30.501 50.8601L28.443 67.1968C28.3092 68.2546 29.1293 69.1873 30.1899 69.1873Z" fill="white"/>
<path d="M30.1899 69.1849H42.5263C43.2381 69.1849 43.8636 68.7584 44.1369 68.1336C44.0516 68.146 43.9588 68.1526 43.8702 68.1526H31.5337C30.4731 68.1526 29.653 67.219 29.7869 66.162L31.8448 49.8253C31.867 49.65 31.9146 49.4812 31.9844 49.3281C31.216 49.4458 30.5995 50.0608 30.501 50.8568L28.443 67.1935C28.3092 68.2513 29.1293 69.184 30.1899 69.184V69.1849Z" fill="#E5E8FF"/>
<path d="M42.5267 69.3233H30.1903C29.6452 69.3233 29.1264 69.0887 28.7669 68.6787C28.4065 68.268 28.2382 67.7213 28.3072 67.1772L30.3652 50.8405C30.485 49.8889 31.2961 49.1719 32.2516 49.1719H44.5847C45.1314 49.1719 45.6511 49.4073 46.0114 49.8173C46.3718 50.2272 46.5393 50.7747 46.4711 51.318L44.4132 67.6547C44.2941 68.6063 43.4831 69.3233 42.5267 69.3233ZM32.2516 49.4485C31.434 49.4485 30.7403 50.0618 30.6377 50.8759L28.5797 67.2126C28.5214 67.6777 28.6643 68.1461 28.9729 68.4968C29.2808 68.8475 29.7249 69.0475 30.1903 69.0475H42.5267C43.3444 69.0475 44.038 68.4342 44.1406 67.6201L46.1986 51.2834C46.2569 50.8183 46.1141 50.3507 45.8054 50C45.4976 49.6493 45.0518 49.4485 44.5847 49.4485H32.2516Z" fill="#242B2B"/>
<path d="M37.8605 61.8201C38.9153 61.8201 39.8873 60.9623 40.035 59.9045C40.1803 58.8467 39.444 57.9922 38.3891 57.9922C37.3343 57.9922 36.3623 58.8475 36.2146 59.9045C36.0693 60.9623 36.8056 61.8201 37.8605 61.8201Z" fill="#E5E8FF"/>
<path d="M37.8595 61.8196C38.3455 61.8196 38.8199 61.6369 39.1984 61.329C38.9964 61.3948 38.7888 61.4286 38.5761 61.4286C37.5213 61.4286 36.7858 60.5708 36.9302 59.513C37.0099 58.9482 37.3226 58.4411 37.7602 58.0938C36.9729 58.3473 36.3302 59.0627 36.2136 59.904C36.0683 60.9618 36.8046 61.8196 37.8595 61.8196Z" fill="#C5CDE3"/>
<path d="M25.167 62.5515C25.167 62.5515 31.9074 63.6002 32.6322 62.8923C32.8457 62.684 31.8844 61.8122 31.2154 61.7727C31.9821 61.7966 33.6969 61.976 33.8439 61.3603C33.9227 61.0277 32.253 60.407 31.6759 60.3485C32.271 60.3938 34.3151 60.7338 34.3101 59.7517C34.3077 59.3846 32.8219 58.8882 31.9681 58.8956C32.6683 58.7927 33.701 58.8635 33.4909 58.1744C33.2118 57.2681 29.0318 57.8921 29.0318 57.8921L25.7392 56.8828L25.1678 62.5515H25.167Z" fill="#FFCFC5"/>
<path d="M45.5694 29.3076C45.5694 29.3076 48.4146 23.6019 49.6353 23.4504C50.5752 23.3343 50.2715 26.1382 50.2715 26.1382C50.2715 26.1382 57.3673 20.5255 58.0437 21.3965C58.7201 22.2675 54.5771 25.0746 54.5771 25.0746C54.5771 25.0746 55.6007 24.7346 55.8125 25.4442C56.0186 26.1341 55.3832 26.4543 55.3832 26.4543C55.3832 26.4543 56.0736 26.2016 56.4298 26.7013C56.791 27.2067 56.1064 27.8233 56.1064 27.8233C56.1064 27.8233 56.8419 27.9295 56.6884 28.7107C56.4766 29.79 51.5709 33.1199 50.86 33.4673C50.1491 33.8147 49.403 34.1703 49.403 34.1703C48.5344 34.9095 44.7 30.0476 45.5685 29.3076H45.5694Z" fill="#FFCFC5"/>
<path d="M52.2519 28.6006C52.2257 28.6006 52.201 28.5989 52.178 28.5956C52.0639 28.5783 51.9745 28.5215 51.9186 28.4318C51.7996 28.2408 51.7668 28.0251 51.8218 27.7913C52.0303 26.9031 53.4808 26.0066 53.5416 25.9688L53.6852 26.2042C53.6713 26.2124 52.2716 27.0784 52.0894 27.8547C52.0516 28.0161 52.0721 28.1577 52.1518 28.2853C52.1608 28.3001 52.1764 28.3157 52.2191 28.3223C52.7157 28.3981 54.392 27.141 55.3328 26.331L55.5125 26.5401C55.2613 26.7566 53.0966 28.6006 52.2519 28.6006Z" fill="#FFB29F"/>
<path d="M53.0413 29.8007C52.9855 29.8007 52.9321 29.7957 52.882 29.785C52.6981 29.7455 52.5594 29.6319 52.4814 29.4582C52.1728 28.7692 53.1242 27.9772 53.1652 27.9435L53.3393 28.1567C53.1078 28.3469 52.5471 28.9322 52.7318 29.3446C52.7745 29.4393 52.8402 29.4936 52.9395 29.515C53.6315 29.6632 55.3948 28.2695 56.0154 27.7188L56.1976 27.9254C55.9711 28.1262 54.0534 29.8007 53.0413 29.8007Z" fill="#FFB29F"/>
<path d="M53.3578 31.0473C53.274 31.0473 53.1969 31.0383 53.1287 31.0185C52.9908 30.979 52.8866 30.8958 52.8283 30.7789C52.7281 30.5806 52.7117 30.378 52.7782 30.178C52.9334 29.7104 53.4965 29.4256 53.5203 29.4141L53.6426 29.661C53.6377 29.6635 53.1567 29.908 53.0393 30.2661C52.9966 30.3962 53.0081 30.5238 53.0746 30.6555C53.0902 30.6859 53.1205 30.7304 53.2059 30.7551C53.7108 30.8991 55.057 30.1945 55.5323 29.9096L55.6735 30.1459C55.5061 30.2463 54.1442 31.0481 53.3578 31.0481V31.0473Z" fill="#FFB29F"/>
<path d="M48.9371 29.1787L48.8369 28.9219C50.2653 28.3596 50.1364 26.1732 50.1356 26.1509L50.4106 26.1328C50.4171 26.2308 50.5526 28.5432 48.9379 29.1795L48.9371 29.1787Z" fill="#FFB29F"/>
<path d="M146.678 72.9407C140.509 73.2815 134.339 73.6223 128.167 73.9631C126.414 74.0586 125.035 72.7217 125.04 70.9732C125.062 65.3334 124.774 59.6804 124.18 54.0389C123.998 52.2896 125.223 50.7971 126.959 50.7016C133.079 50.36 139.198 50.0183 145.316 49.6767C147.049 49.5812 148.653 50.9156 148.851 52.6641C149.497 58.304 149.833 63.957 149.862 69.5985C149.872 71.3478 148.425 72.8427 146.678 72.9407Z" fill="white"/>
<path d="M127.992 74.1044C127.182 74.1044 126.43 73.8105 125.858 73.2656C125.24 72.6761 124.901 71.8612 124.904 70.9704C124.925 65.3553 124.635 59.6628 124.043 54.0509C123.95 53.1512 124.207 52.2917 124.768 51.6307C125.314 50.9886 126.089 50.6083 126.951 50.5613L145.309 49.5364C147.13 49.4352 148.783 50.8305 148.989 52.6457C149.631 58.2633 149.971 63.9657 150.001 69.5948C150.012 71.4109 148.526 72.9725 146.688 73.0762L128.176 74.0986C128.115 74.1019 128.053 74.1036 127.993 74.1036L127.992 74.1044ZM145.495 49.8081C145.438 49.8081 145.381 49.8097 145.323 49.813L126.966 50.8379C126.18 50.8816 125.473 51.2265 124.977 51.811C124.464 52.4136 124.23 53.1989 124.316 54.0229C124.908 59.6438 125.198 65.3462 125.178 70.9721C125.175 71.7854 125.484 72.5296 126.047 73.0655C126.606 73.5981 127.358 73.8649 128.16 73.8237L146.671 72.8013C148.365 72.7058 149.735 71.2693 149.725 69.5973C149.696 63.9781 149.356 58.2855 148.714 52.6778C148.531 51.0618 147.106 49.8081 145.494 49.8081H145.495Z" fill="black"/>
<path d="M135.522 58.039L132.752 54.4119C134.172 53.4512 135.88 52.8906 137.722 52.8906C137.799 52.8906 137.88 52.8906 137.957 52.8989L137.558 57.4455C136.816 57.471 136.126 57.6842 135.523 58.0382L135.522 58.039Z" fill="#FFD24F"/>
<path d="M133.398 61.265H128.842C128.988 58.8019 130.138 56.6072 131.882 55.0859L134.653 58.7097C133.978 59.379 133.523 60.2705 133.398 61.265Z" fill="#04B5A4"/>
<path d="M146.623 61.817C146.623 66.7473 142.639 70.7423 137.723 70.7423C132.807 70.7423 129.123 67.042 128.842 62.3686H133.398C133.666 64.5238 135.501 66.1916 137.723 66.1916C140.132 66.1916 142.085 64.2323 142.085 61.817C142.085 59.722 140.616 57.9702 138.652 57.5429L139.051 52.9922C143.337 53.6359 146.623 57.3396 146.623 61.817Z" fill="#007AFD"/>
<path d="M47.7343 87.9917C52.2798 87.9917 55.9646 84.2965 55.9646 79.7382C55.9646 75.1799 52.2798 71.4846 47.7343 71.4846C43.1889 71.4846 39.504 75.1799 39.504 79.7382C39.504 84.2965 43.1889 87.9917 47.7343 87.9917Z" fill="white"/>
<path d="M47.729 88.1276C43.517 88.1276 39.882 84.9351 39.4166 80.6421C38.9183 76.042 42.2454 71.8938 46.8318 71.3941C49.0523 71.1512 51.2367 71.7925 52.9786 73.1969C54.7206 74.6013 55.8124 76.6017 56.0537 78.8302C56.2951 81.0586 55.6564 83.2475 54.2559 84.9944C52.8555 86.7413 50.8607 87.8361 48.6386 88.0782C48.3332 88.1111 48.0294 88.1276 47.729 88.1276ZM47.7405 71.6197C47.4499 71.6197 47.1568 71.6353 46.8605 71.6674C42.4244 72.1506 39.2073 76.163 39.6891 80.6116C40.171 85.0603 44.1762 88.2848 48.6082 87.8032C50.7573 87.5694 52.6864 86.5099 54.0409 84.8207C55.3954 83.1315 56.0127 81.0142 55.7795 78.859C55.3297 74.7075 51.8138 71.6197 47.7405 71.6197Z" fill="black"/>
<path d="M53.82 81.1014C54.5687 77.7314 52.4514 74.3909 49.0909 73.6401C45.7304 72.8893 42.3993 75.0125 41.6506 78.3825C40.9019 81.7525 43.0191 85.093 46.3796 85.8438C49.7401 86.5946 53.0713 84.4714 53.82 81.1014Z" fill="#FFB902"/>
<path d="M139.314 29.3518C142.528 26.1286 142.528 20.9027 139.314 17.6795C136.099 14.4563 130.888 14.4563 127.674 17.6795C124.46 20.9027 124.46 26.1286 127.674 29.3518C130.888 32.575 136.099 32.575 139.314 29.3518Z" fill="white"/>
<path d="M133.478 31.9086C131.579 31.9086 129.752 31.2656 128.251 30.0555C126.509 28.6511 125.417 26.6507 125.176 24.4223C124.935 22.1938 125.573 20.0049 126.974 18.258C128.374 16.5112 130.369 15.4163 132.591 15.1743C137.177 14.6762 141.315 18.0102 141.813 22.6104C142.054 24.8388 141.416 27.0277 140.015 28.7746C138.615 30.5214 136.62 31.6163 134.398 31.8583C134.09 31.8921 133.783 31.9086 133.478 31.9086ZM133.5 15.4015C133.209 15.4015 132.915 15.4171 132.62 15.4492C130.471 15.683 128.542 16.7425 127.187 18.4317C125.833 20.121 125.215 22.2383 125.448 24.3934C125.682 26.5486 126.738 28.4832 128.423 29.8415C130.107 31.1998 132.218 31.8188 134.368 31.585C138.804 31.1018 142.021 27.0895 141.539 22.6408C141.089 18.4885 137.573 15.4015 133.5 15.4015Z" fill="black"/>
<path d="M139.735 23.7543C139.867 20.3042 137.184 17.4004 133.744 17.2685C130.303 17.1366 127.408 19.8264 127.276 23.2765C127.145 26.7266 129.827 29.6304 133.267 29.7623C136.708 29.8943 139.603 27.2044 139.735 23.7543Z" fill="#FFB902"/>
<path d="M87.4036 134.18C87.4036 134.24 87.4019 134.301 87.3978 134.361C87.3937 134.499 87.3847 134.635 87.3716 134.771C87.0416 138.139 84.2128 140.77 80.7699 140.77C79.124 140.77 77.621 140.172 76.4619 139.176C75.1919 138.09 74.339 136.532 74.1674 134.771C74.1469 134.576 74.1354 134.38 74.1338 134.18H87.4036Z" fill="white"/>
<path d="M87.4036 134.18C87.4019 134.38 87.3904 134.576 87.3716 134.771H74.1674C74.1469 134.576 74.1354 134.38 74.1338 134.18H87.4036Z" fill="#E5E8FF"/>
<path d="M87.3979 134.364C87.3938 134.503 87.3848 134.638 87.3716 134.774C87.0416 138.142 84.2128 140.774 80.77 140.774C79.1241 140.774 77.621 140.175 76.4619 139.179C76.7862 139.204 77.1121 139.219 77.438 139.224C79.184 139.257 80.9604 139.001 82.5423 138.259C83.3049 137.9 84.0175 137.426 84.629 136.844C85.1618 136.339 85.6256 135.752 85.963 135.099C86.2774 134.489 86.453 134.311 87.191 134.349C87.2608 134.353 87.3289 134.358 87.3979 134.363V134.364Z" fill="#E5E8FF"/>
<path d="M80.7698 140.905C79.1551 140.905 77.5938 140.328 76.3723 139.278C75.0334 138.132 74.2018 136.535 74.0303 134.782C74.0089 134.585 73.9974 134.382 73.9958 134.178L73.9941 134.039H87.5406V134.177C87.5406 134.241 87.5389 134.304 87.5348 134.368C87.5307 134.503 87.5217 134.643 87.5086 134.782C87.1671 138.273 84.2693 140.905 80.7698 140.905ZM74.2741 134.315C74.279 134.462 74.2888 134.61 74.3044 134.754C74.4686 136.437 75.2665 137.969 76.5512 139.068C77.7227 140.075 79.2208 140.629 80.7698 140.629C84.1273 140.629 86.9068 138.103 87.2344 134.754C87.2475 134.622 87.2565 134.489 87.2598 134.354C87.2598 134.341 87.2615 134.328 87.2623 134.315H74.2741Z" fill="#242B2B"/>
<path d="M83.9916 128.443C83.9916 128.443 82.4705 127.277 82.5116 125.782C82.5534 124.287 85.406 123.844 85.406 123.844C85.406 123.844 84.2888 126.465 85.0687 126.58C85.8485 126.695 86.1251 123.564 86.1251 123.564C86.1251 123.564 88.7413 122.959 90.1615 123.223C90.1615 123.223 88.2619 125.375 88.7693 125.704C89.2766 126.033 91.7376 123.368 91.7376 123.368C91.7376 123.368 93.876 122.998 94.9317 124.696C95.9882 126.395 94.009 127.53 94.009 127.53C94.009 127.53 91.0702 126.809 90.7066 127.331C90.3429 127.852 93.4155 128.392 93.4155 128.392C93.4155 128.392 91.6391 130.42 90.6885 130.509C89.7371 130.598 88.8505 128.813 87.9442 128.527C87.0092 128.233 86.0439 128.352 86.1916 128.821C86.3386 129.291 88.9318 129.895 89.0828 131.249C89.0828 131.249 84.6451 131.775 83.9908 128.444L83.9916 128.443Z" fill="#00887D"/>
<path d="M82.1969 133.872L81.9219 133.854C81.9325 133.693 82.1961 129.88 83.9002 128.345C85.5905 126.822 91.927 125.56 92.1962 125.508L92.2496 125.779C92.1839 125.792 85.7193 127.079 84.0849 128.551C82.4653 130.01 82.2002 133.834 82.1977 133.872H82.1969Z" fill="black"/>
<path d="M80.9306 125.616C80.9306 125.616 78.7182 124.335 78.4211 122.16C78.1239 119.986 81.6538 118.577 81.6538 118.577C81.6538 118.577 80.8452 122.673 81.8664 122.63C82.8876 122.587 82.5042 117.98 82.5042 117.98C82.5042 117.98 85.6942 116.402 87.5659 116.402C87.5659 116.402 85.6515 120.028 86.3747 120.369C87.098 120.711 89.6074 116.189 89.6074 116.189C89.6074 116.189 92.245 115.08 93.9886 117.255C95.733 119.431 93.478 121.606 93.478 121.606C93.478 121.606 89.5648 121.35 89.2241 122.203C88.8834 123.056 92.9247 123.014 92.9247 123.014C92.9247 123.014 91.1384 126.426 89.9473 126.811C88.7562 127.194 87.208 124.848 85.9856 124.678C84.7256 124.502 83.5238 124.934 83.8218 125.574C84.1197 126.213 88.2883 126 88.7989 127.92C88.7989 127.92 82.5461 130.266 80.9297 125.616L80.9306 125.616Z" fill="#04B5A4"/>
<path d="M79.6022 133.99C79.5776 133.755 79.0218 128.193 80.8163 125.538C82.6042 122.891 90.3707 119.367 90.6999 119.219L90.8124 119.471C90.7319 119.507 82.7881 123.111 81.0437 125.693C79.305 128.267 79.8698 133.906 79.8756 133.963L79.6022 133.991V133.99Z" fill="black"/>
<path d="M77.2057 127.519C77.2057 127.519 78.9132 126.531 79.1431 124.852C79.3729 123.172 76.6475 122.086 76.6475 122.086C76.6475 122.086 77.2714 125.247 76.4834 125.214C75.6953 125.181 75.9908 121.625 75.9908 121.625C75.9908 121.625 73.5281 120.406 72.0833 120.406C72.0833 120.406 73.561 123.205 73.0027 123.469C72.4445 123.732 70.5072 120.242 70.5072 120.242C70.5072 120.242 68.4714 119.386 67.1251 121.065C65.7789 122.744 67.5192 124.424 67.5192 124.424C67.5192 124.424 70.5401 124.226 70.8027 124.885C71.0654 125.543 67.946 125.51 67.946 125.51C67.946 125.51 69.3251 128.144 70.2445 128.441C71.1639 128.737 72.3592 126.926 73.3024 126.794C74.2751 126.659 75.2028 126.992 74.9729 127.486C74.743 127.98 72.0842 128.118 71.6901 129.6C71.6901 129.6 75.958 131.107 77.2057 127.519Z" fill="#04B5A4"/>
<path d="M78.2628 133.99L77.9895 133.961C77.9944 133.918 78.4278 129.575 77.0931 127.599C75.7517 125.613 69.6278 122.835 69.5654 122.807L69.6779 122.555C69.9324 122.67 75.9356 125.393 77.3204 127.444C78.7119 129.503 78.2817 133.807 78.2628 133.989V133.99Z" fill="black"/>
<path d="M88.1908 133.383H73.3482C73.0939 133.383 72.8877 133.59 72.8877 133.845V133.849C72.8877 134.104 73.0939 134.311 73.3482 134.311H88.1908C88.4452 134.311 88.6514 134.104 88.6514 133.849V133.845C88.6514 133.59 88.4452 133.383 88.1908 133.383Z" fill="white"/>
<path d="M88.1901 134.446H73.3475C73.0175 134.446 72.749 134.177 72.749 133.846C72.749 133.515 73.0175 133.242 73.3475 133.242H88.1901C88.5201 133.242 88.7885 133.511 88.7885 133.842V133.846C88.7885 134.177 88.5201 134.446 88.1901 134.446ZM73.3475 133.517C73.1693 133.517 73.024 133.663 73.024 133.841C73.024 134.02 73.1693 134.169 73.3475 134.169H88.1901C88.3682 134.169 88.5127 134.023 88.5127 133.845V133.841C88.5127 133.663 88.3682 133.517 88.1901 133.517H73.3475Z" fill="#242B2B"/>
<path d="M133.198 27.8222C133.134 27.8222 133.08 27.7999 133.036 27.7547C132.991 27.7094 132.969 27.6559 132.969 27.5917V26.9216C132.498 26.8771 132.101 26.7635 131.776 26.5816C131.451 26.3997 131.206 26.179 131.04 25.9205C130.874 25.6621 130.786 25.392 130.772 25.1113C130.772 25.0537 130.793 25.006 130.835 24.9681C130.876 24.9294 130.926 24.9105 130.983 24.9105H131.832C131.909 24.9105 131.969 24.9278 132.014 24.9631C132.058 24.9985 132.093 25.0414 132.119 25.0924C132.163 25.2134 132.238 25.3336 132.343 25.4513C132.448 25.5699 132.596 25.667 132.787 25.7436C132.978 25.8201 133.216 25.8588 133.503 25.8588C133.961 25.8588 134.301 25.7822 134.525 25.6291C134.747 25.476 134.859 25.2686 134.859 25.0068C134.859 24.8216 134.8 24.6734 134.682 24.5614C134.564 24.4495 134.379 24.3474 134.124 24.2552C133.87 24.163 133.536 24.065 133.122 23.9629C132.651 23.8477 132.253 23.7094 131.928 23.5464C131.604 23.3834 131.36 23.1776 131.198 22.929C131.035 22.6804 130.954 22.3643 130.954 21.9806C130.954 21.4892 131.132 21.071 131.488 20.7261C131.845 20.3811 132.338 20.1704 132.968 20.0938V19.4328C132.968 19.3694 132.991 19.3151 133.035 19.2698C133.079 19.2254 133.133 19.2031 133.197 19.2031H133.78C133.843 19.2031 133.898 19.2254 133.943 19.2698C133.987 19.3143 134.009 19.3686 134.009 19.4328V20.1128C134.442 20.177 134.805 20.3046 135.098 20.4956C135.391 20.6874 135.613 20.9055 135.766 21.1517C135.919 21.3978 135.998 21.6349 136.005 21.8654C136.005 21.9164 135.988 21.9625 135.952 22.0045C135.917 22.0457 135.868 22.0671 135.805 22.0671H134.916C134.859 22.0671 134.805 22.0547 134.754 22.0284C134.703 22.0029 134.662 21.9551 134.63 21.8852C134.598 21.6876 134.477 21.518 134.267 21.3772C134.057 21.2373 133.784 21.1665 133.446 21.1665C133.109 21.1665 132.827 21.2307 132.62 21.3583C132.413 21.4859 132.31 21.6835 132.31 21.9518C132.31 22.1305 132.361 22.2786 132.463 22.3972C132.564 22.5157 132.732 22.6186 132.964 22.7084C133.197 22.7981 133.507 22.8936 133.895 22.9957C134.436 23.1167 134.877 23.2575 135.218 23.4172C135.558 23.5769 135.809 23.7794 135.972 24.0255C136.135 24.2717 136.216 24.5828 136.216 24.959C136.216 25.3352 136.126 25.653 135.944 25.9312C135.763 26.2087 135.507 26.4326 135.176 26.6013C134.845 26.7709 134.457 26.8804 134.011 26.9315V27.5925C134.011 27.6559 133.989 27.7102 133.944 27.7555C133.9 27.7999 133.846 27.823 133.782 27.823H133.199L133.198 27.8222Z" fill="white"/>
<path d="M47.4384 84.0479C47.3744 84.0479 47.3202 84.0257 47.2759 83.9804C47.2316 83.9351 47.2094 83.8816 47.2094 83.8174V83.1473C46.7382 83.1029 46.3409 82.9893 46.0158 82.8073C45.6916 82.6254 45.4461 82.4048 45.2803 82.1463C45.1145 81.8878 45.0258 81.6178 45.0127 81.3371C45.0127 81.2794 45.0332 81.2317 45.0751 81.1938C45.1161 81.1551 45.1662 81.1362 45.2228 81.1362H46.0725C46.1488 81.1362 46.2096 81.1535 46.2539 81.1889C46.2982 81.2243 46.3335 81.2671 46.359 81.3181C46.4033 81.4391 46.478 81.5593 46.5831 81.6771C46.6881 81.7956 46.8359 81.8927 47.0272 81.9693C47.2184 82.0458 47.4565 82.0845 47.743 82.0845C48.2011 82.0845 48.5417 82.008 48.765 81.8549C48.9875 81.7017 49.0991 81.4943 49.0991 81.2325C49.0991 81.0473 49.04 80.8991 48.9226 80.7872C48.8044 80.6752 48.6189 80.5731 48.3644 80.4809C48.1099 80.3887 47.7758 80.2908 47.3621 80.1887C46.8909 80.0734 46.4936 79.9351 46.1685 79.7721C45.8443 79.6091 45.6005 79.4033 45.4379 79.1547C45.2754 78.9061 45.1941 78.59 45.1941 78.2064C45.1941 77.7149 45.3722 77.2967 45.7285 76.9518C46.0848 76.6069 46.5781 76.3961 47.2086 76.3196V75.6594C47.2086 75.596 47.2308 75.5416 47.2751 75.4964C47.3194 75.4519 47.3736 75.4297 47.4376 75.4297H48.0205C48.0837 75.4297 48.1378 75.4519 48.183 75.4964C48.2273 75.5408 48.2495 75.5952 48.2495 75.6594V76.3393C48.6821 76.4035 49.0449 76.5311 49.338 76.7221C49.6311 76.9139 49.8535 77.1321 50.0062 77.3782C50.1589 77.6244 50.2385 77.8615 50.2451 78.092C50.2451 78.143 50.2278 78.1891 50.1926 78.2311C50.1573 78.2722 50.108 78.2936 50.0448 78.2936H49.1566C49.0991 78.2936 49.0449 78.2813 48.994 78.255C48.9431 78.2294 48.9021 78.1817 48.8701 78.1117C48.8381 77.9141 48.7174 77.7446 48.5072 77.6038C48.2971 77.4638 48.0237 77.393 47.6864 77.393C47.349 77.393 47.0674 77.4573 46.8605 77.5849C46.6537 77.7125 46.5502 77.91 46.5502 78.1784C46.5502 78.357 46.6011 78.5052 46.7029 78.6238C46.8047 78.7423 46.9722 78.8452 47.2045 78.9349C47.4368 79.0247 47.7471 79.1201 48.1354 79.2222C48.6764 79.3432 49.1172 79.484 49.4578 79.6437C49.7985 79.8034 50.0497 80.0059 50.2123 80.2521C50.3748 80.4982 50.4561 80.8094 50.4561 81.1856C50.4561 81.5618 50.3658 81.8796 50.1843 82.1578C50.0029 82.4352 49.7468 82.6591 49.416 82.8279C49.0852 82.9975 48.6969 83.107 48.2511 83.158V83.8191C48.2511 83.8824 48.229 83.9368 48.1846 83.982C48.1403 84.0265 48.0861 84.0496 48.0221 84.0496H47.4393L47.4384 84.0479Z" fill="white"/>
</g>
<defs>
<clipPath id="clip0_206_1436">
<rect width="150" height="141" fill="white"/>
</clipPath>
</defs>
</svg>
