<svg width="150" height="148" viewBox="0 0 150 148" fill="none" xmlns="http://www.w3.org/2000/svg">
<g clip-path="url(#clip0_206_1260)">
<path d="M136.05 34.0436H133.126C132.422 34.0436 131.812 33.5644 131.647 32.8824L131.35 31.6476C131.229 31.1473 130.858 30.745 130.373 30.5709C129.984 30.4323 129.607 30.2768 129.236 30.1001C128.77 29.8795 128.223 29.8998 127.781 30.1711L126.698 30.8329C126.1 31.2005 125.326 31.1092 124.831 30.6123L122.758 28.545C122.263 28.0481 122.172 27.2773 122.537 26.6806L123.202 25.5988C123.473 25.1577 123.493 24.6109 123.273 24.1435C123.097 23.7758 122.941 23.3964 122.799 23.011C122.626 22.5225 122.226 22.1557 121.722 22.0348L120.488 21.7373C119.805 21.5725 119.325 20.964 119.325 20.2608V17.3375C119.325 16.6377 119.805 16.0258 120.488 15.8644L121.722 15.5669C122.226 15.446 122.626 15.0758 122.799 14.5907C122.941 14.2028 123.097 13.8233 123.273 13.4557C123.494 12.9883 123.474 12.444 123.202 12.0028L122.537 10.9211C122.172 10.321 122.263 9.55105 122.758 9.0541L124.831 6.98686C125.326 6.48991 126.1 6.39863 126.698 6.76627L127.781 7.42803C128.223 7.69848 128.77 7.72214 129.236 7.49902C129.607 7.32576 129.984 7.16688 130.373 7.02827C130.858 6.85501 131.229 6.45526 131.35 5.95154L131.647 4.71931C131.812 4.03727 132.422 3.55469 133.126 3.55469H136.05C136.754 3.55469 137.363 4.03727 137.528 4.71931L137.826 5.95154C137.947 6.45441 138.317 6.85417 138.803 7.02827C139.192 7.16688 139.569 7.32492 139.94 7.49902C140.405 7.72214 140.953 7.69932 141.395 7.42803L142.478 6.76627C143.075 6.39863 143.85 6.48991 144.345 6.98686L146.418 9.0541C146.913 9.55105 147.003 10.3218 146.639 10.9211L145.973 12.0028C145.702 12.444 145.682 12.9883 145.903 13.4557C146.08 13.8233 146.236 14.2028 146.377 14.5907C146.551 15.0758 146.951 15.446 147.454 15.5669L148.688 15.8644C149.371 16.0258 149.855 16.6377 149.855 17.3375V20.2608C149.855 20.964 149.371 21.5725 148.688 21.7373L147.454 22.0348C146.951 22.1557 146.551 22.5233 146.377 23.011C146.236 23.3964 146.08 23.7758 145.903 24.1435C145.682 24.6109 145.702 25.1577 145.974 25.5988L146.639 26.6806C147.004 27.2773 146.914 28.0481 146.418 28.545L144.346 30.6123C143.851 31.1092 143.076 31.2005 142.479 30.8329L141.395 30.1711C140.954 29.9007 140.409 29.8804 139.941 30.1001C139.57 30.2768 139.192 30.4323 138.804 30.5709C138.318 30.7441 137.947 31.1473 137.826 31.6476L137.529 32.8824C137.364 33.5644 136.755 34.0436 136.051 34.0436H136.05Z" fill="white"/>
<path d="M136.05 34.1929H133.126C132.353 34.1929 131.688 33.6697 131.506 32.9201L131.209 31.6853C131.1 31.2348 130.769 30.8706 130.323 30.7117C129.926 30.5697 129.549 30.4142 129.173 30.2359C128.745 30.033 128.252 30.0567 127.857 30.2993L126.773 30.961C126.114 31.3667 125.272 31.267 124.727 30.7193L122.655 28.6521C122.11 28.1052 122.011 27.2652 122.413 26.6093L123.079 25.5267C123.322 25.1311 123.344 24.6384 123.141 24.2091C122.972 23.8558 122.815 23.4814 122.662 23.0647C122.503 22.6185 122.139 22.288 121.687 22.1799L120.453 21.8824C119.703 21.7015 119.179 21.0364 119.179 20.2656V17.3422C119.179 16.5697 119.703 15.9054 120.454 15.728L121.687 15.4305C122.138 15.3223 122.503 14.9927 122.662 14.5464C122.814 14.1298 122.971 13.7537 123.142 13.3979C123.344 12.9694 123.321 12.4783 123.079 12.0837L122.413 11.001C122.012 10.3426 122.112 9.50171 122.656 8.95574L124.729 6.88849C125.275 6.34083 126.116 6.24195 126.775 6.64678L127.858 7.30769C128.257 7.55278 128.748 7.5756 129.174 7.37192C129.576 7.18345 129.953 7.02794 130.325 6.89525C130.771 6.73552 131.102 6.3721 131.21 5.92163L131.507 4.6894C131.689 3.93806 132.356 3.41406 133.127 3.41406H136.052C136.823 3.41406 137.489 3.93806 137.671 4.6894L137.968 5.92163C138.077 6.3721 138.408 6.73636 138.854 6.89525C139.226 7.02794 139.602 7.18345 140.003 7.37107C140.431 7.57645 140.921 7.55278 141.32 7.30853L142.404 6.64678C143.064 6.2411 143.905 6.34083 144.45 6.88849L146.523 8.95574C147.066 9.50171 147.166 10.3426 146.765 11.001L146.099 12.0837C145.856 12.4783 145.833 12.9694 146.036 13.3987C146.206 13.7528 146.363 14.1289 146.515 14.5456C146.675 14.9918 147.039 15.3223 147.49 15.4305L148.724 15.728C149.476 15.9063 150.001 16.5697 150.001 17.3422V20.2656C150.001 21.0364 149.475 21.7015 148.724 21.8824L147.49 22.1799C147.038 22.288 146.673 22.6185 146.515 23.063C146.362 23.4806 146.205 23.8558 146.035 24.2091C145.832 24.6384 145.856 25.1311 146.099 25.5267L146.764 26.6085C147.166 27.2652 147.066 28.1044 146.522 28.6512L144.448 30.7185C143.902 31.2661 143.061 31.365 142.403 30.9602L141.319 30.2984C140.925 30.0567 140.432 30.033 140.002 30.235C139.627 30.4134 139.251 30.5689 138.853 30.7108C138.408 30.8697 138.077 31.234 137.968 31.6845L137.671 32.9192C137.489 33.6689 136.823 34.192 136.051 34.192L136.05 34.1929ZM128.568 29.8082C128.815 29.8082 129.064 29.8632 129.297 29.973C129.664 30.148 130.031 30.3001 130.42 30.4379C130.958 30.6306 131.359 31.0709 131.491 31.6169L131.788 32.8516C131.937 33.4703 132.488 33.9021 133.125 33.9021H136.049C136.686 33.9021 137.236 33.4703 137.386 32.8516L137.683 31.6169C137.815 31.0709 138.216 30.6306 138.753 30.4379C139.142 30.2993 139.51 30.1471 139.876 29.973C140.396 29.7279 140.991 29.7584 141.469 30.0508L142.552 30.7125C143.097 31.0472 143.791 30.9652 144.241 30.5139L146.314 28.4467C146.763 27.9954 146.845 27.3023 146.514 26.7606L145.849 25.6788C145.554 25.1996 145.526 24.6038 145.77 24.0857C145.936 23.7392 146.089 23.3732 146.239 22.965C146.43 22.4283 146.871 22.0286 147.42 21.8976L148.654 21.6001C149.275 21.4505 149.708 20.9011 149.708 20.2647V17.3414C149.708 16.7041 149.275 16.1564 148.654 16.0094L147.419 15.7119C146.872 15.5809 146.431 15.182 146.238 14.6436C146.09 14.2363 145.937 13.8695 145.77 13.5229C145.525 13.004 145.554 12.4099 145.848 11.9315L146.513 10.8489C146.844 10.3054 146.762 9.61073 146.313 9.15942L144.24 7.09217C143.79 6.64002 143.096 6.55888 142.551 6.89272L141.467 7.55447C140.985 7.85028 140.389 7.87986 139.874 7.63223C139.483 7.44883 139.115 7.2967 138.751 7.16739C138.212 6.9747 137.812 6.53437 137.681 5.9884L137.384 4.75617C137.234 4.13582 136.684 3.70311 136.046 3.70311H133.122C132.485 3.70311 131.935 4.13582 131.785 4.75617L131.488 5.9884C131.357 6.53437 130.956 6.9747 130.418 7.16739C130.054 7.2967 129.687 7.44883 129.294 7.63307C128.781 7.87986 128.186 7.85112 127.702 7.55447L126.619 6.89356C126.075 6.55888 125.381 6.64002 124.93 7.09217L122.857 9.15942C122.408 9.60989 122.326 10.3046 122.657 10.8489L123.322 11.9307C123.616 12.409 123.646 13.0032 123.401 13.5213C123.234 13.8703 123.08 14.2371 122.932 14.6445C122.74 15.182 122.298 15.5809 121.752 15.7119L120.518 16.0094C119.898 16.1564 119.466 16.7033 119.466 17.3414V20.2647C119.466 20.9011 119.898 21.4505 120.518 21.6001L121.752 21.8976C122.299 22.0286 122.741 22.4283 122.932 22.9667C123.081 23.3732 123.234 23.7392 123.4 24.0848C123.646 24.6038 123.616 25.1996 123.322 25.6788L122.656 26.7606C122.325 27.3015 122.408 27.9954 122.857 28.4467L124.93 30.5139C125.38 30.9661 126.074 31.0472 126.618 30.7134L127.702 30.0516C127.965 29.8902 128.264 29.8082 128.566 29.8082H128.568Z" fill="#242B2B"/>
<path d="M140.957 25.1651C144.475 21.6523 144.475 15.957 140.957 12.4443C137.439 8.93153 131.736 8.93153 128.218 12.4443C124.7 15.957 124.7 21.6523 128.218 25.1651C131.736 28.6779 137.439 28.6779 140.957 25.1651Z" fill="#C5CDE3"/>
<path d="M139.317 23.5288C141.93 20.9198 141.93 16.6896 139.317 14.0805C136.705 11.4715 132.469 11.4715 129.856 14.0806C127.243 16.6896 127.243 20.9198 129.856 23.5288C132.469 26.1379 136.705 26.1379 139.317 23.5288Z" fill="white"/>
<path d="M134.587 25.637C130.817 25.637 127.751 22.575 127.751 18.8107C127.751 15.0464 130.817 11.9844 134.587 11.9844C138.357 11.9844 141.423 15.0464 141.423 18.8107C141.423 22.575 138.357 25.637 134.587 25.637ZM134.587 12.2751C130.978 12.2751 128.041 15.2069 128.041 18.8115C128.041 22.4161 130.977 25.348 134.587 25.348C138.197 25.348 141.133 22.4161 141.133 18.8115C141.133 15.2069 138.197 12.2751 134.587 12.2751Z" fill="#242B2B"/>
<path d="M66.3643 38.0896H63.4402C62.736 38.0896 62.1267 37.6104 61.9616 36.9284L61.6646 35.6936C61.5435 35.1933 61.1728 34.791 60.687 34.6169C60.2986 34.4783 59.9211 34.3228 59.5504 34.1462C59.0849 33.9256 58.5373 33.9459 58.0955 34.2172L57.0122 34.8789C56.4147 35.2466 55.6403 35.1553 55.1451 34.6583L53.0724 32.5911C52.5773 32.0941 52.4868 31.3233 52.8515 30.7267L53.5168 29.6449C53.7876 29.2037 53.8079 28.6569 53.5879 28.1895C53.411 27.8219 53.2552 27.4424 53.1139 27.057C52.9404 26.5685 52.5401 26.2017 52.0365 26.0809L50.8025 25.7842C50.1195 25.6194 49.6396 25.0109 49.6396 24.3077V21.3843C49.6396 20.6845 50.1195 20.0727 50.8025 19.9112L52.0365 19.6137C52.5401 19.4929 52.9404 19.1227 53.1139 18.6376C53.2552 18.2497 53.411 17.8702 53.5879 17.5025C53.8088 17.0352 53.7884 16.4909 53.5168 16.0497L52.8515 14.9679C52.4868 14.3679 52.5773 13.5979 53.0724 13.101L55.1451 11.0337C55.6403 10.5368 56.4147 10.4455 57.0122 10.8131L58.0955 11.4749C58.5373 11.7454 59.0849 11.769 59.5504 11.5459C59.9211 11.3726 60.2986 11.2138 60.687 11.0751C61.1728 10.9019 61.5435 10.5021 61.6646 9.99842L61.9616 8.76618C62.1267 8.08415 62.736 7.60156 63.4402 7.60156H66.3643C67.0685 7.60156 67.6779 8.08415 67.8429 8.76618L68.14 9.99842C68.261 10.5013 68.6317 10.901 69.1175 11.0751C69.506 11.2138 69.8835 11.3718 70.2542 11.5459C70.7196 11.769 71.2672 11.7462 71.709 11.4757L72.7924 10.814C73.3899 10.4464 74.1643 10.5376 74.6594 11.0346L76.7321 13.1018C77.2272 13.5988 77.3178 14.3696 76.953 14.9688L76.2878 16.0506C76.0169 16.4917 75.9966 17.036 76.2167 17.5034C76.3936 17.871 76.5493 18.2505 76.6906 18.6384C76.8641 19.1235 77.2645 19.4937 77.768 19.6146L79.002 19.9121C79.685 20.0735 80.1683 20.6854 80.1683 21.3852V24.3086C80.1683 25.0117 79.685 25.6202 79.002 25.7851L77.768 26.0825C77.2645 26.2034 76.8641 26.571 76.6906 27.0587C76.5493 27.4441 76.3936 27.8236 76.2167 28.1912C75.9958 28.6586 76.0161 29.2054 76.2878 29.6466L76.953 30.7284C77.3178 31.325 77.2272 32.0958 76.7321 32.5928L74.6594 34.66C74.1643 35.157 73.3899 35.2482 72.7924 34.8806L71.709 34.2188C71.2672 33.9484 70.7222 33.9281 70.2542 34.1479C69.8835 34.3245 69.506 34.48 69.1175 34.6186C68.6317 34.7919 68.2602 35.195 68.14 35.6953L67.8429 36.9301C67.6779 37.6121 67.0685 38.0913 66.3643 38.0913V38.0896Z" fill="white"/>
<path d="M66.3643 38.2311H63.4401C62.6674 38.2311 62.0013 37.7079 61.8211 36.9583L61.5232 35.7235C61.4148 35.2731 61.0839 34.9088 60.6379 34.7499C60.2401 34.6079 59.8635 34.4524 59.4877 34.2741C59.0594 34.0713 58.5669 34.0949 58.1708 34.3375L57.0875 34.9992C56.4281 35.4049 55.5877 35.3043 55.0418 34.7575L52.9691 32.6903C52.4249 32.1435 52.3259 31.3034 52.7271 30.6475L53.3931 29.5649C53.636 29.1694 53.6589 28.6775 53.4558 28.2465C53.2873 27.8957 53.1308 27.5213 52.9767 27.1021C52.8176 26.6559 52.4537 26.3254 52.0017 26.2172L50.7678 25.9197C50.0179 25.7389 49.4932 25.0737 49.4932 24.303V21.3796C49.4932 20.6071 50.0171 19.9428 50.7678 19.7653L52.0009 19.4687C52.452 19.3605 52.8168 19.03 52.9759 18.5846C53.1282 18.1671 53.2848 17.791 53.4558 17.4361C53.658 17.0084 53.6343 16.5166 53.3923 16.1227L52.7271 15.0401C52.3259 14.3817 52.4249 13.5408 52.9683 12.9948L55.0418 10.9276C55.5869 10.3799 56.4281 10.2802 57.0875 10.6858L58.1708 11.3476C58.5694 11.5918 59.0611 11.6155 59.4868 11.411C59.8889 11.2225 60.2655 11.067 60.6379 10.9343C61.0839 10.7746 61.4148 10.4112 61.5232 9.9607L61.8202 8.72846C62.0022 7.97712 62.6674 7.45312 63.4393 7.45312H66.3634C67.1353 7.45312 67.8014 7.97797 67.9825 8.72846L68.2804 9.9607C68.3879 10.4112 68.7188 10.7754 69.1657 10.9343C69.5372 11.0662 69.913 11.2225 70.315 11.4101C70.7416 11.6155 71.2342 11.5918 71.6319 11.3476L72.7161 10.6858C73.3746 10.281 74.2158 10.3799 74.7617 10.9276L76.8345 12.9948C77.3778 13.5408 77.4777 14.3817 77.0765 15.0401L76.4104 16.1227C76.1684 16.5166 76.1447 17.0084 76.3478 17.4378C76.5179 17.7919 76.6753 18.168 76.8268 18.5846C76.9868 19.0309 77.3516 19.3613 77.8018 19.4695L79.0358 19.7662C79.7882 19.9445 80.3129 20.6079 80.3129 21.3804V24.3038C80.3129 25.0746 79.7874 25.7397 79.0358 25.9206L77.8018 26.2181C77.3499 26.3263 76.9851 26.6567 76.8268 27.1021C76.6728 27.523 76.5154 27.8974 76.347 28.2481C76.1438 28.6775 76.1675 29.1702 76.4104 29.5649L77.0757 30.6467C77.4777 31.3034 77.3778 32.1426 76.8345 32.6894L74.7609 34.7567C74.2158 35.3043 73.3746 35.4041 72.7153 34.9984L71.6319 34.3375C71.2367 34.0958 70.745 34.0721 70.3142 34.2741C69.9392 34.4524 69.5626 34.6079 69.1648 34.7499C68.7188 34.9088 68.3887 35.2731 68.2796 35.7235L67.9816 36.9583C67.8005 37.7079 67.1344 38.2311 66.3626 38.2311H66.3643ZM58.8834 33.8473C59.1305 33.8473 59.3794 33.9022 59.6121 34.0121C59.9794 34.187 60.3467 34.3392 60.7352 34.4769C61.2735 34.6696 61.6738 35.1099 61.805 35.6559L62.1029 36.8907C62.2519 37.5093 62.802 37.9412 63.4401 37.9412H66.3643C67.0016 37.9412 67.5517 37.5093 67.7015 36.8907L67.9994 35.6559C68.1315 35.1099 68.5309 34.6696 69.0692 34.4769C69.4585 34.3383 69.8258 34.1862 70.1923 34.0121C70.7111 33.7678 71.3069 33.7974 71.786 34.0898L72.8693 34.7516C73.4135 35.0863 74.1075 35.0043 74.5578 34.553L76.6313 32.4857C77.0799 32.0344 77.162 31.3414 76.8311 30.7997L76.1658 29.7179C75.8713 29.2395 75.8425 28.6437 76.088 28.1247C76.253 27.7816 76.4062 27.4157 76.5568 27.0041C76.7481 26.4674 77.1891 26.0685 77.7375 25.9366L78.9715 25.6392C79.5927 25.4896 80.026 24.9402 80.026 24.3038V21.3804C80.026 20.7432 79.5927 20.1955 78.9715 20.0485L77.7367 19.7518C77.1899 19.6208 76.749 19.2211 76.556 18.6835C76.4079 18.2762 76.2547 17.9085 76.088 17.562C75.8434 17.0431 75.8722 16.4481 76.1658 15.9706L76.8311 14.8888C77.162 14.3454 77.0799 13.6506 76.6313 13.1993L74.5586 11.1321C74.1084 10.6799 73.4135 10.5979 72.8702 10.9326L71.786 11.5944C71.3027 11.8902 70.7077 11.9189 70.1923 11.6713C69.8004 11.4879 69.4331 11.3358 69.07 11.2065C68.5309 11.0138 68.1306 10.5734 68.0003 10.0275L67.7024 8.79607C67.5525 8.17573 67.0024 7.74301 66.3651 7.74301H63.441C62.8037 7.74301 62.2536 8.17573 62.1038 8.79607L61.8067 10.0283C61.6755 10.5743 61.276 11.0146 60.7369 11.2073C60.373 11.3366 60.0057 11.4887 59.613 11.673C59.1001 11.9198 58.5042 11.8902 58.021 11.5944L56.9376 10.9326C56.3934 10.5979 55.6994 10.6791 55.2492 11.1312L53.1756 13.1985C52.7271 13.6489 52.645 14.3437 52.9759 14.8879L53.6411 15.9697C53.9348 16.4481 53.9644 17.0422 53.7198 17.5603C53.5531 17.9077 53.3999 18.2753 53.251 18.6835C53.058 19.2211 52.617 19.62 52.0703 19.7518L50.8363 20.0485C50.2168 20.1955 49.7843 20.7423 49.7843 21.3804V24.3038C49.7843 24.9402 50.2168 25.4896 50.8363 25.6392L52.0703 25.9366C52.6179 26.0676 53.0588 26.4674 53.251 27.0049C53.4008 27.414 53.5539 27.7799 53.719 28.1231C53.9644 28.6428 53.9348 29.2387 53.6411 29.7179L52.9759 30.7997C52.645 31.3406 52.7271 32.0344 53.1756 32.4857L55.2483 34.553C55.6977 35.0051 56.3926 35.0871 56.936 34.7524L58.0201 34.0907C58.2842 33.9293 58.5829 33.8481 58.8842 33.8481L58.8834 33.8473Z" fill="#242B2B"/>
<path d="M71.2724 29.204C74.7901 25.6913 74.7901 19.996 71.2724 16.4832C67.7547 12.9705 62.0513 12.9705 58.5336 16.4832C55.0159 19.996 55.0159 25.6913 58.5336 29.204C62.0513 32.7168 67.7547 32.7168 71.2724 29.204Z" fill="#C5CDE3"/>
<path d="M69.6339 27.5679C72.2466 24.9588 72.2466 20.7287 69.6339 18.1196C67.0211 15.5105 62.785 15.5105 60.1722 18.1196C57.5595 20.7287 57.5595 24.9588 60.1722 27.5679C62.785 30.177 67.0211 30.177 69.6339 27.5679Z" fill="white"/>
<path d="M64.9033 29.6761C61.1337 29.6761 58.0674 26.6141 58.0674 22.8497C58.0674 19.0854 61.1337 16.0234 64.9033 16.0234C68.673 16.0234 71.7384 19.0854 71.7384 22.8497C71.7384 26.6141 68.6721 29.6761 64.9033 29.6761ZM64.9033 16.3142C61.2945 16.3142 58.3577 19.246 58.3577 22.8506C58.3577 26.4552 61.2937 29.387 64.9033 29.387C68.513 29.387 71.4481 26.4552 71.4481 22.8506C71.4481 19.246 68.5122 16.3142 64.9033 16.3142Z" fill="#242B2B"/>
<path d="M148.323 37.189C148.323 47.0765 140.297 55.0902 130.396 55.0902H73.8591C65.3287 55.0902 58.4149 48.1861 58.4149 39.6678C58.4149 31.589 64.6313 24.9605 72.5532 24.3029C72.323 23.0792 72.2045 21.8165 72.2045 20.5276C72.2045 9.27103 81.34 0.148438 92.6125 0.148438C97.7913 0.148438 102.514 2.07201 106.111 5.24303C108.524 3.96938 111.274 3.24593 114.193 3.24593C123.343 3.24593 130.835 10.341 131.456 19.3182C140.864 19.865 148.322 27.6565 148.322 37.189H148.323Z" fill="#161C1C"/>
<path d="M130.396 55.2325H73.8591C65.2636 55.2325 58.2694 48.249 58.2694 39.6648C58.2694 35.7356 59.7387 31.984 62.4064 29.1012C65.0233 26.2733 68.5602 24.5264 72.3806 24.1689C72.1665 22.9789 72.0581 21.7534 72.0581 20.5237C72.0598 9.20711 81.2799 0 92.6134 0C97.5933 0 102.39 1.79764 106.133 5.06501C108.607 3.77784 111.392 3.09833 114.194 3.09833C123.285 3.09833 130.903 10.1511 131.594 19.1791C141.067 19.796 148.469 27.6813 148.469 37.1859C148.469 46.6905 140.362 55.2317 130.398 55.2317L130.396 55.2325ZM92.6134 0.289888C81.4407 0.289888 72.3501 9.36684 72.3501 20.5246C72.3501 21.7898 72.4669 23.0516 72.6963 24.2737L72.7259 24.4317L72.5651 24.4452C64.7118 25.0977 58.5606 31.7829 58.5606 39.6656C58.5606 48.0893 65.4236 54.9426 73.8591 54.9426H130.396C140.201 54.9426 148.177 46.9779 148.177 37.1868C148.177 27.3957 140.829 20.0065 131.448 19.4614L131.32 19.4538L131.312 19.3261C130.694 10.3895 123.174 3.38822 114.194 3.38822C111.405 3.38822 108.633 4.0728 106.18 5.36842L106.091 5.4149L106.015 5.34898C102.315 2.08669 97.5561 0.290733 92.6134 0.290733V0.289888Z" fill="black"/>
<path d="M145.862 37.189C145.862 47.0765 137.837 55.0902 127.935 55.0902H71.3983C62.8679 55.0902 55.9541 48.1861 55.9541 39.6678C55.9541 31.589 62.1705 24.9605 70.0923 24.3029C69.8621 23.0792 69.7437 21.8165 69.7437 20.5276C69.7437 9.27103 78.8791 0.148438 90.1516 0.148438C95.3305 0.148438 100.053 2.07201 103.65 5.24303C106.063 3.96938 108.814 3.24593 111.732 3.24593C120.883 3.24593 128.374 10.341 128.996 19.3182C138.403 19.865 145.861 27.6565 145.861 37.189H145.862Z" fill="white"/>
<path d="M145.863 37.1872C145.863 47.0755 137.837 55.0909 127.934 55.0909H71.397C67.365 55.0909 63.6969 53.5485 60.9463 51.0207C63.0452 52.0873 65.4201 52.6882 67.9388 52.6882H124.476C134.378 52.6882 142.405 44.6736 142.405 34.7844C142.405 29.4507 140.068 24.6612 136.362 21.3828C142.016 24.3949 145.864 30.3423 145.864 37.1872H145.863Z" fill="#E5E8FF"/>
<path d="M127.935 55.2325H71.3983C62.8028 55.2325 55.8086 48.249 55.8086 39.6648C55.8086 35.7356 57.2779 31.984 59.9455 29.1012C62.5625 26.2733 66.0993 24.5264 69.9198 24.1689C69.7056 22.9772 69.5973 21.7517 69.5973 20.5237C69.599 9.20711 78.8191 0 90.1526 0C95.1325 0 99.9296 1.79764 103.672 5.06501C106.146 3.77784 108.931 3.09833 111.734 3.09833C120.824 3.09833 128.442 10.1511 129.133 19.1791C138.606 19.796 146.008 27.6813 146.008 37.1859C146.008 46.6905 137.901 55.2317 127.937 55.2317L127.935 55.2325ZM90.1526 0.289888C78.9799 0.289888 69.8893 9.36684 69.8893 20.5246C69.8893 21.7881 70.0061 23.0499 70.2354 24.2737L70.2651 24.4317L70.1043 24.4452C62.251 25.0977 56.0997 31.7829 56.0997 39.6656C56.0997 48.0893 62.9628 54.9426 71.3983 54.9426H127.935C137.74 54.9426 145.716 46.9779 145.716 37.1868C145.716 27.3957 138.368 20.0065 128.987 19.4614L128.859 19.4538L128.851 19.3261C128.233 10.3895 120.713 3.38822 111.733 3.38822C108.944 3.38822 106.172 4.0728 103.719 5.36842L103.63 5.4149L103.554 5.34898C99.8543 2.08669 95.0952 0.290733 90.1526 0.290733V0.289888Z" fill="#242B2B"/>
<path d="M76.9231 12.3226L76.4297 12.0158C79.4021 7.24661 84.5318 4.39844 90.1515 4.39844V4.97821C84.7341 4.97821 79.7888 7.72327 76.9231 12.3218V12.3226Z" fill="#242B2B"/>
<path d="M74.5835 20.5228H74.0029C74.0029 18.8984 74.2441 17.2951 74.7198 15.7578L75.275 15.9285C74.8171 17.4109 74.5844 18.9559 74.5844 20.5228H74.5835Z" fill="#242B2B"/>
<path d="M129.757 86.0872H129.177V68.7742C129.177 67.1413 127.847 65.8136 126.212 65.8136H121.798C119.843 65.8136 118.253 64.2256 118.253 62.2733V45.6406H118.834V62.2733C118.834 63.9061 120.163 65.2338 121.798 65.2338H126.212C128.167 65.2338 129.757 66.8219 129.757 68.7742V86.0872Z" fill="black"/>
<path d="M74.9146 86.0872H74.334V68.7742C74.334 66.8219 75.9243 65.2338 77.8793 65.2338H82.293C83.9282 65.2338 85.2578 63.9061 85.2578 62.2733V45.6406H85.8384V62.2733C85.8384 64.2256 84.2481 65.8136 82.293 65.8136H77.8793C76.245 65.8136 74.9154 67.1413 74.9154 68.7742V86.0872H74.9146Z" fill="black"/>
<path d="M88.6389 46.9234C89.3462 45.2183 88.5353 43.2635 86.8278 42.5572C85.1203 41.8509 83.1627 42.6607 82.4554 44.3658C81.7482 46.0709 82.559 48.0257 84.2665 48.732C85.974 49.4382 87.9316 48.6285 88.6389 46.9234Z" fill="#007AFD"/>
<path d="M85.5469 49.1296C83.6214 49.1296 82.0557 47.5661 82.0557 45.6434C82.0557 43.7206 83.6214 42.1562 85.5469 42.1562C87.4723 42.1562 89.0389 43.7206 89.0389 45.6434C89.0389 47.5661 87.4723 49.1296 85.5469 49.1296ZM85.5469 42.447C83.7822 42.447 82.346 43.8812 82.346 45.6434C82.346 47.4055 83.7822 48.8397 85.5469 48.8397C87.3115 48.8397 88.7477 47.4055 88.7477 45.6434C88.7477 43.8812 87.3115 42.447 85.5469 42.447Z" fill="black"/>
<path d="M48.8244 147.818L57.5333 105.859H54.6473L45.9375 147.818H48.8244Z" fill="#C5CDE3"/>
<path d="M48.8244 147.818L57.5333 105.859H54.6473L45.9375 147.818H48.8244Z" fill="#C5CDE3"/>
<path d="M48.9429 147.959H45.7598L45.7962 147.785L54.5296 105.711H57.7127L57.6763 105.885L48.9429 147.959ZM46.1161 147.669H48.7059L57.3547 106.001H54.7649L46.1161 147.669Z" fill="#242B2B"/>
<path d="M143.342 147.818L134.632 105.859H131.746L140.455 147.818H143.342Z" fill="#C5CDE3"/>
<path d="M143.342 147.818L134.632 105.859H131.746L140.455 147.818H143.342Z" fill="#C5CDE3"/>
<path d="M143.521 147.959H140.337L140.314 147.844L131.568 105.711H134.752L134.775 105.827L143.521 147.959ZM140.574 147.669H143.163L134.515 106.001H131.925L140.574 147.669Z" fill="#242B2B"/>
<path d="M143.525 102.344H45.7549V105.854H143.525V102.344Z" fill="#E5E8FF"/>
<path d="M143.671 106.003H45.6094V102.203H143.671V106.003ZM45.9005 105.712H143.38V102.493H45.9005V105.712Z" fill="#242B2B"/>
<path d="M119.037 97.3054L117.283 102.348V102.35H101.441C100.495 102.35 99.7307 101.584 99.7307 100.64C99.7307 100.192 99.905 99.7843 100.182 99.48C100.467 99.1732 100.861 98.9721 101.305 98.934L119.037 97.3046V97.3054Z" fill="white"/>
<path d="M117.283 102.496H101.441C100.418 102.496 99.5859 101.663 99.5859 100.64C99.5859 100.175 99.7594 99.7285 100.075 99.3828C100.393 99.0405 100.826 98.8301 101.293 98.7904L119.248 97.1406L117.429 102.372V102.493L117.283 102.496ZM118.826 97.4711L101.318 99.0794C100.922 99.1132 100.557 99.2907 100.288 99.5789C100.023 99.8705 99.8762 100.247 99.8762 100.64C99.8762 101.503 100.579 102.205 101.441 102.205H117.179L118.826 97.4702V97.4711Z" fill="#242B2B"/>
<path d="M111.157 97.92V102.347H117.285L119.038 97.3047L111.157 97.92Z" fill="black"/>
<path d="M117.285 102.489H111.157C111.077 102.489 111.012 102.424 111.012 102.343V97.9166C111.012 97.8414 111.07 97.778 111.145 97.7721L119.027 97.1568C119.077 97.1526 119.124 97.1737 119.154 97.2126C119.184 97.2514 119.192 97.303 119.176 97.3486L117.422 102.391C117.402 102.449 117.347 102.488 117.285 102.488V102.489ZM111.302 102.198H117.182L118.829 97.4627L111.302 98.0501V102.197V102.198Z" fill="black"/>
<path d="M141.767 82.8725L139.165 99.2609C138.883 101.039 137.347 102.347 135.546 102.347H112.099L115.305 82.1533C115.482 81.0394 116.444 80.2188 117.577 80.2188H139.496C140.91 80.2188 141.988 81.4806 141.767 82.8725Z" fill="white"/>
<path d="M135.546 102.489H111.929L115.163 82.1274C115.352 80.9358 116.368 80.0703 117.578 80.0703H139.497C140.214 80.0703 140.891 80.3822 141.356 80.9265C141.821 81.4699 142.024 82.1866 141.912 82.8923L139.31 99.2807C139.014 101.14 137.433 102.489 135.547 102.489H135.546ZM112.269 102.199H135.546C137.288 102.199 138.749 100.952 139.022 99.235L141.625 82.8466C141.724 82.2246 141.545 81.5933 141.135 81.1141C140.726 80.6349 140.128 80.3602 139.497 80.3602H117.578C116.512 80.3602 115.617 81.1225 115.45 82.1722L112.27 102.198L112.269 102.199Z" fill="#242B2B"/>
<path d="M119.322 80.2188C118.189 80.2188 117.227 81.0394 117.05 82.1533L113.844 102.347H112.098L115.304 82.1533C115.481 81.0394 116.443 80.2188 117.576 80.2188H119.322Z" fill="black"/>
<path d="M113.844 102.489H112.098C112.056 102.489 112.015 102.47 111.988 102.438C111.96 102.406 111.948 102.364 111.955 102.322L115.162 82.1274C115.351 80.9358 116.367 80.0703 117.577 80.0703H119.323C119.404 80.0703 119.469 80.1354 119.469 80.2157C119.469 80.296 119.404 80.361 119.323 80.361C118.257 80.361 117.362 81.1234 117.196 82.1731L113.989 102.367C113.978 102.437 113.917 102.49 113.845 102.49L113.844 102.489ZM112.268 102.199H113.72L116.907 82.1274C117.031 81.349 117.507 80.7101 118.159 80.3602H117.576C116.51 80.3602 115.615 81.1225 115.449 82.1722L112.268 102.198V102.199Z" fill="black"/>
<path d="M131.174 92.6757C130.9 94.3128 129.347 95.6405 127.708 95.6405C126.068 95.6405 124.961 94.3128 125.236 92.6757C125.51 91.0387 127.064 89.7109 128.703 89.7109C130.342 89.7109 131.449 91.0387 131.174 92.6757Z" fill="#E5E8FF"/>
<path d="M127.707 95.782C126.879 95.782 126.15 95.4608 125.655 94.8768C125.151 94.2818 124.951 93.4908 125.092 92.6482C125.377 90.9469 126.997 89.5625 128.702 89.5625C129.53 89.5625 130.259 89.8837 130.754 90.4677C131.259 91.0626 131.458 91.8537 131.317 92.6963C131.032 94.3976 129.412 95.782 127.707 95.782ZM128.703 89.8524C127.133 89.8524 125.642 91.1286 125.379 92.6963C125.252 93.4536 125.429 94.161 125.877 94.6901C126.316 95.2073 126.965 95.4929 127.707 95.4929C129.276 95.4929 130.768 94.2168 131.031 92.649C131.158 91.8917 130.981 91.1844 130.533 90.6553C130.095 90.1381 129.445 89.8524 128.703 89.8524Z" fill="#242B2B"/>
<path d="M82.8325 101.565C82.8325 101.995 82.4584 102.348 82.0039 102.348H68.3227C67.8682 102.348 67.4941 101.995 67.4941 101.565C67.4941 101.135 67.8682 100.781 68.3227 100.781H82.0039C82.4593 100.781 82.8325 101.135 82.8325 101.565Z" fill="black"/>
<path d="M82.004 102.497H68.3228C67.7862 102.497 67.3486 102.08 67.3486 101.569C67.3486 101.057 67.7853 100.641 68.3228 100.641H82.004C82.5414 100.641 82.9781 101.057 82.9781 101.569C82.9781 102.08 82.5414 102.497 82.004 102.497ZM68.3228 100.931C67.9462 100.931 67.6398 101.217 67.6398 101.569C67.6398 101.92 67.9462 102.207 68.3228 102.207H82.004C82.3806 102.207 82.6878 101.92 82.6878 101.569C82.6878 101.217 82.3815 100.931 82.004 100.931H68.3228Z" fill="black"/>
<path d="M98.2473 75.4002L89.5113 95.9087C89.2861 96.4412 88.758 96.7894 88.1783 96.7894H59.6792C58.6382 96.7894 57.9357 95.7295 58.3411 94.772L67.0771 74.2635C67.3022 73.731 67.8304 73.3828 68.4101 73.3828H96.9092C97.9502 73.3828 98.6527 74.4426 98.2473 75.4002Z" fill="white"/>
<path d="M88.1782 96.9378H59.6792C59.1417 96.9378 58.6441 96.6707 58.347 96.2245C58.0499 95.7765 57.9975 95.2145 58.2065 94.7192L66.9425 74.2107C67.1922 73.6225 67.7677 73.2422 68.4092 73.2422H96.9083C97.4458 73.2422 97.9434 73.5093 98.2405 73.9563C98.5375 74.4034 98.59 74.9663 98.381 75.4607L89.645 95.9701C89.3953 96.5583 88.8198 96.9386 88.1782 96.9386V96.9378ZM68.4101 73.5321C67.8853 73.5321 67.4148 73.8431 67.2108 74.324L58.4748 94.8325C58.3038 95.2373 58.3462 95.6979 58.5899 96.0639C58.8328 96.429 59.2399 96.6479 59.6792 96.6479H88.1782C88.703 96.6479 89.1735 96.3369 89.3775 95.856L98.1135 75.3475C98.2845 74.9426 98.2413 74.482 97.9993 74.1161C97.7564 73.7501 97.3493 73.5321 96.9092 73.5321H68.4101Z" fill="black"/>
<path d="M95.2456 71.1641L66.5155 71.5841C65.9358 71.5841 65.4085 71.9323 65.1825 72.4648L56.0716 94.7768C55.6662 95.7344 56.3686 96.7942 57.4096 96.7942H59.6796C58.6385 96.7942 57.9361 95.7344 58.3415 94.7768L67.0775 74.2683C67.3026 73.7359 67.8307 73.3877 68.4105 73.3877H96.9096C97.9506 73.3877 98.653 74.4475 98.2476 75.405C99.0364 72.9406 97.9734 71.2866 95.2456 71.1649V71.1641Z" fill="#E5E8FF"/>
<path d="M59.6795 96.9348H57.4096C56.8722 96.9348 56.3745 96.6677 56.0775 96.2207C55.7804 95.7736 55.7279 95.2107 55.937 94.7163L65.0471 72.4068C65.2976 71.8168 65.8731 71.4357 66.5146 71.4357L95.2422 71.0156C95.2422 71.0156 95.2482 71.0156 95.2507 71.0156C96.6167 71.0765 97.6281 71.5236 98.1765 72.3087C98.6708 73.0169 98.7749 73.9762 98.4846 75.1003C98.4643 75.2211 98.4296 75.3411 98.3805 75.4569C98.35 75.5279 98.2696 75.5642 98.196 75.5364C98.1232 75.5093 98.0843 75.4299 98.108 75.3563C98.1427 75.2498 98.1731 75.1442 98.2002 75.0411C98.2519 74.7208 98.1825 74.3895 97.9988 74.1131C97.7559 73.7472 97.3488 73.5291 96.9087 73.5291H68.4096C67.8849 73.5291 67.4143 73.8401 67.2103 74.321L58.4743 94.8295C58.3034 95.2344 58.3457 95.695 58.5894 96.0609C58.8323 96.426 59.2394 96.6449 59.6787 96.6449C59.7591 96.6449 59.8243 96.71 59.8243 96.7903C59.8243 96.8706 59.7591 96.9357 59.6787 96.9357L59.6795 96.9348ZM95.2431 71.3055L66.5172 71.7256C65.9907 71.7256 65.5202 72.0366 65.3162 72.5175L56.2061 94.827C56.0343 95.2335 56.0775 95.6941 56.3204 96.0601C56.5633 96.426 56.9704 96.6441 57.4105 96.6441H58.7604C58.6004 96.5317 58.4599 96.3888 58.3482 96.2207C58.0512 95.7727 57.9987 95.2107 58.2077 94.7154L66.9437 74.2069C67.1934 73.6187 67.7689 73.2384 68.4105 73.2384H96.9095C97.447 73.2384 97.9446 73.5054 98.2417 73.9525C98.2823 74.0134 98.3179 74.0768 98.35 74.1418C98.3881 73.486 98.251 72.9206 97.9395 72.4752C97.4461 71.7678 96.5135 71.363 95.2439 71.3064L95.2431 71.3055Z" fill="black"/>
<path d="M69.3955 102.343H71.3362C73.0991 101.056 75.9048 98.4379 76.8256 94.3262C77.6906 90.463 75.6187 86.1806 74.8316 84.7422H73.6552C73.6645 84.7625 73.6662 84.7836 73.678 84.803C73.7093 84.8538 76.7672 89.8892 75.8261 94.0887C74.5963 99.5797 69.5157 102.28 69.3955 102.343V102.343Z" fill="black"/>
<path d="M71.3363 102.492H69.3956C69.3287 102.492 69.2703 102.446 69.2543 102.381C69.2382 102.316 69.2686 102.248 69.3287 102.218C69.3795 102.192 74.4644 99.5075 75.684 94.0614C76.609 89.9311 73.5842 84.9329 73.5537 84.883C73.5368 84.856 73.5292 84.8298 73.5241 84.8129C73.5038 84.7681 73.5063 84.7131 73.5334 84.6709C73.5605 84.6295 73.6053 84.6016 73.6544 84.6016H74.8308C74.8842 84.6016 74.9333 84.6303 74.9578 84.6768C75.849 86.3054 77.8286 90.51 76.9662 94.3614C76.0217 98.5787 73.0865 101.248 71.4209 102.463C71.3955 102.481 71.3659 102.491 71.3354 102.491L71.3363 102.492ZM69.9288 102.202H71.2889C72.9283 100.998 75.7678 98.3911 76.6835 94.2989C77.5121 90.6013 75.6391 86.5437 74.7454 84.8923H73.8965C74.4085 85.7907 76.824 90.3047 75.9683 94.1256C74.9417 98.7089 71.2432 101.381 69.9288 102.203V102.202Z" fill="black"/>
<path d="M83.0377 84.75H74.8323C75.6194 86.1885 77.6913 90.4708 76.8263 94.334C75.9055 98.4449 73.0999 101.064 71.3369 102.351H79.5423C81.3052 101.064 84.1108 98.4457 85.0317 94.334C85.8966 90.4708 83.8248 86.1885 83.0377 84.75Z" fill="white"/>
<path d="M79.5419 102.493H71.3365C71.2739 102.493 71.218 102.452 71.1986 102.393C71.1791 102.333 71.2003 102.268 71.251 102.231C72.8836 101.039 75.7604 98.4241 76.6837 94.2989C77.525 90.5438 75.5801 86.4161 74.705 84.8162C74.6804 84.7714 74.6813 84.7165 74.7075 84.6726C74.7338 84.6286 74.7812 84.6016 74.8319 84.6016H83.0373C83.0906 84.6016 83.1397 84.6303 83.1642 84.6768C84.0554 86.3054 86.035 90.5092 85.1726 94.3622C84.2281 98.5787 81.293 101.249 79.6273 102.464C79.6028 102.482 79.5723 102.492 79.5419 102.492V102.493ZM71.7707 102.203H79.4945C81.1338 100.998 83.9733 98.3919 84.8891 94.2997C85.7177 90.6013 83.8439 86.5437 82.951 84.8931H75.0748C76.0084 86.6536 77.7942 90.6706 76.9673 94.3639C76.0854 98.3007 73.4693 100.888 71.7707 102.204V102.203Z" fill="black"/>
<path d="M121.795 46.4079C122.22 44.6116 121.106 42.8118 119.307 42.3879C117.508 41.9639 115.706 43.0764 115.281 44.8726C114.857 46.6689 115.971 48.4687 117.77 48.8926C119.568 49.3166 121.371 48.2041 121.795 46.4079Z" fill="#FFD24F"/>
<path d="M118.543 49.1296C116.618 49.1296 115.052 47.5661 115.052 45.6434C115.052 43.7206 116.618 42.1562 118.543 42.1562C120.468 42.1562 122.035 43.7206 122.035 45.6434C122.035 47.5661 120.468 49.1296 118.543 49.1296ZM118.543 42.447C116.778 42.447 115.342 43.8812 115.342 45.6434C115.342 47.4055 116.778 48.8397 118.543 48.8397C120.308 48.8397 121.744 47.4055 121.744 45.6434C121.744 43.8812 120.308 42.447 118.543 42.447Z" fill="black"/>
<path d="M117.884 32.1875H83.9335C83.4983 32.1875 83.1455 32.5398 83.1455 32.9743V36.7987C83.1455 37.2332 83.4983 37.5855 83.9335 37.5855H117.884C118.319 37.5855 118.672 37.2332 118.672 36.7987V32.9743C118.672 32.5398 118.319 32.1875 117.884 32.1875Z" fill="white"/>
<path d="M115.97 37.7348H85.8489C84.279 37.7348 83.001 36.4586 83.001 34.8908C83.001 33.3231 84.279 32.0469 85.8489 32.0469H115.97C117.54 32.0469 118.818 33.3231 118.818 34.8908C118.818 36.4586 117.54 37.7348 115.97 37.7348ZM85.8489 32.3368C84.4389 32.3368 83.2913 33.4828 83.2913 34.8908C83.2913 36.2988 84.4389 37.4449 85.8489 37.4449H115.97C117.38 37.4449 118.527 36.2988 118.527 34.8908C118.527 33.4828 117.38 32.3368 115.97 32.3368H85.8489Z" fill="black"/>
<path d="M109.322 32.1875H85.8487C84.3558 32.1875 83.1455 33.3959 83.1455 34.8865C83.1455 36.3771 84.3558 37.5855 85.8487 37.5855H109.322C110.815 37.5855 112.025 36.3771 112.025 34.8865C112.025 33.3959 110.815 32.1875 109.322 32.1875Z" fill="#FF4148"/>
<path d="M109.323 37.7348H85.8489C84.279 37.7348 83.001 36.4586 83.001 34.8908C83.001 33.3231 84.279 32.0469 85.8489 32.0469H109.323C110.894 32.0469 112.171 33.3231 112.171 34.8908C112.171 36.4586 110.893 37.7348 109.323 37.7348ZM85.8489 32.3368C84.4389 32.3368 83.2913 33.4828 83.2913 34.8908C83.2913 36.2988 84.4389 37.4449 85.8489 37.4449H109.323C110.733 37.4449 111.881 36.2988 111.881 34.8908C111.881 33.4828 110.733 32.3368 109.323 32.3368H85.8489Z" fill="black"/>
<path d="M100.84 30.1719H98.9039C98.4384 30.1719 98.0347 29.855 97.9255 29.4028L97.7283 28.5856C97.6488 28.2551 97.4025 27.9881 97.0817 27.8731C96.8244 27.7818 96.5748 27.6787 96.3293 27.5621C96.0212 27.4159 95.659 27.4294 95.3662 27.6086L94.6493 28.0464C94.2541 28.2898 93.7412 28.2289 93.4136 27.9002L92.0417 26.5319C91.7142 26.2031 91.6541 25.6935 91.8953 25.2979L92.3354 24.5821C92.5148 24.2905 92.5284 23.9279 92.3819 23.6186C92.2652 23.3752 92.1619 23.1242 92.0679 22.869C91.9528 22.5461 91.6879 22.3027 91.3545 22.2233L90.5378 22.0263C90.0858 21.9173 89.7676 21.5142 89.7676 21.0493V19.1148C89.7676 18.6516 90.085 18.2468 90.5378 18.1395L91.3545 17.9426C91.6879 17.8631 91.9528 17.6172 92.0679 17.2969C92.1619 17.0399 92.2652 16.7889 92.3819 16.5455C92.5284 16.2362 92.5148 15.8761 92.3354 15.5837L91.8953 14.8679C91.6532 14.4707 91.7142 13.961 92.0417 13.6323L93.4136 12.264C93.7412 11.9352 94.2532 11.8743 94.6493 12.1178L95.3662 12.5555C95.6582 12.7347 96.0212 12.7499 96.3293 12.602C96.5748 12.4871 96.8244 12.3823 97.0817 12.291C97.4033 12.1761 97.6488 11.9115 97.7283 11.5785L97.9255 10.763C98.0347 10.3117 98.4384 9.99219 98.9039 9.99219H100.84C101.305 9.99219 101.709 10.3117 101.818 10.763L102.015 11.5785C102.095 11.9115 102.341 12.1761 102.662 12.291C102.919 12.3823 103.169 12.4879 103.414 12.602C103.722 12.7499 104.084 12.7347 104.377 12.5555L105.094 12.1178C105.489 11.8743 106.002 11.9352 106.33 12.264L107.702 13.6323C108.029 13.961 108.089 14.4707 107.848 14.8679L107.408 15.5837C107.229 15.8753 107.215 16.2353 107.361 16.5455C107.478 16.7889 107.582 17.0399 107.675 17.2969C107.791 17.618 108.055 17.8631 108.389 17.9426L109.206 18.1395C109.658 18.2468 109.978 18.6516 109.978 19.1148V21.0493C109.978 21.5142 109.658 21.9173 109.206 22.0263L108.389 22.2233C108.055 22.3027 107.791 22.5461 107.675 22.869C107.582 23.1242 107.478 23.3752 107.361 23.6186C107.215 23.9279 107.229 24.2897 107.408 24.5821L107.848 25.2979C108.09 25.6926 108.029 26.2031 107.702 26.5319L106.33 27.9002C106.002 28.2289 105.49 28.2898 105.094 28.0464L104.377 27.6086C104.085 27.4294 103.725 27.4159 103.414 27.5621C103.169 27.6787 102.919 27.7818 102.662 27.8731C102.34 27.9881 102.095 28.2543 102.015 28.5856L101.818 29.4028C101.709 29.8542 101.305 30.1719 100.84 30.1719Z" fill="white"/>
<path d="M100.84 30.3195H98.9052C98.3712 30.3195 97.9108 29.9578 97.7855 29.4397L97.5883 28.6224C97.5206 28.341 97.3132 28.1128 97.0339 28.0122C96.775 27.9201 96.5168 27.8136 96.268 27.6953C95.9997 27.5685 95.6916 27.5829 95.4436 27.735L94.7259 28.1737C94.2698 28.4534 93.6883 28.3849 93.3117 28.0063L91.9398 26.638C91.564 26.2602 91.4946 25.6796 91.7722 25.2258L92.2131 24.5091C92.3655 24.2614 92.3799 23.953 92.2521 23.6834C92.1404 23.4501 92.0354 23.2008 91.933 22.9219C91.8331 22.6421 91.6055 22.4351 91.3228 22.3666L90.5061 22.1697C89.9872 22.0446 89.625 21.5848 89.625 21.0515V19.117C89.625 18.5828 89.9872 18.1239 90.5069 18.0005L91.3228 17.8036C91.6046 17.736 91.8331 17.5298 91.933 17.25C92.0346 16.9703 92.1395 16.7201 92.2521 16.4843C92.379 16.2164 92.3646 15.9088 92.2131 15.662L91.7722 14.9462C91.4946 14.4906 91.564 13.9091 91.9389 13.5322L93.3117 12.1639C93.6883 11.7853 94.2706 11.716 94.7259 11.9974L95.4428 12.4352C95.6925 12.5882 96.0005 12.6025 96.2671 12.4749C96.5363 12.349 96.786 12.2459 97.0339 12.158C97.3132 12.0583 97.5206 11.8301 97.5883 11.5486L97.7855 10.7331C97.9108 10.2141 98.3712 9.85156 98.9052 9.85156H100.84C101.374 9.85156 101.834 10.2141 101.96 10.7331L102.157 11.5486C102.225 11.8309 102.432 12.0583 102.711 12.158C102.958 12.2459 103.208 12.349 103.476 12.4741C103.744 12.6034 104.052 12.5882 104.302 12.4352L105.019 11.9974C105.475 11.7177 106.056 11.7861 106.433 12.1647L107.805 13.5331C108.181 13.91 108.25 14.4915 107.973 14.947L107.532 15.6637C107.381 15.9105 107.366 16.2181 107.493 16.4877C107.607 16.7252 107.711 16.9745 107.812 17.2509C107.913 17.5306 108.141 17.7377 108.423 17.8053L109.24 18.0022C109.76 18.1256 110.123 18.5845 110.123 19.1187V21.0532C110.123 21.5865 109.76 22.0463 109.24 22.1714L108.423 22.3683C108.141 22.4359 107.912 22.643 107.812 22.9219C107.711 23.1991 107.607 23.4484 107.493 23.685C107.366 23.9538 107.381 24.2623 107.533 24.5099L107.973 25.2258C108.251 25.6796 108.182 26.2602 107.806 26.638L106.434 28.0063C106.058 28.3849 105.475 28.4534 105.02 28.1728L104.303 27.735C104.056 27.5837 103.747 27.5685 103.478 27.6953C103.225 27.8153 102.974 27.9193 102.712 28.0122C102.434 28.112 102.226 28.3402 102.158 28.6224L101.961 29.4397C101.835 29.9578 101.375 30.3195 100.841 30.3195H100.84ZM95.8888 27.3201C96.0598 27.3201 96.2316 27.3581 96.3924 27.4341C96.6328 27.5482 96.8807 27.6514 97.1313 27.7401C97.5037 27.8736 97.7796 28.1779 97.871 28.5548L98.0682 29.3721C98.1621 29.7592 98.5066 30.0296 98.9052 30.0296H100.84C101.239 30.0296 101.583 29.7592 101.677 29.3721L101.874 28.5548C101.966 28.1779 102.242 27.8728 102.613 27.7401C102.866 27.6505 103.107 27.5508 103.352 27.4341C103.711 27.2651 104.122 27.2854 104.453 27.4882L105.17 27.926C105.511 28.1365 105.946 28.0841 106.227 27.8018L107.599 26.4335C107.88 26.1512 107.932 25.7168 107.724 25.3779L107.284 24.662C107.081 24.3307 107.061 23.9192 107.23 23.5608C107.34 23.3318 107.441 23.0909 107.539 22.8238C107.671 22.4537 107.976 22.1773 108.355 22.0869L109.171 21.8899C109.56 21.7961 109.832 21.4521 109.832 21.0541V19.1195C109.832 18.7206 109.56 18.3775 109.171 18.2854L108.355 18.0884C107.977 17.998 107.672 17.7225 107.539 17.3506C107.442 17.0835 107.341 16.8427 107.231 16.6136C107.061 16.2544 107.082 15.8437 107.285 15.5132L107.726 14.7974C107.933 14.4568 107.882 14.0224 107.601 13.7393L106.229 12.371C105.947 12.0887 105.513 12.0371 105.172 12.2459L104.454 12.6845C104.12 12.889 103.708 12.9093 103.353 12.7378C103.094 12.6169 102.852 12.5172 102.615 12.4327C102.242 12.3 101.966 11.9949 101.875 11.6179L101.678 10.8024C101.584 10.4136 101.24 10.1431 100.841 10.1431H98.9061C98.5066 10.1431 98.163 10.4144 98.069 10.8024L97.8718 11.6179C97.7813 11.9949 97.5054 12.3 97.133 12.4327C96.8943 12.518 96.6522 12.6178 96.3933 12.7386C96.0395 12.9085 95.6273 12.889 95.293 12.6845L94.5761 12.2467C94.2351 12.0363 93.8 12.0887 93.519 12.371L92.1463 13.7393C91.8661 14.0216 91.8145 14.4568 92.0219 14.7974L92.462 15.5132C92.6651 15.8437 92.6854 16.2544 92.5161 16.6128C92.4069 16.8401 92.3062 17.0819 92.2072 17.3515C92.0743 17.7225 91.7696 17.9988 91.3913 18.0884L90.5746 18.2854C90.187 18.3775 89.9161 18.7198 89.9161 19.1195V21.0541C89.9161 21.453 90.187 21.797 90.5746 21.8899L91.3913 22.0869C91.7696 22.1781 92.0752 22.4537 92.2072 22.8255C92.3062 23.0943 92.4069 23.3351 92.5153 23.5608C92.6854 23.92 92.6651 24.3316 92.4611 24.6629L92.021 25.3787C91.8137 25.7176 91.8653 26.152 92.1463 26.4343L93.5182 27.8026C93.8 28.0866 94.2342 28.1365 94.5744 27.9277L95.2922 27.4891C95.475 27.3775 95.6806 27.3209 95.8897 27.3209L95.8888 27.3201Z" fill="#242B2B"/>
<path d="M104.088 24.2955C106.416 21.9706 106.416 18.2012 104.088 15.8763C101.76 13.5514 97.9851 13.5514 95.657 15.8763C93.3288 18.2012 93.3288 21.9706 95.6569 24.2955C97.9851 26.6204 101.76 26.6204 104.088 24.2955Z" fill="#C5CDE3"/>
<path d="M103.004 23.2127C104.733 21.4858 104.733 18.6861 103.004 16.9592C101.274 15.2324 98.4708 15.2324 96.7415 16.9592C95.0122 18.6861 95.0122 21.4858 96.7415 23.2127C98.4708 24.9395 101.274 24.9395 103.004 23.2127Z" fill="white"/>
<path d="M99.8726 24.657C97.3514 24.657 95.2998 22.6084 95.2998 20.0898C95.2998 17.5712 97.3514 15.5234 99.8726 15.5234C102.394 15.5234 104.445 17.5721 104.445 20.0898C104.445 22.6075 102.394 24.657 99.8726 24.657ZM99.8726 15.8133C97.5113 15.8133 95.5901 17.7318 95.5901 20.0898C95.5901 22.4478 97.5113 24.3663 99.8726 24.3663C102.234 24.3663 104.155 22.4478 104.155 20.0898C104.155 17.7318 102.234 15.8133 99.8726 15.8133Z" fill="#242B2B"/>
<path d="M15.3876 37.1658C16.6563 39.0894 19.9189 38.7555 21.1825 40.6816C21.9908 41.9156 21.6125 43.589 20.8821 44.8702C20.1551 46.1515 19.1132 47.2536 18.5377 48.61C18.3075 49.1594 18.1585 49.7899 18.3837 50.3401C18.7679 51.2706 19.9697 51.492 20.9752 51.5427C23.1596 51.6517 25.4498 51.5655 27.3592 50.5057C28.8217 49.6927 29.9761 48.1562 30.1445 46.5419C29.8221 46.4464 29.5047 46.3315 29.1932 46.1912C28.7497 45.9892 28.3088 45.723 28.0727 45.297C27.8399 44.8736 27.8873 44.26 28.2885 43.9904C28.9427 43.5535 29.7764 44.3124 30.0066 45.0638C30.1555 45.5514 30.1945 46.0509 30.1445 46.5411C31.6045 46.9696 33.1846 46.973 34.7148 46.8521C36.9864 46.6729 39.5297 46.0475 40.6494 44.0656C41.3874 42.759 41.2842 41.0214 40.3938 39.8103C39.5009 38.5992 37.8725 37.9822 36.4016 38.2941C36.5251 37.274 37.5839 36.6486 38.5631 36.3257C39.5432 36.0062 40.6435 35.7789 41.2977 34.9828C42.1144 33.9906 41.9096 32.5132 41.4517 31.3106C40.9939 30.1104 40.3202 28.9357 40.3346 27.6494C40.3515 26.0377 41.4467 24.6186 41.665 23.0179C41.9993 20.5653 40.1128 18.2327 37.8243 17.2734C35.5391 16.3175 32.9561 16.4409 30.4915 16.7046L32.5101 17.3072C30.4441 17.2683 28.324 17.2734 26.3901 17.9969C24.4588 18.7228 22.7212 20.321 22.4174 22.3621C22.2066 23.7608 22.6814 25.2162 22.3556 26.5955C22.0077 28.0838 20.7974 29.2087 19.5508 30.0919C18.3041 30.9776 16.9313 31.7399 15.9656 32.9265C15.0025 34.1123 14.548 35.893 15.3876 37.1683V37.1658Z" fill="black"/>
<path d="M64.2437 48.7276C64.2437 48.7276 52.2839 62.6261 47.6248 61.9889C46.7615 61.8697 45.8838 61.5139 45.0172 61.0043H45.0146C42.2251 59.3622 39.5887 56.1294 38.1525 54.1746C37.4432 53.2103 37.0268 52.5553 37.0268 52.5553L34.9922 40.1797C34.9922 40.1797 40.6145 41.0333 42.5298 42.1827C44.4451 43.3355 49.4656 50.5404 49.4656 50.5404L59.2172 42.1565C60.0035 37.7769 68.7581 47.1218 64.2437 48.7267V48.7276Z" fill="#FFD24F"/>
<path d="M45.0136 61.0032C42.224 59.3611 39.5876 56.1283 38.1514 54.1735C39.2254 51.2315 40.445 47.8906 40.445 47.8906C41.3954 52.7367 42.8579 57.1577 45.0127 61.0032H45.0136Z" fill="black"/>
<path d="M43.7976 145.443L35.9249 141.193L34.4235 139.555L25.7086 140.786L25.2296 147.323C25.1577 147.674 25.4234 147.996 25.7738 147.996H44.1345C44.4434 147.996 44.6931 147.746 44.6931 147.438V146.773C44.6931 146.187 44.3418 145.664 43.7976 145.443Z" fill="black"/>
<path d="M34.4226 139.555L34.0113 133.855L25.9329 132.938L25.7069 140.786C29.1871 142.251 32.4709 141.805 34.4218 139.555H34.4226Z" fill="#FFCFC5"/>
<path d="M36.2986 144.121L36.043 143.984C36.676 142.802 37.8338 142.685 37.8829 142.68L37.91 142.969C37.8669 142.973 36.8572 143.081 36.2994 144.121H36.2986Z" fill="white"/>
<path d="M38.0232 145.081L37.7676 144.944C38.4015 143.762 39.5585 143.645 39.6075 143.641L39.6346 143.93C39.5915 143.934 38.5826 144.042 38.024 145.082L38.0232 145.081Z" fill="white"/>
<path d="M39.7078 103.442C39.3641 109.34 37.9914 122.596 37.1882 130.116H37.1856C37.0155 131.714 36.8725 133.053 36.7667 134.005C36.6584 135.018 36.594 135.598 36.594 135.598L22.7842 135.371L25.958 103.393L25.0532 65.3281L39.0595 67.6058C39.0595 67.6058 40.23 94.4961 39.7086 103.441L39.7078 103.442Z" fill="#242B2B"/>
<path d="M37.1123 130.805C36.9422 132.403 36.8728 133.052 36.7678 134.005L27.5723 133.36L37.1132 130.805H37.1123Z" fill="black"/>
<path d="M21.6609 135.339C21.7506 136.215 22.4742 136.915 23.3798 136.95L36.1199 137.442C37.1118 137.48 37.948 136.707 37.9861 135.716C37.9895 135.63 37.9852 135.545 37.9768 135.463C37.8871 134.588 37.1634 133.887 36.2578 133.853L23.5178 133.361C22.525 133.323 21.6896 134.096 21.6516 135.087C21.6482 135.173 21.6524 135.258 21.6609 135.339Z" fill="#242B2B"/>
<path d="M21.2732 145.443L13.4005 141.193L11.8991 139.555L3.18421 140.786L2.70518 147.323C2.63324 147.674 2.89899 147.996 3.24938 147.996H21.6101C21.919 147.996 22.1686 147.746 22.1686 147.438V146.773C22.1686 146.187 21.8174 145.664 21.2732 145.443Z" fill="black"/>
<path d="M11.8991 139.551L11.0993 132.447L3.9104 130.164L3.06067 140.783C6.75329 142.247 10.2732 141.801 11.8982 139.551H11.8991Z" fill="#FFCFC5"/>
<path d="M14.3054 144.121L14.0498 143.984C14.6829 142.802 15.8407 142.685 15.8898 142.68L15.9169 142.969C15.8737 142.973 14.864 143.081 14.3062 144.121H14.3054Z" fill="white"/>
<path d="M16.03 145.081L15.7744 144.944C16.4075 143.762 17.5653 143.645 17.6144 143.641L17.6415 143.93C17.5983 143.934 16.5886 144.042 16.0309 145.082L16.03 145.081Z" fill="white"/>
<path d="M30.0042 67.8647C27.0632 84.9892 25.0869 99.8081 22.503 107.797L16.3052 129.076L14.9401 133.759L14.4323 135.502L1.10059 134.528L9.0478 104.391C9.0478 104.391 13.0806 79.6597 15.8838 66.8438L30.0051 67.8639L30.0042 67.8647Z" fill="#242B2B"/>
<path d="M25.1954 97.1585L24.9102 97.1036C25.8394 92.2828 26.7755 86.5383 27.7666 80.4574L27.7776 80.3906L28.0645 80.4371L28.0535 80.5047C27.0624 86.5881 26.1255 92.3335 25.1962 97.1593L25.1954 97.1585Z" fill="white"/>
<path d="M0.00413208 134.35C0.0566057 135.229 0.749765 135.959 1.65367 136.032L14.3616 137.061C15.351 137.141 16.2193 136.403 16.2989 135.415C16.3056 135.329 16.3048 135.244 16.2997 135.162C16.2472 134.283 15.5541 133.553 14.6502 133.48L1.94227 132.451C0.952042 132.371 0.0845352 133.109 0.00497843 134.097C-0.00179236 134.183 -0.000946008 134.268 0.00328573 134.35H0.00413208Z" fill="#242B2B"/>
<path d="M41.2758 71.2167C41.1023 71.9004 40.5792 72.443 39.9301 72.7185C32.5821 75.8464 14.5371 73.2552 14.0462 71.8615C11.6519 70.254 12.2274 67.4405 14.0081 66.9622C14.0081 66.9622 14.0106 66.3435 14.0318 65.3014C14.0436 64.7732 14.0555 64.1427 14.0758 63.4235C14.0877 62.9747 14.102 62.4938 14.1173 61.9834C14.1757 60.2144 14.2586 58.1252 14.3847 55.9811C14.3991 55.7199 14.4143 55.4588 14.4321 55.1976C14.7732 49.8402 15.375 44.3484 16.4414 42.8051C19.6118 38.2252 37.2514 37.8762 39.7481 43.395C40.3329 44.683 40.5623 48.5758 40.6266 52.8684C40.7324 59.66 40.4176 67.4405 40.4176 67.4405C40.476 67.5935 40.5293 67.7397 40.5817 67.8775C40.823 68.5257 41.0252 69.0624 41.1606 69.5382C41.3426 70.178 41.4044 70.7028 41.2749 71.2167H41.2758Z" fill="#FFD24F"/>
<path d="M18.9329 53.3816C18.4539 55.4877 14.7993 60.977 14.1172 61.987C14.1756 60.218 14.2585 58.1288 14.3846 55.9847C16.1679 53.0452 19.2943 47.8906 19.2943 47.8906C19.2943 47.8906 19.4619 51.0591 18.9329 53.3824V53.3816Z" fill="black"/>
<path d="M41.1597 69.5421C37.4129 69.7205 30.3281 69.1187 30.3281 69.1187C35.5501 69.3131 40.4191 67.4453 40.4191 67.4453C40.7323 68.293 40.9972 68.9649 41.1597 69.543V69.5421Z" fill="black"/>
<path d="M15.9873 130.164L14.9395 133.759L6.71387 132.933L15.9873 130.164Z" fill="black"/>
<path d="M21.7975 67.6289C18.0998 68.1799 14.0068 66.9646 14.0068 66.9646C14.0068 66.9646 14.0119 66.3468 14.0314 65.3047C16.4672 66.7651 21.7975 67.6289 21.7975 67.6289Z" fill="black"/>
<path d="M17.5859 41.6579C17.5859 41.6579 14.9292 42.8251 11.4228 47.2131C9.64797 49.4342 3.56611 59.0876 4.12724 63.0471C5.08277 69.7897 14.0067 82.664 14.0067 82.664C15.4336 84.2503 20.5354 78.925 19.1085 77.3378L12.2158 63.097C12.2158 63.097 18.4212 53.4521 19.0907 49.9472C19.9946 45.2169 17.585 41.6562 17.585 41.6562L17.5859 41.6579Z" fill="#FFD24F"/>
<path d="M18.6133 77.9531C18.6133 77.9531 23.3723 79.5724 23.5957 81.1055C23.8192 82.6387 20.6352 81.0954 20.6352 81.0954" fill="#FFCFC5"/>
<path d="M25.0063 78.8585L11.6738 84.4391C10.8139 84.7991 10.4085 85.7879 10.7699 86.6483L14.0495 94.46C14.4108 95.3204 15.4011 95.7252 16.261 95.3652L29.5935 89.7847C30.4551 89.4238 30.8605 88.4349 30.4991 87.5746L27.2195 79.7628C26.8581 78.9025 25.8679 78.4976 25.0063 78.8585Z" fill="black"/>
<path d="M15.6083 95.6453C15.373 95.6453 15.1368 95.5996 14.9126 95.5075C14.4589 95.3216 14.1043 94.9708 13.9147 94.5195L10.6351 86.7078C10.4455 86.2565 10.443 85.7578 10.6292 85.3048C10.8154 84.8518 11.1658 84.4977 11.6169 84.3092L24.9494 78.7287C25.8838 78.3374 26.9612 78.7785 27.353 79.7107L30.6318 87.5225C31.0236 88.4547 30.5818 89.5314 29.6483 89.9227L16.3158 95.5033C16.0881 95.5988 15.8478 95.647 15.6074 95.647L15.6083 95.6453ZM25.062 78.9949L11.7294 84.5755C11.3494 84.7343 11.0541 85.0318 10.8983 85.4138C10.7417 85.795 10.7443 86.2151 10.9034 86.5945L14.183 94.4063C14.343 94.7866 14.6409 95.0824 15.0226 95.2379C15.4043 95.3943 15.8232 95.3926 16.2041 95.2337L29.5366 89.6531C30.322 89.3244 30.6936 88.4175 30.3643 87.6332L27.0856 79.8215C26.7564 79.0363 25.8474 78.667 25.0628 78.9949H25.062Z" fill="black"/>
<path d="M25.3891 79.7726L12.0566 85.3531C11.1967 85.7132 10.7913 86.702 11.1527 87.5624L14.4323 95.3741C14.7937 96.2345 15.7839 96.6393 16.6438 96.2793L29.9763 90.6987C30.8379 90.3378 31.2433 89.349 30.8819 88.4886L27.6023 80.6769C27.2409 79.8165 26.2507 79.4117 25.3891 79.7726Z" fill="white"/>
<path d="M15.9909 96.5593C15.7556 96.5593 15.5195 96.5137 15.2952 96.4216C14.8415 96.2357 14.4869 95.8849 14.2973 95.4336L11.0177 87.6218C10.6267 86.6896 11.0668 85.6138 11.9995 85.2233L25.3312 79.6427C26.2647 79.2514 27.3429 79.6926 27.7348 80.6248L31.0144 88.4366C31.4054 89.3688 30.9645 90.4455 30.0309 90.8368L16.6984 96.4174C16.4708 96.5129 16.2304 96.561 15.99 96.561L15.9909 96.5593ZM25.4446 79.909L12.1129 85.4895C11.3275 85.8183 10.9568 86.7234 11.286 87.5086L14.5656 95.3203C14.7256 95.7007 15.0235 95.9965 15.4052 96.152C15.7861 96.3083 16.2058 96.3066 16.5867 96.1478L29.9192 90.5672C30.7046 90.2384 31.0762 89.3316 30.747 88.5473L27.4674 80.7355C27.1381 79.9512 26.23 79.581 25.4446 79.909Z" fill="black"/>
<path d="M20.6344 81.0953C20.6344 81.0953 24.3524 84.8529 23.6457 85.802C23.1091 86.5238 22.4159 85.4293 21.7939 84.7971C22.4312 85.6516 23.0338 87.5177 22.6631 87.7915C21.6762 88.52 20.5083 86.2043 20.1122 85.5713C20.4795 86.1967 21.0906 88.3374 20.6978 88.5031C19.97 88.809 18.8799 86.9463 18.3382 86.1544C18.7927 86.8601 18.6251 88.471 18.2587 88.4093C17.0078 88.1997 14.2191 81.7605 14.2191 81.7605C13.3727 80.6702 17.7653 76.8611 18.6116 77.9522" fill="#FFCFC5"/>
<path d="M60.521 42.7772C60.521 42.7772 62.956 36.725 64.1383 36.5196C65.049 36.3616 64.8865 39.0982 64.8865 39.0982C64.8865 39.0982 71.5363 33.3114 72.2362 34.1253C72.9361 34.9392 69.0319 37.8609 69.0319 37.8609C69.0319 37.8609 70.0137 37.4814 70.2541 38.1601C70.4876 38.8202 69.8842 39.1608 69.8842 39.1608C69.8842 39.1608 70.5444 38.8827 70.9159 39.3509C71.2917 39.825 70.6544 40.4555 70.6544 40.4555C70.6544 40.4555 71.3763 40.5231 71.2637 41.2897C71.1089 42.347 66.4861 45.8138 65.809 46.184C65.1328 46.555 64.3262 47.0477 64.3262 47.0477C63.3199 47.9892 59.513 43.7195 60.5194 42.7772H60.521Z" fill="#FFCFC5"/>
<path d="M66.9064 41.4017C66.8903 41.4017 66.8751 41.4008 66.8598 41.3991C66.7447 41.3873 66.6516 41.3349 66.5907 41.2478C66.4638 41.0661 66.4214 40.8557 66.4646 40.6233C66.6263 39.7468 68.0007 38.8053 68.0591 38.7656L68.2225 39.0056C68.2089 39.0149 66.8903 39.9193 66.7507 40.6765C66.7219 40.832 66.7481 40.9656 66.8302 41.083C66.8353 41.0906 66.8472 41.1067 66.8903 41.1118C66.8996 41.1126 66.9089 41.1135 66.9182 41.1135C67.4328 41.1135 68.9613 39.8474 69.8212 39.0335L70.021 39.244C69.784 39.4688 67.718 41.4034 66.9072 41.4034L66.9064 41.4017Z" fill="#FFB29F"/>
<path d="M67.7594 42.5911C67.7349 42.5911 67.7112 42.5902 67.6884 42.5877C67.5013 42.5683 67.3524 42.4711 67.2576 42.308C66.8826 41.6665 67.7307 40.7977 67.7671 40.7605L67.9736 40.9642C67.7696 41.1704 67.2897 41.7873 67.5081 42.1609C67.5572 42.2454 67.624 42.2885 67.7188 42.2987C67.7349 42.3003 67.751 42.3012 67.7679 42.3012C68.4746 42.3012 69.9777 40.8306 70.5101 40.25L70.7242 40.4452C70.5185 40.6692 68.7311 42.5902 67.7603 42.5902L67.7594 42.5911Z" fill="#FFB29F"/>
<path d="M68.0773 43.7322C68.0146 43.7322 67.9562 43.7262 67.9021 43.7136C67.7633 43.6806 67.6549 43.6028 67.5906 43.4896C67.4823 43.2994 67.456 43.1008 67.5119 42.9005C67.6422 42.4357 68.1814 42.1297 68.2042 42.1171L68.3464 42.3698C68.3422 42.3723 67.8885 42.6309 67.792 42.9791C67.7573 43.1042 67.7743 43.2242 67.8437 43.3468C67.8589 43.3747 67.8894 43.4127 67.9698 43.4321C68.4683 43.5521 69.7403 42.8008 70.1889 42.5025L70.3497 42.7442C70.1872 42.8523 68.8398 43.733 68.0773 43.733V43.7322Z" fill="#FFB29F"/>
<path d="M63.7346 42.1243L63.6152 41.8597C64.9711 41.2495 64.7451 39.1409 64.7426 39.1197L65.0312 39.0859C65.0422 39.1814 65.2851 41.427 63.7346 42.1243Z" fill="#FFB29F"/>
<path d="M35.1338 46.244C33.5588 47.0976 32.3028 44.5317 32.3028 44.5317L31.7891 39.7684L32.3824 38.3984H33.348L35.6399 40.2164C35.6399 40.2164 36.7089 45.3896 35.1338 46.2432V46.244Z" fill="#FFB902"/>
<path d="M32.3021 44.5339C32.3021 44.5339 30.7778 47.6787 29.2713 47.1091C27.7648 46.5403 24.4971 39.5297 24.4971 39.5297L26.6053 37.7109L29.9332 38.4006L30.7947 41.4668L32.3012 44.533L32.3021 44.5339Z" fill="#FFB902"/>
<path d="M26.5752 37.7109C28.306 40.1036 30.3863 42.9855 32.3024 44.5339C32.9127 42.6669 33.5957 41.4448 33.4154 39.25L26.5752 37.7109Z" fill="#FFCFC5"/>
<path d="M33.4162 39.2512L26.5752 37.713L26.9916 29.1406L27.5434 30.0711L27.7288 30.3805L27.8117 30.5208L27.9141 30.5715L33.1649 33.1982V33.2717L33.2283 37.4595V37.5043L33.4162 39.2512Z" fill="#FFCFC5"/>
<path d="M33.2276 37.4619V37.5067C31.9378 36.621 28.7496 34.1633 27.8525 30.95C27.7949 30.743 27.7535 30.5545 27.7281 30.3829C27.7188 30.3288 27.712 30.2781 27.7061 30.2266L27.9134 30.5739L27.9743 30.6762L33.1642 33.2742L33.2276 37.4628V37.4619Z" fill="#FC9B88"/>
<path d="M25.2529 28.3832C25.7277 28.8987 26.3227 29.2097 26.8813 29.2799C26.8872 29.2799 26.8923 29.2799 26.8982 29.2824C26.9541 29.285 26.9854 29.2883 26.9854 29.2883C27.0412 29.2909 27.0979 29.2968 27.1538 29.2968C28.4225 33.149 31.5836 35.6185 34.4138 35.212C37.2101 34.808 40.1664 30.5054 39.3548 25.7083C39.133 24.3653 38.7175 23.1289 38.1648 22.0555C37.9625 21.6634 37.7433 21.2932 37.508 20.9484C36.0735 18.8431 33.0833 17.5787 31.0876 17.9126C28.4123 18.3613 26.613 21.425 26.5512 25.202C25.9503 25.0169 25.3663 25.0981 24.9626 25.4742C24.2441 26.119 24.3786 27.4282 25.2546 28.384L25.2529 28.3832Z" fill="#FFCFC5"/>
<path d="M35.9756 25.5156L37.5058 29.7575L35.373 30.224L35.9756 25.5156Z" fill="#FC9B88"/>
<path d="M23.1296 27.8761C23.4326 28.9384 26.2966 29.2334 26.8806 29.2832C26.322 29.2131 25.7271 28.9021 25.2523 28.3865C24.3763 27.4307 24.2417 26.1215 24.9603 25.4767C25.3648 25.1014 25.9488 25.0194 26.5489 25.2045C26.5489 25.2045 27.2733 25.2578 27.3741 26.3345C27.4748 27.4112 27.947 26.7047 27.947 26.7047V23.8447C27.947 23.8447 35.7995 23.761 38.1633 22.0589C38.7583 21.6329 39.0054 21.103 38.694 20.4472C37.1443 17.184 34.926 16.3431 31.9926 16.4099C29.0591 16.4775 26.1612 18.8659 26.1612 18.8659L25.1507 23.2725C25.1507 23.2725 22.7928 26.6929 23.1296 27.8761Z" fill="black"/>
<path d="M89.3526 125.302C89.3526 125.302 91.3068 124.176 91.57 122.262C91.8332 120.348 88.7136 119.109 88.7136 119.109C88.7136 119.109 89.4279 122.712 88.5257 122.674C87.6235 122.637 87.9621 118.583 87.9621 118.583C87.9621 118.583 85.1429 117.194 83.4891 117.194C83.4891 117.194 85.1809 120.385 84.542 120.685C83.903 120.985 81.6855 117.007 81.6855 117.007C81.6855 117.007 79.3547 116.031 77.8143 117.945C76.2731 119.859 78.2654 121.773 78.2654 121.773C78.2654 121.773 81.7236 121.549 82.0241 122.299C82.3245 123.05 78.7538 123.012 78.7538 123.012C78.7538 123.012 80.3322 126.015 81.3851 126.353C82.4379 126.691 83.8056 124.627 84.8856 124.476C85.9994 124.321 87.0607 124.701 86.7975 125.265C86.5343 125.828 83.4899 125.986 83.0388 127.675C83.0388 127.675 87.9248 129.394 89.3534 125.303L89.3526 125.302Z" fill="#00887D"/>
<path d="M91.44 136.901C91.4332 136.809 90.7705 127.648 89.231 125.379C87.6932 123.113 80.6795 119.944 80.6084 119.913L80.7277 119.648C81.0197 119.779 87.8878 122.883 89.4714 125.217C91.054 127.55 91.7023 136.502 91.7294 136.881L91.4391 136.901H91.44Z" fill="black"/>
<path d="M96.5625 130.143C96.5625 130.143 94.8207 128.814 94.8681 127.11C94.9155 125.406 98.1824 124.901 98.1824 124.901C98.1824 124.901 96.9036 127.889 97.7965 128.02C98.6894 128.151 99.0059 124.582 99.0059 124.582C99.0059 124.582 102 123.893 103.627 124.193C103.627 124.193 101.453 126.645 102.033 127.022C102.614 127.398 105.431 124.358 105.431 124.358C105.431 124.358 107.879 123.937 109.088 125.872C110.297 127.808 108.032 129.102 108.032 129.102C108.032 129.102 104.668 128.28 104.252 128.875C103.836 129.47 107.353 130.085 107.353 130.085C107.353 130.085 105.321 132.397 104.231 132.497C103.142 132.599 102.127 130.564 101.09 130.238C100.019 129.902 98.9145 130.038 99.0829 130.573C99.2514 131.108 102.22 131.797 102.393 133.34C102.393 133.34 97.3132 133.94 96.5634 130.142L96.5625 130.143Z" fill="#00887D"/>
<path d="M94.4944 136.327L94.2041 136.308C94.216 136.124 94.5181 131.783 96.4647 130.037C98.3978 128.303 105.648 126.866 105.956 126.805L106.012 127.09C105.937 127.104 98.5323 128.573 96.6585 130.252C94.7999 131.919 94.4969 136.283 94.4936 136.327H94.4944Z" fill="black"/>
<path d="M93.0588 126.919C93.0588 126.919 90.5265 125.46 90.1855 122.981C89.8444 120.501 93.8866 118.896 93.8866 118.896C93.8866 118.896 92.9615 123.564 94.1303 123.516C95.2991 123.467 94.8607 118.216 94.8607 118.216C94.8607 118.216 98.5127 116.416 100.656 116.416C100.656 116.416 98.4645 120.55 99.2922 120.939C100.12 121.328 102.993 116.174 102.993 116.174C102.993 116.174 106.012 114.91 108.009 117.389C110.005 119.869 107.425 122.349 107.425 122.349C107.425 122.349 102.945 122.058 102.555 123.03C102.166 124.003 106.792 123.954 106.792 123.954C106.792 123.954 104.746 127.844 103.383 128.282C102.02 128.719 100.248 126.044 98.8487 125.85C97.4065 125.65 96.0304 126.142 96.3714 126.871C96.7125 127.6 101.484 127.357 102.069 129.545C102.069 129.545 94.9106 132.219 93.0605 126.919H93.0588Z" fill="#04B5A4"/>
<path d="M91.551 136.467C91.5231 136.199 90.8875 129.864 92.9391 126.84C94.9838 123.826 103.871 119.81 104.248 119.641L104.367 119.905C104.276 119.947 95.1776 124.056 93.1794 127.003C91.1871 129.939 91.8329 136.373 91.8396 136.437L91.551 136.468V136.467Z" fill="black"/>
<path d="M99.8679 134.766H86.6818C86.4126 134.766 86.1943 134.984 86.1943 135.252V136.928C86.1943 137.196 86.4126 137.414 86.6818 137.414H99.8679C100.137 137.414 100.355 137.196 100.355 136.928V135.252C100.355 134.984 100.137 134.766 99.8679 134.766Z" fill="white"/>
<path d="M99.8681 137.563H86.682C86.3333 137.563 86.0498 137.28 86.0498 136.931V135.256C86.0498 134.908 86.3333 134.625 86.682 134.625H99.8681C100.217 134.625 100.5 134.908 100.5 135.256V136.931C100.5 137.279 100.217 137.563 99.8681 137.563ZM86.682 134.914C86.4933 134.914 86.3401 135.067 86.3401 135.255V136.93C86.3401 137.118 86.4933 137.272 86.682 137.272H99.8681C100.057 137.272 100.21 137.119 100.21 136.93V135.255C100.21 135.067 100.057 134.914 99.8681 134.914H86.682Z" fill="#242B2B"/>
<path d="M99.3609 137.422L98.2784 147.041C98.2276 147.484 97.8518 147.82 97.4049 147.82H89.2665C88.9609 147.82 88.6884 147.663 88.5267 147.424C88.4557 147.311 88.4083 147.183 88.393 147.041L87.429 138.483L87.3105 137.422H99.3617H99.3609Z" fill="white"/>
<path d="M99.3609 137.422L98.2784 147.041C98.2276 147.484 97.8518 147.82 97.4049 147.82H89.2665C88.9609 147.82 88.6884 147.663 88.5267 147.424C94.0348 145.962 96.4266 143.051 97.7756 138.453L87.429 138.483L87.3105 137.422H99.3617H99.3609Z" fill="#E5E8FF"/>
<path d="M97.4044 147.961H89.2659C88.9214 147.961 88.5998 147.79 88.406 147.501C88.3171 147.359 88.2646 147.209 88.2486 147.053L87.1475 137.273H99.5236L98.4225 147.054C98.3633 147.572 97.9257 147.961 97.4044 147.961ZM87.4716 137.563L88.5372 147.021C88.549 147.135 88.5871 147.244 88.6497 147.344C88.7868 147.547 89.0187 147.671 89.2659 147.671H97.4044C97.7776 147.671 98.0916 147.392 98.1339 147.021L99.1986 137.563H87.4725H87.4716Z" fill="#242B2B"/>
</g>
<defs>
<clipPath id="clip0_206_1260">
<rect width="150" height="148" fill="white"/>
</clipPath>
</defs>
</svg>
