<svg width="127" height="134" viewBox="0 0 127 134" fill="none" xmlns="http://www.w3.org/2000/svg">
<g clip-path="url(#clip0_328_26)">
<path d="M52.2557 104C45.2033 104 38.3606 102.627 31.9134 99.9126C25.6921 97.2947 20.1002 93.5446 15.3071 88.7666C10.506 83.9886 6.73772 78.4316 4.10719 72.2403C1.37982 65.8321 0 59.0225 0 51.996C0 44.9695 1.37982 38.1679 4.10719 31.7517C6.73772 25.5603 10.506 19.9954 15.3071 15.2254C20.1083 10.4474 25.6921 6.69724 31.9134 4.07938C38.3526 1.37318 45.1952 0 52.2557 0C59.3162 0 66.1507 1.37318 72.5979 4.08741C78.8192 6.70527 84.4111 10.4554 89.2042 15.2334L88.0665 16.3657C83.4186 11.7403 78.0043 8.10254 71.9686 5.56498C65.723 2.93908 59.0983 1.60605 52.2557 1.60605C45.4131 1.60605 38.7883 2.93908 32.5428 5.56498C26.5152 8.10254 21.1008 11.7403 16.4449 16.3657C11.7971 20.9911 8.14175 26.3794 5.59191 32.3861C2.9533 38.6015 1.61383 45.1944 1.61383 52.004C1.61383 58.8137 2.9533 65.4065 5.59191 71.622C8.14175 77.6206 11.7971 83.0089 16.4449 87.6423C21.0927 92.2678 26.5152 95.9055 32.5428 98.4431C38.7883 101.069 45.4131 102.402 52.2557 102.402C59.0983 102.402 65.723 101.069 71.9686 98.4431C77.9962 95.9055 83.4106 92.2678 88.0665 87.6423C92.7143 83.0169 96.3696 77.6206 98.9194 71.622C101.558 65.4065 102.898 58.8137 102.898 52.004V51.201H125.257V52.807H104.503C104.398 59.5444 103.027 66.0811 100.404 72.2483C97.7736 78.4397 94.0053 84.0046 89.2042 88.7746C84.4031 93.5526 78.8192 97.3028 72.5979 99.9206C66.1588 102.635 59.3162 104.008 52.2557 104.008V104Z" fill="#7B3DD9"/>
<path d="M119.899 58.567L118.802 57.3946L124.628 52.0063L118.802 46.6099L119.899 45.4375L127 52.0063L119.899 58.567Z" fill="#7B3DD9"/>
<g clip-path="url(#clip1_328_26)">
<g clip-path="url(#clip2_328_26)">
<path d="M95.8481 57.1531C99.4758 33.3424 83.0627 11.107 59.1885 7.48896C35.3142 3.87092 13.0195 20.2403 9.39176 44.051C5.76407 67.8617 22.1772 90.0971 46.0514 93.7151C69.9257 97.3331 92.2204 80.9637 95.8481 57.1531Z" fill="white"/>
<path d="M52.6144 14.9717C72.3076 14.9717 88.3372 30.9586 88.3372 50.5993C88.3372 70.24 72.3076 86.227 52.6144 86.227C32.9212 86.227 16.8916 70.24 16.8916 50.5993C16.8916 30.9586 32.908 14.9717 52.6144 14.9717ZM52.6144 11.3047C30.858 11.3047 13.2148 28.9009 13.2148 50.5993C13.2148 72.2978 30.858 89.894 52.6144 89.894C74.3708 89.894 92.0139 72.2978 92.0139 50.5993C92.0139 28.9009 74.3708 11.3047 52.6144 11.3047Z" fill="#7B3DD9"/>
<path d="M64.7556 50.2474C64.7556 49.878 64.7292 49.5087 64.7027 49.1394L68.234 47.3323C67.9827 46.066 67.5859 44.8656 67.0569 43.7312L63.1421 44.338C62.7585 43.7049 62.3353 43.1113 61.846 42.5573L63.6314 39.0222C62.7056 38.1648 61.6873 37.3998 60.5763 36.793L57.7592 39.5762C57.0847 39.286 56.3837 39.0618 55.6563 38.9035L55.0215 34.9991C54.3999 34.92 53.765 34.8672 53.1302 34.8672C52.4954 34.8672 51.8605 34.92 51.2389 34.9991L50.6041 38.9035C49.8767 39.0618 49.1757 39.286 48.5012 39.5762L45.6841 36.793C44.5731 37.413 43.5415 38.1648 42.6289 39.0222L44.4144 42.5573C43.9251 43.1113 43.4886 43.7049 43.1183 44.338L39.2035 43.7312C38.6744 44.8656 38.2644 46.066 38.0264 47.3323L41.5444 49.1394C41.5047 49.5087 41.4915 49.8648 41.4915 50.2474C41.4915 50.6299 41.518 50.986 41.5444 51.3554L38.0264 53.1625C38.2644 54.4288 38.6744 55.6291 39.2035 56.7635L43.1183 56.1699C43.5018 56.8031 43.9251 57.3966 44.4144 57.9506L42.6289 61.4857C43.5547 62.3431 44.5731 63.1081 45.6841 63.7149L48.5012 60.9317C49.1757 61.2219 49.8767 61.4461 50.6041 61.6044L51.2389 65.5088C51.8605 65.588 52.4954 65.6407 53.1302 65.6407C53.765 65.6407 54.3999 65.588 55.0215 65.5088L55.6563 61.6044C56.3837 61.4461 57.0847 61.2219 57.7592 60.9317L60.5763 63.7149C61.6873 63.095 62.7056 62.3431 63.6314 61.4857L61.846 57.9506C62.3353 57.3966 62.7718 56.8031 63.1421 56.1699L67.0569 56.7635C67.5859 55.6291 67.996 54.4288 68.234 53.1625L64.7027 51.3554C64.7424 50.9992 64.7556 50.6299 64.7556 50.2474ZM53.0905 57.5285C49.0567 57.5285 45.7899 54.2705 45.7899 50.2474C45.7899 46.2242 49.0567 42.9662 53.0905 42.9662C57.1244 42.9662 60.3911 46.2242 60.3911 50.2474C60.3911 54.2705 57.1244 57.5285 53.0905 57.5285Z" fill="#7B3DD9"/>
</g>
</g>
</g>
<g clip-path="url(#clip3_328_26)">
<path d="M35.4026 130.308C34.6236 130.098 33.9944 129.828 33.5 129.499L34.4438 127.371C34.9082 127.671 35.4326 127.911 36.0318 128.106C36.6311 128.285 37.2303 128.375 37.8146 128.375C38.9232 128.375 39.4775 128.106 39.4775 127.551C39.4775 127.267 39.3127 127.042 38.9981 126.907C38.6835 126.772 38.1742 126.622 37.47 126.458C36.706 126.293 36.0618 126.113 35.5524 125.918C35.0431 125.723 34.5936 125.424 34.2191 125.004C33.8446 124.585 33.6648 124.016 33.6648 123.312C33.6648 122.697 33.8296 122.128 34.1742 121.634C34.5187 121.139 35.0281 120.735 35.7022 120.45C36.3764 120.15 37.2004 120.016 38.1891 120.016C38.8633 120.016 39.5225 120.091 40.1667 120.24C40.8109 120.39 41.3951 120.615 41.8895 120.9L41.0056 123.042C40.0318 122.517 39.088 122.248 38.1742 122.248C37.6049 122.248 37.1854 122.338 36.9157 122.503C36.6461 122.667 36.5262 122.892 36.5262 123.162C36.5262 123.431 36.676 123.641 36.9906 123.776C37.3052 123.911 37.7996 124.046 38.4888 124.195C39.2678 124.36 39.912 124.54 40.4213 124.735C40.9307 124.929 41.3802 125.229 41.7547 125.634C42.1292 126.053 42.324 126.607 42.324 127.312C42.324 127.926 42.1592 128.48 41.8146 128.974C41.47 129.469 40.9607 129.873 40.2865 130.158C39.6124 130.458 38.7734 130.607 37.8146 130.607C36.9906 130.607 36.1816 130.503 35.4176 130.308H35.4026Z" fill="#7B3DD9"/>
<path d="M49.3953 130.083C49.1556 130.233 48.871 130.338 48.5414 130.413C48.2118 130.488 47.8522 130.533 47.4777 130.533C46.444 130.533 45.65 130.278 45.0957 129.769C44.5414 129.259 44.2717 128.51 44.2717 127.507V124.855H43.1182V122.787H44.2717V120.75H47.0433V122.802H48.856V124.87H47.0433V127.492C47.0433 127.776 47.1182 128.001 47.268 128.151C47.4178 128.316 47.6125 128.39 47.8672 128.39C48.1818 128.39 48.4665 128.316 48.7062 128.151L49.3953 130.083Z" fill="#7B3DD9"/>
<path d="M58.6988 127.162H52.961C53.0808 127.566 53.3056 127.881 53.6351 128.106C53.9647 128.33 54.3842 128.435 54.8936 128.435C55.2681 128.435 55.5977 128.375 55.8823 128.27C56.167 128.166 56.4366 127.986 56.7213 127.746L58.1745 129.259C57.4104 130.113 56.2868 130.548 54.8037 130.548C53.8748 130.548 53.0659 130.368 52.3767 130.023C51.6726 129.679 51.1333 129.184 50.7587 128.57C50.3692 127.941 50.1895 127.237 50.1895 126.458C50.1895 125.679 50.3692 124.99 50.7438 124.36C51.1183 123.746 51.6426 123.252 52.3018 122.907C52.961 122.563 53.7101 122.383 54.534 122.383C55.358 122.383 56.0322 122.548 56.6763 122.877C57.3205 123.207 57.8299 123.671 58.2044 124.285C58.579 124.9 58.7587 125.634 58.7587 126.473C58.7587 126.488 58.7587 126.712 58.7138 127.162H58.6988ZM53.4554 124.705C53.1707 124.945 52.991 125.274 52.916 125.694H56.152C56.0771 125.274 55.8973 124.945 55.6127 124.705C55.328 124.465 54.9685 124.345 54.534 124.345C54.0996 124.345 53.755 124.465 53.4704 124.705H53.4554Z" fill="#7B3DD9"/>
<path d="M67.3875 122.877C67.9718 123.207 68.4362 123.686 68.7808 124.3C69.1253 124.915 69.3051 125.634 69.3051 126.443C69.3051 127.252 69.1253 127.971 68.7808 128.585C68.4362 129.199 67.9718 129.679 67.3875 130.008C66.8032 130.338 66.1441 130.503 65.425 130.503C64.4961 130.503 63.762 130.233 63.2227 129.679V133.199H60.4512V122.503H63.0879V123.297C63.5972 122.682 64.3763 122.383 65.425 122.383C66.1441 122.383 66.8032 122.548 67.3875 122.877ZM66.0392 127.836C66.3538 127.506 66.5036 127.042 66.5036 126.458C66.5036 125.873 66.3538 125.409 66.0392 125.079C65.7246 124.75 65.3351 124.57 64.8407 124.57C64.3463 124.57 63.9568 124.735 63.6422 125.079C63.3276 125.409 63.1778 125.873 63.1778 126.458C63.1778 127.042 63.3276 127.506 63.6422 127.836C63.9568 128.166 64.3463 128.345 64.8407 128.345C65.3351 128.345 65.7246 128.181 66.0392 127.836Z" fill="#7B3DD9"/>
<path d="M77.485 129.978C76.8109 129.558 76.2715 128.944 75.882 128.15C75.4925 127.341 75.3127 126.397 75.3127 125.303C75.3127 124.21 75.5075 123.251 75.882 122.457C76.2715 121.663 76.7959 121.049 77.485 120.629C78.1592 120.21 78.9382 120 79.8221 120C80.706 120 81.4551 120.21 82.1442 120.629C82.8184 121.049 83.3577 121.663 83.7472 122.457C84.1367 123.266 84.3165 124.21 84.3165 125.303C84.3165 126.397 84.1217 127.356 83.7472 128.15C83.3577 128.959 82.8333 129.558 82.1442 129.978C81.47 130.397 80.691 130.607 79.8221 130.607C78.9532 130.607 78.1742 130.397 77.485 129.978ZM80.9757 127.536C81.2603 127.071 81.4101 126.322 81.4101 125.303C81.4101 124.285 81.2603 123.536 80.9757 123.071C80.691 122.607 80.3015 122.367 79.8221 122.367C79.3427 122.367 78.9382 122.607 78.6536 123.071C78.3689 123.536 78.2191 124.285 78.2191 125.303C78.2191 126.322 78.3689 127.071 78.6536 127.536C78.9382 128 79.3277 128.24 79.8221 128.24C80.3165 128.24 80.691 128 80.9757 127.536Z" fill="#7B3DD9"/>
<path d="M93.5 128.12V130.412H85.5599V128.599L89.3801 125.034C89.7547 124.689 89.9944 124.39 90.1292 124.135C90.249 123.895 90.3239 123.64 90.3239 123.386C90.3239 123.056 90.2191 122.801 89.9944 122.607C89.7696 122.427 89.4401 122.337 89.0206 122.337C88.646 122.337 88.3015 122.427 87.9719 122.592C87.6573 122.757 87.4026 123.011 87.1929 123.326L85.0505 122.127C85.455 121.468 86.0093 120.944 86.7284 120.569C87.4475 120.195 88.3015 120 89.2753 120C90.0543 120 90.7434 120.12 91.3427 120.375C91.9419 120.629 92.4063 120.989 92.7359 121.453C93.0655 121.918 93.2453 122.472 93.2453 123.086C93.2453 123.64 93.1254 124.165 92.8857 124.659C92.646 125.154 92.1816 125.708 91.5075 126.322L89.5899 128.105H93.5299L93.5 128.12Z" fill="#7B3DD9"/>
</g>
<defs>
<clipPath id="clip0_328_26">
<rect width="127" height="104" fill="white"/>
</clipPath>
<clipPath id="clip1_328_26">
<rect width="100" height="101" fill="white" transform="translate(1.80469 7.24219)"/>
</clipPath>
<clipPath id="clip2_328_26">
<rect width="100" height="101" fill="white" transform="translate(2 7)"/>
</clipPath>
<clipPath id="clip3_328_26">
<rect width="60" height="13.2285" fill="white" transform="translate(33.5 120)"/>
</clipPath>
</defs>
</svg>
