<svg width="127" height="134" viewBox="0 0 127 134" fill="none" xmlns="http://www.w3.org/2000/svg">
<g clip-path="url(#clip0_323_26)">
<path d="M52.7557 104C45.7033 104 38.8606 102.627 32.4134 99.9126C26.1921 97.2947 20.6002 93.5446 15.8071 88.7666C11.006 83.9886 7.23772 78.4316 4.60719 72.2403C1.87982 65.8321 0.5 59.0225 0.5 51.996C0.5 44.9695 1.87982 38.1679 4.60719 31.7517C7.23772 25.5603 11.006 19.9954 15.8071 15.2254C20.6083 10.4474 26.1921 6.69724 32.4134 4.07938C38.8526 1.37318 45.6952 0 52.7557 0C59.8162 0 66.6507 1.37318 73.0979 4.08741C79.3192 6.70527 84.9111 10.4554 89.7042 15.2334L88.5665 16.3657C83.9186 11.7403 78.5043 8.10254 72.4686 5.56498C66.223 2.93908 59.5983 1.60605 52.7557 1.60605C45.9131 1.60605 39.2883 2.93908 33.0428 5.56498C27.0152 8.10254 21.6008 11.7403 16.9449 16.3657C12.2971 20.9911 8.64175 26.3794 6.09191 32.3861C3.4533 38.6015 2.11383 45.1944 2.11383 52.004C2.11383 58.8137 3.4533 65.4065 6.09191 71.622C8.64175 77.6206 12.2971 83.0089 16.9449 87.6423C21.5927 92.2678 27.0152 95.9055 33.0428 98.4431C39.2883 101.069 45.9131 102.402 52.7557 102.402C59.5983 102.402 66.223 101.069 72.4686 98.4431C78.4962 95.9055 83.9106 92.2678 88.5665 87.6423C93.2143 83.0169 96.8696 77.6206 99.4194 71.622C102.058 65.4065 103.398 58.8137 103.398 52.004V51.201H125.757V52.807H105.003C104.898 59.5444 103.527 66.0811 100.904 72.2483C98.2736 78.4397 94.5053 84.0046 89.7042 88.7746C84.9031 93.5526 79.3192 97.3028 73.0979 99.9206C66.6588 102.635 59.8162 104.008 52.7557 104.008V104Z" fill="#FF3654"/>
<path d="M120.399 58.567L119.302 57.3946L125.128 52.0063L119.302 46.6099L120.399 45.4375L127.5 52.0063L120.399 58.567Z" fill="#FF3654"/>
<g clip-path="url(#clip1_323_26)">
<path d="M96.0891 57.7595C99.9167 33.9799 83.691 11.6082 59.8479 7.79082C36.0049 3.97344 13.5734 20.156 9.74586 43.9355C5.91829 67.7151 22.144 90.0868 45.9871 93.9042C69.8301 97.7215 92.2616 81.539 96.0891 57.7595Z" fill="white"/>
<path d="M52.9201 15.2295C72.6132 15.2295 88.6428 31.2164 88.6428 50.8571C88.6428 70.4979 72.6132 86.4848 52.9201 86.4848C33.2269 86.4848 17.1973 70.4979 17.1973 50.8571C17.1973 31.2164 33.2137 15.2295 52.9201 15.2295ZM52.9201 11.5625C31.1637 11.5625 13.5205 29.1587 13.5205 50.8571C13.5205 72.5556 31.1637 90.1518 52.9201 90.1518C74.6764 90.1518 92.3196 72.5556 92.3196 50.8571C92.3196 29.1587 74.6764 11.5625 52.9201 11.5625Z" fill="#FF3654"/>
<path d="M45.5266 57.5135L50.1689 52.8836L52.1263 54.8226L61.133 45.8398L62.6276 47.3304C62.654 47.2116 63.765 40.3526 63.6988 40.7879L57.1389 41.8563L58.8318 43.5447L52.1263 50.2323L50.1689 48.2933L45.2224 53.2265V38.4531H42.3789V60.3362H64.3204V57.5003H45.5266V57.5135Z" fill="#FF3654"/>
</g>
</g>
<g clip-path="url(#clip2_323_26)">
<path d="M36.0207 130.908C35.1933 130.686 34.5251 130.401 34 130.052L35.0024 127.801C35.4956 128.118 36.0525 128.371 36.6889 128.578C37.3254 128.768 37.9618 128.863 38.5823 128.863C39.7597 128.863 40.3484 128.578 40.3484 127.991C40.3484 127.69 40.1734 127.452 39.8393 127.309C39.5052 127.166 38.9642 127.008 38.2164 126.834C37.4049 126.659 36.7208 126.469 36.1798 126.263C35.6388 126.057 35.1615 125.74 34.7637 125.296C34.366 124.852 34.175 124.249 34.175 123.504C34.175 122.854 34.35 122.251 34.716 121.728C35.0819 121.205 35.6229 120.777 36.3389 120.476C37.0549 120.159 37.93 120.016 38.9801 120.016C39.6961 120.016 40.3962 120.095 41.0803 120.254C41.7645 120.412 42.385 120.65 42.9101 120.951L41.9714 123.219C40.9372 122.664 39.9348 122.378 38.9642 122.378C38.3596 122.378 37.9141 122.473 37.6277 122.648C37.3413 122.822 37.214 123.06 37.214 123.345C37.214 123.631 37.3731 123.853 37.7072 123.995C38.0414 124.138 38.5664 124.281 39.2983 124.439C40.1257 124.614 40.8099 124.804 41.3508 125.01C41.8918 125.216 42.3691 125.533 42.7669 125.962C43.1647 126.405 43.3715 126.992 43.3715 127.737C43.3715 128.387 43.1965 128.974 42.8305 129.497C42.4646 130.02 41.9236 130.448 41.2076 130.75C40.4916 131.067 39.6006 131.225 38.5823 131.225C37.7072 131.225 36.8481 131.114 36.0366 130.908H36.0207Z" fill="#FF3654"/>
<path d="M50.8815 130.667C50.6269 130.825 50.3246 130.936 49.9746 131.016C49.6245 131.095 49.2427 131.142 48.8449 131.142C47.7471 131.142 46.9038 130.873 46.3151 130.334C45.7264 129.795 45.44 129.002 45.44 127.94V125.133H44.2148V122.945H45.44V120.789H48.3835V122.961H50.3087V125.149H48.3835V127.924C48.3835 128.225 48.4631 128.463 48.6222 128.621C48.7813 128.796 48.9881 128.875 49.2586 128.875C49.5927 128.875 49.895 128.796 50.1496 128.621L50.8815 130.667Z" fill="#FF3654"/>
<path d="M60.762 127.581H54.6681C54.7954 128.009 55.0341 128.342 55.3841 128.58C55.7342 128.818 56.1797 128.929 56.7206 128.929C57.1184 128.929 57.4684 128.865 57.7708 128.754C58.0731 128.643 58.3595 128.453 58.6618 128.2L60.2051 129.801C59.3937 130.705 58.2003 131.164 56.6252 131.164C55.6387 131.164 54.7795 130.974 54.0476 130.61C53.2998 130.245 52.727 129.722 52.3292 129.072C51.9155 128.406 51.7246 127.66 51.7246 126.836C51.7246 126.012 51.9155 125.282 52.3133 124.616C52.7111 123.966 53.268 123.443 53.968 123.078C54.6681 122.714 55.4637 122.523 56.3388 122.523C57.2139 122.523 57.9299 122.698 58.614 123.047C59.2982 123.395 59.8392 123.887 60.2369 124.537C60.6347 125.187 60.8256 125.964 60.8256 126.852C60.8256 126.868 60.8256 127.106 60.7779 127.581H60.762ZM55.1932 124.981C54.8909 125.235 54.6999 125.583 54.6204 126.027H58.0571C57.9776 125.583 57.7867 125.235 57.4844 124.981C57.182 124.727 56.8002 124.6 56.3388 124.6C55.8774 124.6 55.5114 124.727 55.2091 124.981H55.1932Z" fill="#FF3654"/>
<path d="M69.9908 123.047C70.6113 123.395 71.1045 123.903 71.4705 124.553C71.8364 125.203 72.0274 125.964 72.0274 126.82C72.0274 127.676 71.8364 128.437 71.4705 129.087C71.1045 129.737 70.6113 130.245 69.9908 130.594C69.3702 130.942 68.6702 131.117 67.9064 131.117C66.92 131.117 66.1403 130.831 65.5675 130.245V133.971H62.624V122.65H65.4243V123.491C65.9653 122.841 66.7927 122.523 67.9064 122.523C68.6702 122.523 69.3702 122.698 69.9908 123.047ZM68.5588 128.295C68.8929 127.946 69.052 127.454 69.052 126.836C69.052 126.218 68.8929 125.726 68.5588 125.377C68.2247 125.029 67.811 124.838 67.2859 124.838C66.7609 124.838 66.3472 125.013 66.013 125.377C65.6789 125.726 65.5198 126.218 65.5198 126.836C65.5198 127.454 65.6789 127.946 66.013 128.295C66.3472 128.643 66.7609 128.834 67.2859 128.834C67.811 128.834 68.2247 128.659 68.5588 128.295Z" fill="#FF3654"/>
<path d="M80.7143 130.559C79.9983 130.116 79.4255 129.465 79.0118 128.625C78.5982 127.769 78.4072 126.77 78.4072 125.613C78.4072 124.455 78.6141 123.441 79.0118 122.6C79.4255 121.76 79.9824 121.11 80.7143 120.666C81.4303 120.222 82.2577 120 83.1964 120C84.1352 120 84.9307 120.222 85.6626 120.666C86.3786 121.11 86.9514 121.76 87.3651 122.6C87.7787 123.456 87.9697 124.455 87.9697 125.613C87.9697 126.77 87.7628 127.785 87.3651 128.625C86.9514 129.481 86.3945 130.116 85.6626 130.559C84.9466 131.003 84.1192 131.225 83.1964 131.225C82.2736 131.225 81.4462 131.003 80.7143 130.559ZM84.4215 127.975C84.7239 127.484 84.883 126.691 84.883 125.613C84.883 124.535 84.7239 123.742 84.4215 123.25C84.1192 122.759 83.7056 122.505 83.1964 122.505C82.6873 122.505 82.2577 122.759 81.9554 123.25C81.653 123.742 81.4939 124.535 81.4939 125.613C81.4939 126.691 81.653 127.484 81.9554 127.975C82.2577 128.467 82.6713 128.72 83.1964 128.72C83.7215 128.72 84.1192 128.467 84.4215 127.975Z" fill="#FF3654"/>
<path d="M94.0004 120.219V131.016H90.9296V122.565H88.9248V120.219H94.0004Z" fill="#FF3654"/>
</g>
<defs>
<clipPath id="clip0_323_26">
<rect width="127" height="134" fill="white"/>
</clipPath>
<clipPath id="clip1_323_26">
<rect width="100" height="101" fill="white" transform="translate(2.30469 7.24219)"/>
</clipPath>
<clipPath id="clip2_323_26">
<rect width="60" height="14" fill="white" transform="translate(34 120)"/>
</clipPath>
</defs>
</svg>
