<svg width="150" height="148" viewBox="0 0 150 148" fill="none" xmlns="http://www.w3.org/2000/svg">
<g clip-path="url(#clip0_206_1139)">
<path d="M133.589 30.5916C125.677 26.2529 116.305 28.2054 108.023 34.7857C102.82 38.9189 96.4048 40.3589 90.2674 38.8064C90.183 38.7853 90.0986 38.7641 90.0151 38.7421C82.3239 36.7956 76.1518 30.2813 73.2645 21.6682C70.4195 13.1803 65.5877 6.48246 58.9658 2.8507C41.3333 -6.8185 17.7111 8.90589 6.20261 37.9727C-5.30507 67.0394 -0.340775 98.4417 17.2908 108.112C26.2565 113.029 36.7708 111.379 46.4538 104.748C55.6194 98.4713 66.349 96.1865 76.6945 98.9305C77.806 99.2256 78.9184 99.5232 80.0299 99.8234C86.3353 101.526 92.0659 105.178 97.1737 109.851C98.3755 110.951 99.682 111.898 101.092 112.671C115.142 120.377 133.806 108.249 142.78 85.583C151.753 62.9172 147.639 38.2965 133.589 30.5908V30.5916Z" fill="#FEE4E8"/>
<path d="M130.736 40.8011V147.484L41.5811 147.785V41.1046C41.5811 37.1135 44.8101 33.8783 48.7937 33.8783L123.526 33.5781C127.507 33.5781 130.736 36.8133 130.736 40.8019V40.8011Z" fill="white"/>
<path d="M41.5813 148C41.5239 148 41.469 147.977 41.4285 147.936C41.388 147.896 41.3652 147.841 41.3652 147.783V41.1023C41.3652 36.9979 44.6981 33.6596 48.794 33.6596L123.525 33.3594C127.621 33.3594 130.952 36.6969 130.952 40.7996V147.483C130.952 147.602 130.856 147.699 130.737 147.699L41.5821 148H41.5813ZM123.526 33.7915L48.7948 34.0916C44.9361 34.0916 41.7974 37.2364 41.7974 41.1015V147.565L130.52 147.266V40.7988C130.52 36.9353 127.382 33.7915 123.526 33.7915Z" fill="#070706"/>
<path d="M107.964 134.498H106.524C106.405 134.498 106.308 134.401 106.308 134.282C106.308 134.162 106.405 134.065 106.524 134.065H107.964C108.083 134.065 108.18 134.162 108.18 134.282C108.18 134.401 108.083 134.498 107.964 134.498ZM105.083 134.498H103.642C103.523 134.498 103.426 134.401 103.426 134.282C103.426 134.162 103.523 134.065 103.642 134.065H105.083C105.202 134.065 105.299 134.162 105.299 134.282C105.299 134.401 105.202 134.498 105.083 134.498ZM102.203 134.498H100.762C100.643 134.498 100.546 134.401 100.546 134.282C100.546 134.162 100.643 134.065 100.762 134.065H102.203C102.322 134.065 102.419 134.162 102.419 134.282C102.419 134.401 102.322 134.498 102.203 134.498ZM99.3212 134.498H97.8805C97.7615 134.498 97.6644 134.401 97.6644 134.282C97.6644 134.162 97.7615 134.065 97.8805 134.065H99.3212C99.4402 134.065 99.5372 134.162 99.5372 134.282C99.5372 134.401 99.4402 134.498 99.3212 134.498ZM96.4407 134.498H95C94.881 134.498 94.7839 134.401 94.7839 134.282C94.7839 134.162 94.881 134.065 95 134.065H96.4407C96.5597 134.065 96.6567 134.162 96.6567 134.282C96.6567 134.401 96.5597 134.498 96.4407 134.498ZM93.5593 134.498H92.1186C91.9996 134.498 91.9026 134.401 91.9026 134.282C91.9026 134.162 91.9996 134.065 92.1186 134.065H93.5593C93.6783 134.065 93.7754 134.162 93.7754 134.282C93.7754 134.401 93.6783 134.498 93.5593 134.498ZM90.6788 134.498H89.2381C89.1191 134.498 89.0221 134.401 89.0221 134.282C89.0221 134.162 89.1191 134.065 89.2381 134.065H90.6788C90.7978 134.065 90.8949 134.162 90.8949 134.282C90.8949 134.401 90.7978 134.498 90.6788 134.498ZM87.7975 134.498H86.3568C86.2378 134.498 86.1407 134.401 86.1407 134.282C86.1407 134.162 86.2378 134.065 86.3568 134.065H87.7975C87.9165 134.065 88.0135 134.162 88.0135 134.282C88.0135 134.401 87.9165 134.498 87.7975 134.498ZM84.9169 134.498H83.4763C83.3573 134.498 83.2602 134.401 83.2602 134.282C83.2602 134.162 83.3573 134.065 83.4763 134.065H84.9169C85.0359 134.065 85.133 134.162 85.133 134.282C85.133 134.401 85.0359 134.498 84.9169 134.498ZM82.0356 134.498H80.5949C80.4759 134.498 80.3789 134.401 80.3789 134.282C80.3789 134.162 80.4759 134.065 80.5949 134.065H82.0356C82.1546 134.065 82.2516 134.162 82.2516 134.282C82.2516 134.401 82.1546 134.498 82.0356 134.498ZM79.1551 134.498H77.7144C77.5954 134.498 77.4983 134.401 77.4983 134.282C77.4983 134.162 77.5954 134.065 77.7144 134.065H79.1551C79.2741 134.065 79.3711 134.162 79.3711 134.282C79.3711 134.401 79.2741 134.498 79.1551 134.498ZM76.2737 134.498H74.8331C74.714 134.498 74.617 134.401 74.617 134.282C74.617 134.162 74.714 134.065 74.8331 134.065H76.2737C76.3927 134.065 76.4898 134.162 76.4898 134.282C76.4898 134.401 76.3927 134.498 76.2737 134.498ZM73.3932 134.498H71.9525C71.8335 134.498 71.7365 134.401 71.7365 134.282C71.7365 134.162 71.8335 134.065 71.9525 134.065H73.3932C73.5122 134.065 73.6093 134.162 73.6093 134.282C73.6093 134.401 73.5122 134.498 73.3932 134.498ZM70.5119 134.498H69.0712C68.9522 134.498 68.8551 134.401 68.8551 134.282C68.8551 134.162 68.9522 134.065 69.0712 134.065H70.5119C70.6309 134.065 70.7279 134.162 70.7279 134.282C70.7279 134.401 70.6309 134.498 70.5119 134.498ZM67.6314 134.498H66.1907C66.0717 134.498 65.9746 134.401 65.9746 134.282C65.9746 134.162 66.0717 134.065 66.1907 134.065H67.6314C67.7504 134.065 67.8474 134.162 67.8474 134.282C67.8474 134.401 67.7504 134.498 67.6314 134.498ZM64.75 134.498H64.2326C63.9086 134.498 63.5853 134.464 63.2713 134.397C63.1549 134.373 63.0806 134.258 63.1051 134.14C63.1296 134.024 63.2435 133.948 63.3617 133.974C63.6461 134.035 63.9389 134.065 64.2326 134.065H64.75C64.869 134.065 64.9661 134.162 64.9661 134.282C64.9661 134.401 64.869 134.498 64.75 134.498ZM109.404 134.491C109.29 134.491 109.195 134.402 109.189 134.286C109.183 134.167 109.274 134.064 109.393 134.058C109.852 134.034 110.301 133.935 110.724 133.764C110.835 133.719 110.961 133.773 111.005 133.884C111.05 133.995 110.996 134.121 110.885 134.166C110.417 134.354 109.922 134.464 109.416 134.49C109.412 134.49 109.408 134.49 109.404 134.49V134.491ZM61.9826 133.876C61.9446 133.876 61.9066 133.866 61.872 133.844C61.4382 133.584 61.0525 133.256 60.7251 132.869C60.6483 132.778 60.6592 132.642 60.7504 132.564C60.8407 132.487 60.9774 132.498 61.0551 132.59C61.3513 132.94 61.7015 133.237 62.094 133.473C62.1961 133.535 62.2299 133.668 62.1683 133.77C62.1278 133.838 62.056 133.875 61.9826 133.875V133.876ZM112.029 133.435C111.968 133.435 111.908 133.41 111.865 133.36C111.788 133.269 111.798 133.132 111.888 133.055C112.236 132.754 112.529 132.402 112.762 132.007C112.822 131.904 112.955 131.869 113.058 131.931C113.161 131.992 113.195 132.125 113.134 132.228C112.877 132.664 112.552 133.053 112.169 133.384C112.129 133.419 112.078 133.436 112.028 133.436L112.029 133.435ZM60.1528 131.714C60.0667 131.714 59.9849 131.663 59.952 131.577C59.7671 131.107 59.6616 130.611 59.6389 130.103C59.6329 129.984 59.7258 129.882 59.8448 129.877C59.9638 129.871 60.0651 129.964 60.0701 130.083C60.0912 130.543 60.1866 130.993 60.3537 131.419C60.3976 131.531 60.3427 131.656 60.2313 131.7C60.2052 131.71 60.179 131.715 60.152 131.715L60.1528 131.714ZM113.465 130.992C113.45 130.992 113.436 130.991 113.421 130.988C113.303 130.964 113.228 130.849 113.253 130.733C113.309 130.457 113.337 130.174 113.337 129.89V129.339C113.337 129.22 113.434 129.123 113.553 129.123C113.672 129.123 113.769 129.22 113.769 129.339V129.89C113.769 130.203 113.738 130.515 113.676 130.819C113.655 130.921 113.565 130.992 113.465 130.992ZM59.8498 128.867C59.7308 128.867 59.6338 128.769 59.6338 128.65V127.207C59.6338 127.087 59.7308 126.99 59.8498 126.99C59.9688 126.99 60.0659 127.087 60.0659 127.207V128.65C60.0659 128.769 59.9688 128.867 59.8498 128.867ZM113.553 128.112C113.434 128.112 113.337 128.015 113.337 127.896V126.452C113.337 126.333 113.434 126.236 113.553 126.236C113.672 126.236 113.769 126.333 113.769 126.452V127.896C113.769 128.015 113.672 128.112 113.553 128.112ZM59.8498 125.98C59.7308 125.98 59.6338 125.882 59.6338 125.763V124.32C59.6338 124.201 59.7308 124.103 59.8498 124.103C59.9688 124.103 60.0659 124.201 60.0659 124.32V125.763C60.0659 125.882 59.9688 125.98 59.8498 125.98ZM113.553 125.226C113.434 125.226 113.337 125.129 113.337 125.01V123.566C113.337 123.447 113.434 123.35 113.553 123.35C113.672 123.35 113.769 123.447 113.769 123.566V125.01C113.769 125.129 113.672 125.226 113.553 125.226ZM59.8498 123.094C59.7308 123.094 59.6338 122.997 59.6338 122.877V121.434C59.6338 121.315 59.7308 121.217 59.8498 121.217C59.9688 121.217 60.0659 121.315 60.0659 121.434V122.877C60.0659 122.997 59.9688 123.094 59.8498 123.094ZM113.553 122.339C113.434 122.339 113.337 122.242 113.337 122.123V120.68C113.337 120.56 113.434 120.463 113.553 120.463C113.672 120.463 113.769 120.56 113.769 120.68V122.123C113.769 122.242 113.672 122.339 113.553 122.339ZM59.8498 120.207C59.7308 120.207 59.6338 120.11 59.6338 119.99V118.547C59.6338 118.428 59.7308 118.331 59.8498 118.331C59.9688 118.331 60.0659 118.428 60.0659 118.547V119.99C60.0659 120.11 59.9688 120.207 59.8498 120.207ZM113.553 119.454C113.434 119.454 113.337 119.356 113.337 119.237V117.794C113.337 117.674 113.434 117.577 113.553 117.577C113.672 117.577 113.769 117.674 113.769 117.794V119.237C113.769 119.356 113.672 119.454 113.553 119.454ZM59.8498 117.321C59.7308 117.321 59.6338 117.224 59.6338 117.105V115.661C59.6338 115.542 59.7308 115.445 59.8498 115.445C59.9688 115.445 60.0659 115.542 60.0659 115.661V117.105C60.0659 117.224 59.9688 117.321 59.8498 117.321ZM113.553 116.567C113.434 116.567 113.337 116.469 113.337 116.35V114.907C113.337 114.788 113.434 114.69 113.553 114.69C113.672 114.69 113.769 114.788 113.769 114.907V116.35C113.769 116.469 113.672 116.567 113.553 116.567ZM59.8498 114.434C59.7308 114.434 59.6338 114.337 59.6338 114.218V112.774C59.6338 112.655 59.7308 112.558 59.8498 112.558C59.9688 112.558 60.0659 112.655 60.0659 112.774V114.218C60.0659 114.337 59.9688 114.434 59.8498 114.434ZM113.553 113.681C113.434 113.681 113.337 113.584 113.337 113.464V112.021C113.337 111.902 113.434 111.804 113.553 111.804C113.672 111.804 113.769 111.902 113.769 112.021V113.464C113.769 113.584 113.672 113.681 113.553 113.681ZM59.8498 111.548C59.7308 111.548 59.6338 111.451 59.6338 111.332V109.888C59.6338 109.769 59.7308 109.672 59.8498 109.672C59.9688 109.672 60.0659 109.769 60.0659 109.888V111.332C60.0659 111.451 59.9688 111.548 59.8498 111.548ZM113.553 110.794C113.434 110.794 113.337 110.697 113.337 110.577V109.888C113.337 109.769 113.434 109.672 113.553 109.672C113.672 109.672 113.769 109.769 113.769 109.888V110.577C113.769 110.697 113.672 110.794 113.553 110.794Z" fill="#070706"/>
<path d="M85.9255 128.678C85.766 128.678 85.6377 128.549 85.6377 128.39V119.202C85.6377 119.043 85.7668 118.914 85.9255 118.914C86.0842 118.914 86.2133 119.043 86.2133 119.202V128.39C86.2133 128.549 86.0842 128.678 85.9255 128.678Z" fill="#070706"/>
<path d="M120.063 98.7109H103.881C103.089 98.7109 102.446 99.3545 102.446 100.148V113.824C102.446 114.618 103.089 115.261 103.881 115.261H120.063C120.855 115.261 121.497 114.618 121.497 113.824V100.148C121.497 99.3545 120.855 98.7109 120.063 98.7109Z" fill="#FFB839"/>
<path d="M120.063 115.476H103.881C102.971 115.476 102.23 114.735 102.23 113.823V100.146C102.23 99.2346 102.971 98.4922 103.881 98.4922H120.063C120.973 98.4922 121.714 99.2338 121.714 100.146V113.823C121.714 114.734 120.974 115.476 120.063 115.476ZM103.88 98.926C103.209 98.926 102.662 99.4739 102.662 100.147V113.823C102.662 114.496 103.209 115.044 103.88 115.044H120.062C120.734 115.044 121.281 114.496 121.281 113.823V100.147C121.281 99.4739 120.734 98.926 120.062 98.926H103.88Z" fill="#070706"/>
<path d="M117.241 102.625H106.701V104.345H117.241V102.625Z" fill="white"/>
<path d="M117.241 106.359H106.701V108.079H117.241V106.359Z" fill="white"/>
<path d="M117.241 110.094H106.701V111.814H117.241V110.094Z" fill="white"/>
<path d="M95.0313 98.7109H76.8207C76.5886 98.7109 76.4004 98.8995 76.4004 99.132V114.84C76.4004 115.073 76.5886 115.261 76.8207 115.261H95.0313C95.2634 115.261 95.4516 115.073 95.4516 114.84V99.132C95.4516 98.8995 95.2634 98.7109 95.0313 98.7109Z" fill="#FF571C"/>
<path d="M94.0171 115.476H77.8354C76.9256 115.476 76.1846 114.735 76.1846 113.823V100.146C76.1846 99.2346 76.9247 98.4922 77.8354 98.4922H94.0171C94.9269 98.4922 95.6679 99.2338 95.6679 100.146V113.823C95.6679 114.734 94.9277 115.476 94.0171 115.476ZM77.8346 98.926C77.1627 98.926 76.6158 99.4739 76.6158 100.147V113.823C76.6158 114.496 77.1627 115.044 77.8346 115.044H94.0162C94.688 115.044 95.2349 114.496 95.2349 113.823V100.147C95.2349 99.4739 94.688 98.926 94.0162 98.926H77.8346Z" fill="#070706"/>
<path d="M91.1959 102.625H80.6562V104.345H91.1959V102.625Z" fill="white"/>
<path d="M91.1959 106.359H80.6562V108.079H91.1959V106.359Z" fill="white"/>
<path d="M91.1959 110.094H80.6562V111.814H91.1959V110.094Z" fill="white"/>
<path d="M68.9864 98.7109H50.7758C50.5436 98.7109 50.3555 98.8995 50.3555 99.132V114.84C50.3555 115.073 50.5436 115.261 50.7758 115.261H68.9864C69.2185 115.261 69.4067 115.073 69.4067 114.84V99.132C69.4067 98.8995 69.2185 98.7109 68.9864 98.7109Z" fill="#34CEC3"/>
<path d="M67.9721 115.476H51.7905C50.8807 115.476 50.1396 114.735 50.1396 113.823V100.146C50.1396 99.2346 50.8798 98.4922 51.7905 98.4922H67.9721C68.8819 98.4922 69.623 99.2338 69.623 100.146V113.823C69.623 114.734 68.8828 115.476 67.9721 115.476ZM51.7896 98.926C51.1178 98.926 50.5709 99.4739 50.5709 100.147V113.823C50.5709 114.496 51.1178 115.044 51.7896 115.044H67.9713C68.6431 115.044 69.19 114.496 69.19 113.823V100.147C69.19 99.4739 68.6431 98.926 67.9713 98.926H51.7896Z" fill="#070706"/>
<path d="M65.151 102.625H54.6113V104.345H65.151V102.625Z" fill="white"/>
<path d="M65.151 106.359H54.6113V108.079H65.151V106.359Z" fill="white"/>
<path d="M65.151 110.094H54.6113V111.814H65.151V110.094Z" fill="white"/>
<path d="M5.57544 147.784C5.57544 147.784 6.01769 129.242 5.97465 126.571C5.91894 123.107 2.91943 116.477 2.09233 109.607C0.802729 98.9002 8.88892 89.3595 19.6429 88.9046C19.7012 88.9021 19.7586 88.8995 19.8151 88.8978C19.9164 88.8936 20.0168 88.8902 20.1172 88.8868C31.8005 88.4945 41.47 97.9134 41.47 109.625V147.784H5.57544Z" fill="#FFB839"/>
<path d="M16.5789 66.2109C15.4142 66.3175 14.3297 66.939 13.5431 67.8057C12.7565 68.6724 12.2535 69.7708 11.9708 70.9073C11.3209 73.5218 11.8644 76.4433 13.5406 78.5505C15.2167 80.6577 18.0263 81.8499 20.6832 81.4347C21.3356 81.3324 21.9981 81.127 22.4825 80.6771C22.9594 80.234 23.2168 79.5922 23.3004 78.9462C23.3839 78.3002 23.308 77.644 23.2033 77.0014C22.7476 74.1957 21.7491 71.4797 20.2798 69.0487" fill="#070706"/>
<path d="M15.625 89.5273C16.512 86.8257 17.4109 80.5794 18.3274 75.8281L28.4569 79.4447L28.3041 81.1189L27.7167 87.5064L27.4888 89.9831C32.7063 97.6178 17.1956 97.0665 15.625 89.5273Z" fill="#FC9FAD"/>
<path d="M28.3046 81.1169L27.7172 87.5044C27.1931 87.2448 24.9717 86.0348 23.3352 83.5099C21.4709 80.6324 25.1008 80.2891 25.1008 80.2891L28.3046 81.1177V81.1169Z" fill="#070706"/>
<path d="M16.2958 86.8984L13.3115 90.1277C13.3115 90.1277 16.6022 99.5018 21.7134 99.4992C25.4353 99.4976 24.4614 95.3339 24.4614 95.3339C19.4861 95.3863 16.3034 92.5909 16.2958 86.8984Z" fill="white"/>
<path d="M33.8426 68.7635C36.4389 68.7635 38.5436 66.6548 38.5436 64.0536C38.5436 61.4524 36.4389 59.3438 33.8426 59.3438C31.2463 59.3438 29.1416 61.4524 29.1416 64.0536C29.1416 66.6548 31.2463 68.7635 33.8426 68.7635Z" fill="#070706"/>
<path d="M37.3737 72.3475C38.5722 79.6094 34.5945 84.8393 30.1155 85.383C25.0254 86.0011 20.2544 82.6441 19.056 75.3823C17.8575 68.1205 20.7169 59.9234 25.7757 59.0855C30.8337 58.2475 36.1753 65.0857 37.3737 72.3475Z" fill="#FC9FAD"/>
<path d="M22.8035 72.8241C22.0684 74.4274 20.7594 72.168 20.7594 72.168L14.9055 71.5304C14.9055 71.5304 12.8698 60.0229 19.7095 56.8359L22.53 60.2225C23.9403 62.6611 23.9783 70.2637 22.8035 72.8241Z" fill="#070706"/>
<path d="M33.3607 65.1228L17.9049 66.9171C14.8007 62.4009 17.612 56.1977 23.0489 55.5669L32.1344 54.5125C35.0588 54.1734 37.7047 56.273 38.0431 59.2029C38.3815 62.1328 36.2859 64.7837 33.3615 65.1228H33.3607Z" fill="#070706"/>
<path d="M18.4535 77.6165C20.4949 77.4692 22.0306 75.6917 21.8836 73.6464C21.7365 71.6011 19.9624 70.0625 17.921 70.2098C15.8795 70.3571 14.3438 72.1346 14.4909 74.1799C14.6379 76.2252 16.412 77.7638 18.4535 77.6165Z" fill="#FC9FAD"/>
<path d="M17.8091 75.8582C17.6066 75.8582 17.3998 75.81 17.2108 75.7094C16.6824 75.4278 16.3524 74.797 16.3896 74.1392C16.4208 73.5887 16.69 73.0315 17.1483 72.5698C17.453 72.262 17.7712 72.0751 18.0944 72.0142C18.6303 71.9119 19.2397 72.1723 19.6085 72.6611C19.9039 73.0517 20.0651 73.5836 20.0744 74.1984C20.0761 74.3176 19.9807 74.4165 19.8617 74.4182C19.7545 74.4258 19.644 74.3243 19.6423 74.2051C19.6364 73.8415 19.5663 73.3232 19.2642 72.9224C18.9916 72.5613 18.5535 72.3677 18.1746 72.4395C17.9391 72.4844 17.6969 72.6307 17.4547 72.875C17.0707 73.2623 16.8453 73.7198 16.8208 74.1637C16.793 74.649 17.0369 75.1268 17.4133 75.3272C17.6868 75.4726 18.1012 75.471 18.3214 75.2164C18.4683 75.0465 18.4987 74.7784 18.3949 74.5797C18.291 74.381 18.0547 74.2533 17.8302 74.2795C17.7146 74.2922 17.6049 74.2068 17.5922 74.0884C17.5787 73.9692 17.6648 73.8627 17.783 73.8491C18.183 73.8052 18.5907 74.0233 18.778 74.3793C18.9645 74.7353 18.9114 75.1961 18.6489 75.5005C18.4463 75.7348 18.1341 75.8591 17.81 75.8591L17.8091 75.8582Z" fill="#070706"/>
<path d="M30.9177 80.8936C30.0645 80.8936 29.3066 80.6061 28.7462 80.0598C28.2364 79.5626 27.665 78.6266 27.8397 76.9904C27.8524 76.8711 27.9579 76.7841 28.0777 76.7984C28.1967 76.8111 28.282 76.9177 28.2693 77.0369C28.1453 78.1945 28.4145 79.1331 29.0466 79.7495C29.6256 80.3143 30.462 80.5545 31.4022 80.4277C31.5237 80.4116 31.6292 80.4945 31.6452 80.6128C31.6613 80.7312 31.5786 80.8403 31.4604 80.8564C31.2756 80.8817 31.095 80.8936 30.9177 80.8936Z" fill="#070706"/>
<path d="M31.3711 76.8079C31.2673 76.8079 31.1761 76.7326 31.1584 76.6269C31.1382 76.5094 31.2183 76.3978 31.3356 76.3775C31.6015 76.3327 31.8775 76.2861 32.1129 76.1754C32.351 76.0638 32.5231 75.8904 32.5856 75.7002C32.6624 75.4668 32.594 75.1911 32.5029 74.8816L31.599 71.8012C31.5652 71.6862 31.631 71.5661 31.745 71.5323C31.8606 71.4985 31.9796 71.5644 32.0134 71.6794L32.9173 74.7599C33.0033 75.0533 33.1215 75.4558 32.9958 75.8363C32.8945 76.1441 32.6455 76.4037 32.2961 76.5677C32.0066 76.7039 31.6884 76.7571 31.4074 76.8045C31.3956 76.8062 31.3829 76.807 31.3711 76.807V76.8079Z" fill="#070706"/>
<path d="M34.7767 72.2148C34.4737 72.6198 33.947 72.5573 33.6002 72.0761C33.2524 71.5925 33.2195 70.8754 33.5217 70.4704C33.8247 70.0653 34.3513 70.1279 34.6982 70.6091C35.0425 71.0902 35.0788 71.8098 34.7767 72.2148Z" fill="#070706"/>
<path d="M29.7689 73.6211C29.4659 74.0261 28.9392 73.9635 28.5924 73.4824C28.2446 72.9987 28.2117 72.2817 28.5139 71.8766C28.8169 71.4716 29.3435 71.5342 29.6904 72.0153C30.0347 72.4964 30.071 73.216 29.7689 73.6211Z" fill="#070706"/>
<path d="M34.9479 68.5817C35.2669 69.0721 34.3689 68.8987 33.66 69.3139C32.9265 69.7401 32.8742 70.3345 32.578 70.2813C32.3012 70.2863 31.9965 69.5532 32.6438 68.6882C33.2945 67.7944 34.6559 68.0574 34.9479 68.5817Z" fill="#070706"/>
<path d="M29.7831 69.8344C30.141 70.384 29.1341 70.1895 28.3391 70.6554C27.5162 71.1332 27.4579 71.8003 27.1254 71.7403C26.8148 71.7454 26.4739 70.9243 27.1988 69.9544C27.9289 68.9524 29.4548 69.2475 29.7823 69.8352L29.7831 69.8344Z" fill="#070706"/>
<path d="M38.2232 117.663C38.111 117.663 38.0165 117.576 38.008 117.462C37.6595 112.698 36.0888 108.052 33.5847 104.378C33.5172 104.279 33.5425 104.145 33.6413 104.077C33.74 104.009 33.8742 104.035 33.9417 104.134C36.488 107.869 38.0857 112.592 38.4393 117.43C38.4477 117.55 38.3583 117.654 38.2393 117.662C38.2342 117.662 38.2283 117.662 38.2232 117.662V117.663Z" fill="#070706"/>
<path d="M41.0302 114.606C45.9286 113.264 50.6288 132.576 44.5741 132.862C37.0398 135.49 36.6406 118.077 36.6406 118.077L41.0302 114.606Z" fill="#070706"/>
<path d="M35.6766 117.625C35.6766 117.625 56.3145 108.457 57.5957 111.001C58.876 113.544 50.7839 117.213 50.7839 117.213C50.7839 117.213 52.9538 118.649 51.7654 120.278C51.7654 120.278 53.8611 121.517 52.6812 123.052C52.6812 123.052 54.8274 124.764 51.5722 127.135C48.3161 129.505 39.6628 131.355 39.6628 131.355L35.6758 117.626L35.6766 117.625Z" fill="#FC9FAD"/>
<path d="M47.3329 118.515C47.24 118.515 47.154 118.454 47.1261 118.361C47.0924 118.246 47.1573 118.126 47.2713 118.092L50.6691 117.08C50.7831 117.045 50.9038 117.111 50.9375 117.225C50.9713 117.34 50.9063 117.46 50.7924 117.494L47.3945 118.506C47.3742 118.512 47.3531 118.515 47.3329 118.515Z" fill="#070706"/>
<path d="M48.478 121.818C48.3911 121.818 48.3092 121.766 48.2763 121.68C48.2332 121.568 48.2889 121.443 48.4003 121.4L51.7712 120.1C51.8826 120.058 52.0075 120.113 52.0506 120.224C52.0936 120.336 52.0379 120.461 51.9265 120.504L48.5556 121.804C48.5303 121.813 48.5041 121.818 48.478 121.818Z" fill="#070706"/>
<path d="M49.8146 124.524C49.7243 124.524 49.6399 124.466 49.6095 124.375C49.5724 124.262 49.6332 124.139 49.7471 124.102L52.566 123.167C52.6782 123.129 52.8015 123.191 52.8386 123.305C52.8757 123.419 52.815 123.541 52.701 123.578L49.8821 124.513C49.8593 124.52 49.8366 124.524 49.8146 124.524Z" fill="#070706"/>
<path d="M9.18608 140.076C18.8345 144.335 44.5734 132.863 44.5734 132.863C39.8235 127.88 37.6705 122.097 41.0295 114.607L18.8336 124.396L12.7755 90.5391C12.7755 90.5391 5.01343 93.3219 1.82656 104.253C-2.40854 118.776 0.997766 136.459 9.18608 140.076V140.076Z" fill="#FFB839"/>
<path d="M14.214 141.231C14.1516 141.231 14.0891 141.204 14.0461 141.152C13.971 141.059 13.9853 140.922 14.0773 140.847C15.226 139.912 15.8843 138.525 15.8843 137.04C15.8843 134.336 13.6891 132.136 10.99 132.136C8.29098 132.136 6.09241 134.336 6.09241 137.04C6.09241 137.235 6.10338 137.427 6.12532 137.613C6.13883 137.732 6.05443 137.839 5.93627 137.853C5.81389 137.868 5.71008 137.782 5.69658 137.664C5.67295 137.462 5.66113 137.252 5.66113 137.04C5.66113 134.098 8.05213 131.703 10.9909 131.703C13.9296 131.703 16.3172 134.097 16.3172 137.04C16.3172 138.655 15.6007 140.166 14.3508 141.183C14.3111 141.216 14.263 141.231 14.2149 141.231H14.214Z" fill="white"/>
<path d="M14.7867 141.248C12.6025 141.248 10.6529 140.96 9.09914 140.274C6.51403 139.133 4.33065 136.592 2.78447 132.926C2.73805 132.816 2.78954 132.689 2.89925 132.642C3.00897 132.596 3.13641 132.647 3.18199 132.757C4.68512 136.32 6.7917 138.782 9.27385 139.878C18.1863 143.811 41.3857 134.009 44.2062 132.787C39.0124 127.221 37.8646 121.558 40.6117 115.028L18.9214 124.594C18.8615 124.621 18.7914 124.618 18.7332 124.587C18.675 124.556 18.6336 124.499 18.6218 124.434L16.1979 110.887C16.1768 110.77 16.2553 110.657 16.3726 110.636C16.4907 110.616 16.6021 110.693 16.6232 110.811L18.999 124.087L40.9434 114.409C41.0244 114.373 41.1206 114.39 41.1839 114.455C41.2472 114.518 41.2641 114.614 41.2278 114.696C38.2427 121.349 39.3559 127.075 44.7304 132.713C44.7793 132.764 44.7996 132.836 44.7861 132.905C44.7726 132.974 44.7261 133.032 44.662 133.061C43.7775 133.455 26.1349 141.249 14.7876 141.249L14.7867 141.248Z" fill="#070706"/>
<path d="M24.4619 95.3343C24.4619 95.3343 27.3804 98.9805 30.5166 96.798C33.0933 95.0046 27.4901 89.9844 27.4901 89.9844C28.3544 92.7477 27.3272 94.4465 24.4619 95.3343Z" fill="white"/>
<path d="M52.9602 147.785H30.2031C30.2031 145.621 31.9535 143.867 34.1133 143.867H52.9602V147.785Z" fill="#070706"/>
<path d="M52.9605 147.999H30.2034C30.0844 147.999 29.9873 147.902 29.9873 147.782C29.9873 145.503 31.8382 143.648 34.1135 143.648H52.9605C53.0795 143.648 53.1765 143.746 53.1765 143.865V147.782C53.1765 147.902 53.0795 147.999 52.9605 147.999ZM30.4245 147.566H52.7436V144.081H34.1127C32.1479 144.081 30.5367 145.625 30.4245 147.566Z" fill="#070706"/>
<path d="M68.9237 147.787H41.6504L49.6108 129.047C50.3814 127.232 52.5074 125.945 54.7338 125.945H76.6258C78.2707 125.945 79.2953 127.223 78.7265 128.564L71.1273 146.452C70.7956 147.234 69.8807 147.787 68.9228 147.787L68.9237 147.787Z" fill="white"/>
<path d="M68.9233 148.002H41.6501C41.5775 148.002 41.51 147.965 41.4694 147.904C41.4298 147.844 41.4222 147.767 41.4509 147.7L49.4113 128.96C50.2199 127.057 52.4091 125.727 54.7335 125.727H76.6255C77.548 125.727 78.3557 126.115 78.7844 126.764C79.1482 127.315 79.1988 128.001 78.9253 128.646L71.3261 146.535C70.959 147.398 69.9707 148.001 68.9225 148.001L68.9233 148.002ZM41.9775 147.569H68.9233C69.7893 147.569 70.6332 147.063 70.9295 146.365L78.5287 128.477C78.7481 127.961 78.7118 127.437 78.4257 127.003C78.0771 126.475 77.4045 126.159 76.6272 126.159H54.7351C52.6125 126.159 50.5414 127.408 49.8105 129.13L41.9775 147.569Z" fill="#070706"/>
<path d="M56.3055 125.945C54.0782 125.945 51.9539 127.234 51.1825 129.049L43.2213 147.788H41.6506L49.6119 129.049C50.3833 127.234 52.5101 125.945 54.7349 125.945H56.3055Z" fill="#070706"/>
<path d="M43.2209 148.003H41.6503C41.5777 148.003 41.5102 147.967 41.4697 147.906C41.43 147.845 41.4224 147.769 41.4511 147.701L49.4124 128.962C50.2217 127.058 52.4102 125.727 54.7345 125.727H56.3052C56.4242 125.727 56.5212 125.824 56.5212 125.943C56.5212 126.062 56.4242 126.159 56.3052 126.159C54.1496 126.159 52.1241 127.381 51.3805 129.131L43.4193 147.871C43.3855 147.95 43.307 148.003 43.2201 148.003L43.2209 148.003ZM41.9769 147.57H43.0783L50.983 128.963C51.4945 127.759 52.5562 126.785 53.8551 126.231C52.0625 126.518 50.4395 127.65 49.8099 129.133L41.9769 147.57Z" fill="#070706"/>
<path d="M64.2455 137.374C64.1206 138.707 62.9415 139.787 61.6114 139.787C60.2813 139.787 59.3048 138.706 59.4297 137.373C59.5546 136.041 60.7337 134.961 62.0638 134.961C63.3939 134.961 64.3704 136.042 64.2455 137.374Z" fill="#CCCED6"/>
<path d="M96.8006 41.4531H75.0512C74.6821 41.4531 74.3828 41.753 74.3828 42.1228V62.8234C74.3828 63.1933 74.6821 63.4931 75.0512 63.4931H96.8006C97.1698 63.4931 97.4691 63.1933 97.4691 62.8234V42.1228C97.4691 41.753 97.1698 41.4531 96.8006 41.4531Z" fill="#789AFE"/>
<path d="M95.1863 63.7073H76.666C75.2878 63.7073 74.167 62.5844 74.167 61.2036V43.7381C74.167 42.3573 75.2878 41.2344 76.666 41.2344H95.1863C96.5646 41.2344 97.6854 42.3573 97.6854 43.7381V61.2036C97.6854 62.5844 96.5646 63.7073 95.1863 63.7073ZM76.666 41.6682C75.5266 41.6682 74.5991 42.5974 74.5991 43.739V61.2044C74.5991 62.3459 75.5258 63.2752 76.666 63.2752H95.1863C96.3257 63.2752 97.2533 62.3459 97.2533 61.2044V43.739C97.2533 42.5974 96.3266 41.6682 95.1863 41.6682H76.666Z" fill="#070706"/>
<path d="M85.9257 50.9866C87.4057 50.9866 88.6054 49.7846 88.6054 48.3019C88.6054 46.8192 87.4057 45.6172 85.9257 45.6172C84.4458 45.6172 83.2461 46.8192 83.2461 48.3019C83.2461 49.7846 84.4458 50.9866 85.9257 50.9866Z" fill="white"/>
<path d="M93.162 59.0467C92.8751 55.2932 89.7456 52.3362 85.9258 52.3362C82.1059 52.3362 78.9764 55.2932 78.6895 59.0467H93.162Z" fill="white"/>
<path d="M85.9567 73.4072L78.2146 81.1639C78.1026 81.2762 78.1026 81.4582 78.2146 81.5705L85.9567 89.3272C86.0688 89.4395 86.2505 89.4395 86.3625 89.3272L94.1046 81.5705C94.2167 81.4582 94.2167 81.2762 94.1046 81.1639L86.3625 73.4071C86.2505 73.2949 86.0688 73.2949 85.9567 73.4072Z" fill="#CCCED6"/>
<path d="M86.1601 89.3366C85.841 89.3366 85.5406 89.2122 85.3144 88.9856L78.5516 82.21C78.0857 81.7433 78.0857 80.9831 78.5516 80.5163L85.3144 73.7407C85.7811 73.2739 86.539 73.2739 87.0049 73.7407L93.7677 80.5163C93.9939 80.7429 94.118 81.0431 94.118 81.3636C94.118 81.6841 93.9939 81.9842 93.7677 82.21L87.0049 88.9856C86.7795 89.2122 86.4791 89.3366 86.1601 89.3366ZM86.1601 73.8227C85.9642 73.8227 85.7693 73.8971 85.6199 74.0468L78.8571 80.8224C78.56 81.1209 78.56 81.6054 78.8571 81.9039L85.6199 88.6795C85.9085 88.9679 86.4107 88.9687 86.6994 88.6795L93.4622 81.9039C93.6065 81.7593 93.6858 81.5674 93.6858 81.3636C93.6858 81.1598 93.6065 80.967 93.4622 80.8224L86.6994 74.0468C86.5508 73.898 86.355 73.8236 86.1601 73.8236V73.8227Z" fill="#070706"/>
<path d="M86.1599 71.6912C86.0004 71.6912 85.8721 71.5618 85.8721 71.4029V66.4368C85.8721 66.277 86.0012 66.1484 86.1599 66.1484C86.3185 66.1484 86.4477 66.2778 86.4477 66.4368V71.4029C86.4477 71.5627 86.3185 71.6912 86.1599 71.6912Z" fill="#070706"/>
<path d="M86.1602 71.8307C86.0834 71.8307 86.0108 71.8002 85.9568 71.7461L84.6359 70.4228C84.5237 70.3103 84.5237 70.1277 84.6359 70.0144C84.7482 69.901 84.9305 69.9019 85.0436 70.0144L86.161 71.1339L87.2785 70.0144C87.3907 69.9019 87.573 69.9019 87.6861 70.0144C87.7992 70.1268 87.7983 70.3095 87.6861 70.4228L86.3653 71.7461C86.3112 71.8002 86.2378 71.8307 86.1619 71.8307H86.1602Z" fill="#070706"/>
<path d="M86.1599 96.4412C86.0004 96.4412 85.8721 96.3118 85.8721 96.1529V91.1868C85.8721 91.027 86.0012 90.8984 86.1599 90.8984C86.3185 90.8984 86.4477 91.0278 86.4477 91.1868V96.1529C86.4477 96.3127 86.3185 96.4412 86.1599 96.4412Z" fill="#070706"/>
<path d="M86.1602 96.5885C86.0834 96.5885 86.0108 96.558 85.9568 96.5039L84.6359 95.1806C84.5237 95.0681 84.5237 94.8855 84.6359 94.7722C84.7482 94.6589 84.9305 94.6597 85.0436 94.7722L86.161 95.8917L87.2785 94.7722C87.3907 94.6597 87.573 94.6597 87.6861 94.7722C87.7992 94.8846 87.7983 95.0673 87.6861 95.1806L86.3653 96.5039C86.3112 96.558 86.2378 96.5885 86.1619 96.5885H86.1602Z" fill="#070706"/>
<path d="M111.971 94.0279C111.812 94.0279 111.683 93.8985 111.683 93.7395V56.4148C111.683 54.5825 110.196 53.0926 108.367 53.0926H104.002C103.842 53.0926 103.714 52.9632 103.714 52.8042C103.714 52.6452 103.843 52.5159 104.002 52.5159H108.367C110.514 52.5159 112.26 54.2654 112.26 56.4157V93.7404C112.26 93.9002 112.131 94.0287 111.972 94.0287L111.971 94.0279Z" fill="#070706"/>
<path d="M111.971 94.0684C111.894 94.0684 111.821 94.038 111.767 93.9839L110.187 92.3993C110.074 92.2868 110.074 92.1033 110.187 91.9908C110.299 91.8784 110.481 91.8784 110.594 91.9908L111.972 93.3708L113.35 91.9908C113.462 91.8784 113.644 91.8784 113.757 91.9908C113.871 92.1033 113.87 92.2868 113.757 92.3993L112.176 93.9839C112.122 94.038 112.048 94.0684 111.972 94.0684H111.971Z" fill="#070706"/>
<path d="M59.8493 94.0285C59.6898 94.0285 59.5615 93.8991 59.5615 93.7401V56.4154C59.5615 54.2651 61.3077 52.5156 63.454 52.5156H67.8199C67.9794 52.5156 68.1077 52.645 68.1077 52.804C68.1077 52.9629 67.9786 53.0923 67.8199 53.0923H63.454C61.6259 53.0923 60.138 54.5831 60.138 56.4146V93.7393C60.138 93.8991 60.0088 94.0276 59.8502 94.0276L59.8493 94.0285Z" fill="#070706"/>
<path d="M59.8497 94.0685C59.7763 94.0685 59.702 94.0406 59.6463 93.9839L58.0647 92.3993C57.9524 92.2869 57.9524 92.1042 58.0647 91.9909C58.1769 91.8776 58.3592 91.8785 58.4723 91.9909L59.8505 93.3709L61.2279 91.9909C61.3402 91.8785 61.5224 91.8785 61.6355 91.9909C61.7478 92.1034 61.7478 92.286 61.6355 92.3993L60.0539 93.9839C59.9974 94.0406 59.9239 94.0685 59.8505 94.0685H59.8497Z" fill="#070706"/>
<path d="M85.9258 137.335C87.8485 137.335 89.4072 135.774 89.4072 133.847C89.4072 131.921 87.8485 130.359 85.9258 130.359C84.003 130.359 82.4443 131.921 82.4443 133.847C82.4443 135.774 84.003 137.335 85.9258 137.335Z" fill="#789AFE"/>
<path d="M85.926 137.55C83.8869 137.55 82.2285 135.888 82.2285 133.845C82.2285 131.802 83.8869 130.141 85.926 130.141C87.9651 130.141 89.6243 131.802 89.6243 133.845C89.6243 135.888 87.9659 137.55 85.926 137.55ZM85.926 130.574C84.1258 130.574 82.6606 132.041 82.6606 133.845C82.6606 135.649 84.1258 137.117 85.926 137.117C87.7262 137.117 89.1922 135.649 89.1922 133.845C89.1922 132.041 87.7271 130.574 85.926 130.574Z" fill="#070706"/>
<path d="M147.797 46.5912C147.469 45.3406 146.972 44.1576 146.338 43.066L147.367 41.2827L142.96 36.8671L141.182 37.8978C140.089 37.2594 138.909 36.7614 137.658 36.4307L137.126 34.4453H130.898L130.366 36.4307C129.115 36.7614 127.934 37.2594 126.844 37.8953L125.064 36.8671L120.657 41.2827L121.688 43.066C121.051 44.1585 120.557 45.3414 120.226 46.5912L118.242 47.1214V53.3677L120.226 53.8979C120.556 55.1485 121.051 56.334 121.688 57.4265L120.657 59.2098L125.064 63.6229L126.842 62.5946C127.934 63.2331 129.119 63.7311 130.369 64.0617L130.899 66.0471H137.127L137.656 64.0617C138.907 63.7336 140.091 63.2331 141.184 62.5946L142.962 63.6229L147.369 59.2098L146.34 57.4265C146.974 56.334 147.471 55.1485 147.801 53.8979L149.785 53.3677V47.1214L147.798 46.5912H147.797ZM134.013 58.1562C129.651 58.1562 126.118 54.6158 126.118 50.2458C126.118 45.8758 129.652 42.3329 134.013 42.3329C138.374 42.3329 141.907 45.8758 141.907 50.2458C141.907 54.6158 138.374 58.1562 134.013 58.1562Z" fill="#34CEC3"/>
<path d="M137.126 66.2605H130.897C130.799 66.2605 130.714 66.1945 130.689 66.0998L130.192 64.2353C129.025 63.9157 127.899 63.4472 126.84 62.8418L125.172 63.8075C125.087 63.8565 124.98 63.843 124.911 63.7728L120.503 59.3597C120.434 59.2904 120.42 59.183 120.47 59.0984L121.439 57.4233C120.839 56.3731 120.372 55.2468 120.051 54.0723L118.187 53.5743C118.092 53.5489 118.026 53.4635 118.026 53.3654V47.1191C118.026 47.021 118.092 46.9348 118.187 46.9102L120.051 46.4122C120.372 45.2411 120.838 44.1156 121.439 43.0637L120.47 41.3886C120.421 41.3041 120.434 41.1967 120.503 41.1273L124.911 36.7117C124.98 36.6424 125.087 36.6289 125.172 36.6771L126.843 37.6427C127.903 37.0373 129.027 36.5705 130.189 36.2517L130.689 34.3872C130.714 34.2925 130.8 34.2266 130.897 34.2266H137.126C137.224 34.2266 137.309 34.2925 137.334 34.3872L137.834 36.2517C138.997 36.5705 140.122 37.039 141.182 37.6452L142.85 36.6771C142.935 36.628 143.042 36.6415 143.111 36.7117L147.518 41.1273C147.588 41.1967 147.602 41.3041 147.553 41.3886L146.587 43.0637C147.191 44.1258 147.657 45.2512 147.972 46.4122L149.839 46.9102C149.933 46.9356 149.999 47.021 149.999 47.1191V53.3654C149.999 53.4635 149.933 53.5497 149.839 53.5743L147.974 54.0723C147.655 55.2392 147.188 56.3655 146.587 57.4233L147.553 59.0984C147.602 59.1838 147.588 59.2904 147.518 59.3597L143.111 63.7728C143.042 63.8421 142.935 63.8565 142.85 63.8075L141.182 62.8418C140.116 63.4523 138.99 63.9208 137.83 64.2362L137.333 66.1007C137.308 66.1954 137.223 66.2613 137.125 66.2613L137.126 66.2605ZM131.063 65.8275H136.959L137.446 64.0028C137.466 63.9275 137.524 63.8692 137.6 63.8489C138.804 63.5335 139.972 63.0473 141.074 62.4038C141.141 62.3649 141.223 62.3649 141.291 62.4038L142.924 63.3491L147.096 59.1711L146.15 57.5316C146.112 57.4639 146.112 57.381 146.15 57.3142C146.785 56.2209 147.269 55.0523 147.589 53.8389C147.609 53.7637 147.668 53.7053 147.742 53.685L149.566 53.198V47.2848L147.739 46.7978C147.664 46.7775 147.605 46.7191 147.585 46.6439C147.269 45.4372 146.786 44.2695 146.149 43.1719C146.11 43.1051 146.11 43.0223 146.149 42.9546L147.095 41.315L142.922 37.1345L141.289 38.0816C141.222 38.1205 141.139 38.1205 141.072 38.0816C139.977 37.4423 138.81 36.9569 137.601 36.6373C137.526 36.6179 137.467 36.5587 137.447 36.4843L136.959 34.6595H131.062L130.573 36.4843C130.553 36.5595 130.495 36.6179 130.419 36.6373C129.212 36.9569 128.045 37.4415 126.951 38.079C126.884 38.1179 126.801 38.1179 126.735 38.079L125.098 37.1337L120.925 41.3142L121.873 42.9538C121.912 43.0214 121.912 43.1043 121.873 43.1719C121.24 44.2577 120.756 45.4254 120.434 46.6439C120.415 46.7191 120.356 46.7775 120.281 46.7978L118.458 47.2848V53.198L120.281 53.685C120.357 53.7053 120.415 53.7637 120.434 53.8389C120.757 55.0608 121.241 56.2294 121.873 57.3134C121.912 57.3811 121.913 57.4639 121.873 57.5316L120.925 59.1711L125.098 63.3491L126.731 62.4038C126.799 62.3649 126.881 62.3649 126.948 62.4038C128.041 63.0422 129.209 63.5284 130.422 63.8489C130.497 63.8692 130.555 63.9275 130.576 64.0028L131.062 65.8275H131.063ZM134.013 58.3695C129.541 58.3695 125.902 54.7242 125.902 50.2427C125.902 45.7611 129.541 42.1133 134.013 42.1133C138.485 42.1133 142.124 45.7603 142.124 50.2427C142.124 54.7251 138.485 58.3695 134.013 58.3695ZM134.013 42.5471C129.779 42.5471 126.335 45.9996 126.335 50.2435C126.335 54.4875 129.78 57.9374 134.013 57.9374C138.246 57.9374 141.692 54.4858 141.692 50.2435C141.692 46.0012 138.246 42.5471 134.013 42.5471Z" fill="#070706"/>
<path d="M122.883 23.5894C122.652 22.7049 122.3 21.8686 121.851 21.0958L122.579 19.835L119.462 16.7123L118.205 17.4412C117.432 16.9896 116.598 16.6379 115.713 16.4037L115.337 15H110.932L110.556 16.4037C109.671 16.6379 108.836 16.9896 108.065 17.4386L106.807 16.7115L103.69 19.8342L104.419 21.0949C103.968 21.8669 103.619 22.7041 103.386 23.5885L101.982 23.9631V28.3804L103.386 28.755C103.62 29.6395 103.969 30.4775 104.419 31.2503L103.69 32.5111L106.807 35.6321L108.063 34.9049C108.836 35.3565 109.674 35.7082 110.558 35.9425L110.932 37.3461H115.337L115.711 35.9425C116.595 35.7108 117.432 35.3565 118.205 34.9049L119.462 35.6321L122.579 32.5111L121.851 31.2503C122.3 30.4783 122.652 29.6395 122.884 28.755L124.288 28.3804V23.9631L122.883 23.5885V23.5894ZM113.136 31.767C110.051 31.767 107.553 29.2632 107.553 26.1735C107.553 23.0837 110.052 20.5783 113.136 20.5783C116.22 20.5783 118.719 23.0837 118.719 26.1735C118.719 29.2632 116.22 31.767 113.136 31.767Z" fill="#FF571C"/>
<path d="M115.337 37.5611H110.932C110.834 37.5611 110.749 37.4952 110.724 37.4005L110.382 36.1169C109.576 35.8928 108.798 35.569 108.065 35.1529L106.916 35.8176C106.831 35.8666 106.724 35.8522 106.655 35.7829L103.538 32.6619C103.469 32.5925 103.455 32.4851 103.504 32.4006L104.171 31.2481C103.759 30.52 103.436 29.7412 103.212 28.9303L101.928 28.5879C101.833 28.5625 101.768 28.4771 101.768 28.379V23.9617C101.768 23.8636 101.833 23.7774 101.928 23.7528L103.212 23.4104C103.436 22.6012 103.759 21.8232 104.171 21.0943L103.504 19.9418C103.456 19.8573 103.469 19.7499 103.538 19.6805L106.655 16.5578C106.724 16.4885 106.831 16.4749 106.916 16.5231L108.067 17.1878C108.8 16.7717 109.578 16.4487 110.381 16.2255L110.725 14.9419C110.75 14.8472 110.836 14.7812 110.933 14.7812H115.338C115.436 14.7812 115.521 14.8472 115.546 14.9419L115.89 16.2255C116.693 16.4487 117.472 16.7726 118.206 17.1895L119.354 16.5231C119.439 16.4741 119.546 16.4885 119.615 16.5578L122.732 19.6805C122.801 19.7499 122.816 19.8573 122.767 19.9418L122.102 21.0952C122.517 21.8308 122.839 22.6088 123.06 23.4112L124.345 23.7537C124.439 23.7791 124.505 23.8645 124.505 23.9625V28.3799C124.505 28.4779 124.439 28.5642 124.345 28.5887L123.062 28.9312C122.838 29.7379 122.516 30.5158 122.102 31.2489L122.767 32.4023C122.816 32.4877 122.801 32.5942 122.732 32.6636L119.615 35.7846C119.546 35.8539 119.439 35.8683 119.354 35.8193L118.206 35.1546C117.467 35.574 116.689 35.8979 115.888 36.1186L115.546 37.4022C115.521 37.4969 115.436 37.5628 115.338 37.5628L115.337 37.5611ZM111.099 37.1282H115.171L115.503 35.8852C115.523 35.81 115.581 35.7516 115.657 35.7313C116.503 35.5098 117.323 35.1682 118.097 34.7166C118.164 34.6777 118.246 34.6777 118.314 34.7166L119.427 35.361L122.309 32.475L121.664 31.358C121.626 31.2903 121.626 31.2075 121.664 31.1407C122.11 30.3729 122.45 29.551 122.676 28.6986C122.696 28.6234 122.755 28.565 122.829 28.5447L124.072 28.2124V24.1283L122.827 23.796C122.752 23.7757 122.693 23.7173 122.674 23.6421C122.452 22.7948 122.113 21.9737 121.664 21.2026C121.626 21.1358 121.626 21.0529 121.664 20.9853L122.309 19.8683L119.427 16.9806L118.314 17.6258C118.246 17.6647 118.164 17.6647 118.097 17.6258C117.328 17.1768 116.508 16.8352 115.658 16.6102C115.583 16.5908 115.524 16.5316 115.504 16.4572L115.171 15.2133H111.098L110.764 16.4572C110.744 16.5324 110.686 16.5908 110.611 16.6102C109.763 16.8343 108.942 17.1751 108.173 17.6232C108.107 17.6621 108.024 17.663 107.957 17.6232L106.842 16.9789L103.96 19.8666L104.607 20.9836C104.646 21.0512 104.646 21.1341 104.607 21.2017C104.162 21.9644 103.822 22.7855 103.596 23.6412C103.576 23.7165 103.517 23.7748 103.443 23.7951L102.2 24.1274V28.2116L103.443 28.5439C103.518 28.5642 103.576 28.6225 103.596 28.6978C103.823 29.5561 104.163 30.378 104.607 31.139C104.646 31.2066 104.646 31.2895 104.607 31.3571L103.961 32.4741L106.843 35.3601L107.956 34.7158C108.024 34.6769 108.106 34.6769 108.173 34.7158C108.941 35.1639 109.763 35.5055 110.614 35.7313C110.689 35.7508 110.748 35.81 110.768 35.8852L111.099 37.1282H111.099ZM113.136 31.9803C109.938 31.9803 107.337 29.3743 107.337 26.1704C107.337 22.9665 109.938 20.3587 113.136 20.3587C116.334 20.3587 118.935 22.9656 118.935 26.1704C118.935 29.3751 116.334 31.9803 113.136 31.9803ZM113.136 20.7916C110.176 20.7916 107.769 23.2049 107.769 26.1704C107.769 29.1358 110.177 31.5474 113.136 31.5474C116.095 31.5474 118.503 29.135 118.503 26.1704C118.503 23.2058 116.095 20.7916 113.136 20.7916Z" fill="#070706"/>
<path d="M24.7738 41.4457V51.0659H11.4491C6.14885 51.0659 1.84961 46.7594 1.84961 41.4457C1.84961 38.7889 2.924 36.3866 4.6626 34.6464C6.39867 32.9045 8.7998 31.8281 11.4491 31.8281H15.1744C20.4771 31.8281 24.7738 36.1347 24.7738 41.4449V41.4457Z" fill="white"/>
<path d="M24.7741 51.2801H11.4493C6.03684 51.2801 1.63379 46.8678 1.63379 41.4435C1.63379 38.8162 2.65501 36.3472 4.51008 34.4911C6.36177 32.6334 8.8262 31.6094 11.4493 31.6094H15.1746C20.5871 31.6094 24.9901 36.0208 24.9901 41.4426V51.0628C24.9901 51.182 24.8931 51.2792 24.7741 51.2792V51.2801ZM11.4493 32.0432C8.94267 32.0432 6.58627 33.0215 4.8156 34.7981C3.04239 36.5721 2.06591 38.9321 2.06591 41.4443C2.06591 46.6294 6.27484 50.848 11.4493 50.848H24.558V41.4443C24.558 36.2609 20.3491 32.044 15.1746 32.044H11.4493V32.0432Z" fill="#070706"/>
<path d="M7.91649 42.7122C8.82122 42.7122 9.55466 41.9774 9.55466 41.071C9.55466 40.1645 8.82122 39.4297 7.91649 39.4297C7.01175 39.4297 6.27832 40.1645 6.27832 41.071C6.27832 41.9774 7.01175 42.7122 7.91649 42.7122Z" fill="#FF571C"/>
<path d="M13.0024 42.7122C13.9072 42.7122 14.6406 41.9774 14.6406 41.071C14.6406 40.1645 13.9072 39.4297 13.0024 39.4297C12.0977 39.4297 11.3643 40.1645 11.3643 41.071C11.3643 41.9774 12.0977 42.7122 13.0024 42.7122Z" fill="#789AFE"/>
<path d="M18.0884 42.7122C18.9931 42.7122 19.7265 41.9774 19.7265 41.071C19.7265 40.1645 18.9931 39.4297 18.0884 39.4297C17.1836 39.4297 16.4502 40.1645 16.4502 41.071C16.4502 41.9774 17.1836 42.7122 18.0884 42.7122Z" fill="#FFB839"/>
<path d="M8.67276 115.818C6.95188 115.818 5.55087 114.415 5.55087 112.69C5.55087 110.965 6.95104 109.562 8.67276 109.562C10.3945 109.562 11.7946 110.965 11.7946 112.69C11.7946 114.415 10.3945 115.818 8.67276 115.818ZM8.67276 109.996C7.18989 109.996 5.98299 111.205 5.98299 112.69C5.98299 114.176 7.18989 115.384 8.67276 115.384C10.1556 115.384 11.3617 114.176 11.3617 112.69C11.3617 111.205 10.1556 109.996 8.67276 109.996Z" fill="white"/>
<path d="M25.3602 130.594C24.3693 130.594 23.5625 129.786 23.5625 128.793C23.5625 127.801 24.3685 126.992 25.3602 126.992C26.3519 126.992 27.1579 127.8 27.1579 128.793C27.1579 129.787 26.3519 130.594 25.3602 130.594ZM25.3602 127.425C24.6074 127.425 23.9946 128.039 23.9946 128.793C23.9946 129.548 24.6074 130.161 25.3602 130.161C26.113 130.161 26.7257 129.548 26.7257 128.793C26.7257 128.039 26.113 127.425 25.3602 127.425Z" fill="white"/>
<path d="M35.7127 126.839C34.5184 126.839 33.5479 125.865 33.5479 124.669C33.5479 123.472 34.5193 122.5 35.7127 122.5C36.9061 122.5 37.8783 123.473 37.8783 124.669C37.8783 125.865 36.9069 126.839 35.7127 126.839ZM35.7127 122.933C34.7573 122.933 33.98 123.712 33.98 124.669C33.98 125.626 34.7573 126.406 35.7127 126.406C36.6681 126.406 37.4462 125.627 37.4462 124.669C37.4462 123.711 36.6689 122.933 35.7127 122.933Z" fill="white"/>
<path d="M25.3479 109.442C23.8608 109.442 22.6514 108.231 22.6514 106.741C22.6514 105.251 23.8608 104.039 25.3479 104.039C26.835 104.039 28.0444 105.251 28.0444 106.741C28.0444 108.231 26.835 109.442 25.3479 109.442ZM25.3479 104.472C24.0996 104.472 23.0835 105.49 23.0835 106.741C23.0835 107.991 24.0988 109.009 25.3479 109.009C26.597 109.009 27.6123 107.991 27.6123 106.741C27.6123 105.49 26.597 104.472 25.3479 104.472Z" fill="white"/>
<path d="M36.2928 102.299C35.058 102.299 34.0537 101.293 34.0537 100.056C34.0537 98.8187 35.058 97.8125 36.2928 97.8125C37.5275 97.8125 38.5319 98.8187 38.5319 100.056C38.5319 101.293 37.5275 102.299 36.2928 102.299ZM36.2928 98.2454C35.2969 98.2454 34.4858 99.0572 34.4858 100.056C34.4858 101.054 35.2961 101.866 36.2928 101.866C37.2895 101.866 38.0998 101.054 38.0998 100.056C38.0998 99.0572 37.2895 98.2454 36.2928 98.2454Z" fill="white"/>
<path d="M10.1155 99.7121C9.44449 99.7121 8.89844 99.165 8.89844 98.4928C8.89844 97.8205 9.44449 97.2734 10.1155 97.2734C10.7864 97.2734 11.3325 97.8205 11.3325 98.4928C11.3325 99.165 10.7864 99.7121 10.1155 99.7121ZM10.1155 97.7064C9.6825 97.7064 9.33056 98.059 9.33056 98.4928C9.33056 98.9265 9.6825 99.2791 10.1155 99.2791C10.5484 99.2791 10.9004 98.9265 10.9004 98.4928C10.9004 98.059 10.5484 97.7064 10.1155 97.7064Z" fill="white"/>
</g>
<defs>
<clipPath id="clip0_206_1139">
<rect width="150" height="148" fill="white"/>
</clipPath>
</defs>
</svg>
