<svg width="140" height="152" viewBox="0 0 140 152" fill="none" xmlns="http://www.w3.org/2000/svg">
<g clip-path="url(#clip0_206_984)">
<path d="M0.147659 108.693V141.305C0.147659 143.594 1.99026 145.449 4.26515 145.449H39.7576C41.5194 145.449 43.0251 144.335 43.6095 142.768C43.1326 142.963 42.6109 143.071 42.0652 143.071H6.57356C4.29867 143.071 2.45607 141.215 2.45607 138.927V106.314C2.45607 105.801 2.54889 105.305 2.72163 104.852C1.21334 105.465 0.148519 106.953 0.148519 108.692L0.147659 108.693Z" fill="#C5CDE3"/>
<path d="M0.149483 108.695V141.308C0.149483 143.597 1.99209 145.452 4.26698 145.452H39.7594C42.0343 145.452 43.8769 143.597 43.8769 141.308V108.695C43.8769 106.407 42.0343 104.551 39.7594 104.551H4.26698C1.99209 104.551 0.149483 106.407 0.149483 108.695Z" fill="white"/>
<path d="M0 141.304V108.691C0 106.324 1.91394 104.397 4.26704 104.397H39.7595C42.1117 104.397 44.0257 106.324 44.0257 108.691V141.304C44.0257 143.672 42.1117 145.598 39.7595 145.598H4.26704C1.91479 145.598 0 143.671 0 141.304ZM4.26704 104.698C2.07894 104.698 0.29822 106.489 0.29822 108.691V141.304C0.29822 143.506 2.07808 145.297 4.26704 145.297H39.7595C41.9476 145.297 43.7274 143.506 43.7274 141.304V108.691C43.7274 106.489 41.9476 104.698 39.7595 104.698H4.26704Z" fill="black"/>
<path d="M90.1356 147L81.6934 143.611L79.3283 141.958L70.8303 144.286L71.6296 151.116C71.5987 151.481 71.9038 151.777 72.2578 151.735L90.7758 149.557C91.0869 149.521 91.3095 149.237 91.2734 148.923L91.1952 148.247C91.1256 147.65 90.7105 147.161 90.1356 147Z" fill="black"/>
<path d="M79.3288 141.96L77.6159 134.099L69.4531 138.948L70.8308 144.289C74.5134 145.367 77.6262 144.481 79.3288 141.96Z" fill="#FFCFC5"/>
<path d="M82.4803 146.23C82.9177 145.112 83.9172 144.884 83.9593 144.875L83.8983 144.582C83.8493 144.592 82.7011 144.848 82.2035 146.12L82.4811 146.23H82.4803Z" fill="white"/>
<path d="M84.3241 146.999C84.7616 145.882 85.7611 145.653 85.8032 145.645L85.7422 145.351C85.6932 145.362 84.545 145.618 84.0474 146.889L84.325 146.999H84.3241Z" fill="white"/>
<path d="M41.8186 85.6759C41.8186 85.6759 54.3704 86.8763 59.2726 91.0815C64.1747 95.2867 80.0345 135.88 80.0345 135.88L67.8144 140.98L45.765 100.739L41.8177 85.6759H41.8186Z" fill="#454BA1"/>
<path d="M57.358 149.347L50.0211 143.948L48.1398 141.752L39.3333 141.875L38.4172 148.69C38.2968 149.035 38.5194 149.398 38.8727 149.447L57.346 151.985C57.6562 152.028 57.9424 151.809 57.9845 151.496L58.0756 150.821C58.1564 150.226 57.8745 149.648 57.358 149.347Z" fill="black"/>
<path d="M48.1396 141.755L49.225 133.909L40.1065 136.13L39.3331 141.878C42.6333 143.845 45.8673 143.768 48.1396 141.755Z" fill="#FFCFC5"/>
<path d="M50.1357 146.68C50.8396 145.703 51.8923 145.74 51.9035 145.74L51.9173 145.44C51.8666 145.437 50.6917 145.398 49.8951 146.504L50.1365 146.68H50.1357Z" fill="white"/>
<path d="M51.7325 147.89C52.4355 146.913 53.4883 146.948 53.4995 146.949L53.5132 146.65C53.4617 146.646 52.2877 146.607 51.491 147.714L51.7325 147.891V147.89Z" fill="white"/>
<path d="M6.62251 83.5387C13.6835 82.5495 18.0571 82.4942 23.3357 85.5457C31.7778 84.0831 53.2084 85.6747 55.0072 91.3252C57.1875 98.1708 52.0129 141.238 52.0129 141.238L37.6271 137.524L38.1908 104.849L17.5844 104.592C10.3533 104.292 4.81944 98.0003 5.39611 90.7367L6.62165 83.5379L6.62251 83.5387Z" fill="#454BA1"/>
<path d="M54.8355 114.58C56.3395 104.987 56.208 94.5986 55.1501 91.2761L54.8656 91.3679C55.7715 94.2109 56.1762 104.096 54.5408 114.532L54.8355 114.579V114.58Z" fill="white"/>
<path d="M57.1469 61.964C57.1469 61.964 41.0946 77.1794 37.375 76.4048C33.8445 75.6726 28.113 63.1765 28.113 63.1765L37.3948 61.7744L40.0238 65.54L53.5657 56.5748L57.1469 61.9631V61.964Z" fill="#FFCFC5"/>
<path d="M41.0613 61.4601L37.6262 64.1612L35.5378 65.6056L34.7858 66.1249L32.7713 67.5157L32.1542 67.9415L26.837 54.9459L26.8456 50.2725C26.8456 50.2725 30.6287 50.1159 33.6436 52.752C35.8446 54.6733 41.0613 61.461 41.0613 61.461V61.4601Z" fill="#FF4149"/>
<path d="M35.5371 65.6063L34.7851 66.1255L32.7706 67.5154L31.747 59.3604L35.5371 65.6063Z" fill="black"/>
<path d="M30.2858 51.539C27.9954 48.3715 13.4883 51.3079 9.01074 54.6667C3.5766 58.743 4.05874 89.0362 4.05874 89.0362C14.9047 89.0379 22.1032 89.809 31.2431 84.4684C31.2431 84.4684 35.1604 58.2808 30.2866 51.5399L30.2858 51.539Z" fill="#FF4149"/>
<path d="M30.7604 29.9229C30.7604 29.9229 30.8712 34.4795 28.0128 35.4272C25.1544 36.3748 24.1145 33.621 24.1145 33.621L25.1621 30.0268L27.7902 29.7827" fill="black"/>
<path d="M16.0305 49.2661L18.0871 52.7314L23.1087 52.7971L25.9044 53.1753L24.7184 48.8931L24.6892 47.8052L24.6161 44.9276L15.7254 40.2577C15.7907 40.6298 15.8474 41.0011 15.8956 41.3646C16.4894 45.6996 16.0305 49.2652 16.0305 49.2652V49.2661Z" fill="#FFCFC5"/>
<path d="M15.7254 40.2577C15.7907 40.6298 15.8474 41.0011 15.8956 41.3646C15.9497 41.3681 16.0013 41.3698 16.0528 41.3689C16.1663 41.5853 16.2548 41.8389 16.3227 42.1227C17.7975 45.8762 21.7542 48.0251 24.69 47.8052L24.617 44.9276L15.7263 40.2577H15.7254Z" fill="#FC9B88"/>
<path d="M16.0298 49.2666C17.0722 51.2286 20.4042 52.0906 23.108 52.7968C23.108 52.7968 22.7487 57.5351 21.9581 57.5913C21.2301 57.6441 14.4046 55.8431 14.1622 52.2031C15.136 51.3567 15.3233 50.4047 16.0298 49.2666Z" fill="#F23142"/>
<path d="M23.1091 52.7967C23.1091 52.7967 24.9251 56.204 25.9839 56.4022C27.1888 56.6272 27.8084 53.2251 27.4776 51.4856L24.7188 48.8927C25.048 50.0827 25.5671 51.1178 23.1091 52.7959V52.7967Z" fill="#F23142"/>
<path d="M24.2854 46.7425C21.3273 47.1518 17.129 44.9839 15.5975 41.092C15.5322 40.809 15.4437 40.5554 15.3294 40.339C14.6255 40.3477 13.834 39.9807 13.2255 39.3031C12.2612 38.2274 12.1194 36.7613 12.9204 36.0421C13.3759 35.6276 14.0247 35.5401 14.6891 35.7513C14.7828 31.5193 16.8058 28.1025 19.7751 27.6196C21.757 27.2968 23.7422 28.3431 25.2677 30.254C25.4516 30.4833 25.6304 30.7265 25.7997 30.9818C26.7709 32.4349 27.4953 34.2723 27.8176 36.3216C28.6865 41.7013 27.3939 46.3106 24.2845 46.7425H24.2854Z" fill="#FFCFC5"/>
<path d="M9.78784 41.5068C10.3671 42.6198 11.5118 43.3606 12.7253 43.6696C14.0214 43.9941 15.1945 44.6527 16.4097 44.0919L16.2567 43.8851C16.1819 42.8569 15.7935 41.898 15.595 41.0888C15.5331 40.8075 15.4446 40.5522 15.3294 40.3359C14.6264 40.3454 13.834 39.9767 13.2255 39.3017C12.263 38.2207 12.122 36.7581 12.9204 36.0381C13.3768 35.6235 14.0265 35.537 14.6874 35.749C14.6874 35.749 16.1983 36.3834 16.2223 37.7127L17.2442 38.0035L17.5871 35.569C17.5871 35.569 19.1633 34.2726 18.315 32.977C18.315 32.977 30.9202 35.6426 30.7715 30.1591C30.6228 24.6756 25.0847 26.8115 25.0847 26.8115C25.0847 26.8115 25.5264 25.9894 25.8169 24.9768C26.4022 22.9716 26.4056 20.2194 21.2371 21.6717C15.3028 23.3402 13.6037 28.2335 13.1301 30.4559C12.3429 30.2915 11.3778 30.6186 10.8355 31.1968C10.123 31.9618 10.1101 33.2808 10.8097 34.0562C10.3731 33.543 9.52313 33.5499 8.99115 33.9584C8.46261 34.3669 8.21939 35.0714 8.20908 35.7447C8.18759 36.9762 8.88802 38.193 9.9537 38.7893C9.07366 39.6816 9.21374 40.3939 9.79041 41.5068H9.78784Z" fill="black"/>
<path d="M25.5389 37.2816L26.6922 40.5712L25.0542 40.9225L25.5389 37.2816Z" fill="#FC9B88"/>
<path d="M16.2303 63.8986L14.7959 75.5873L26.3242 77.2974L10.6827 80.0409C10.6827 80.0409 9.648 78.0486 9.53112 77.8954C9.41424 77.7422 12.1532 67.8952 12.1532 67.8952L16.2303 63.8977V63.8986Z" fill="black"/>
<path d="M26.3236 77.2933L26.6785 83.2631C26.6785 83.2631 5.95011 87.1196 2.96877 83.3938C-0.0409322 79.6343 4.69621 65.5397 4.69621 65.5397L13.7975 67.3389L11.4951 77.3409L26.3227 77.2933H26.3236Z" fill="#FFCFC5"/>
<path d="M11.4374 53.3674C4.90497 54.7339 2.23216 69.6343 2.23216 69.6343C5.90104 72.2038 11.147 72.679 14.7952 71.3843C14.7952 71.3843 16.3336 64.5559 16.7994 59.5718C17.205 55.2324 13.1924 52.9996 11.4366 53.3665L11.4374 53.3674Z" fill="#FF4149"/>
<path d="M34.9604 78.1509C35.1056 78.8744 34.1388 79.1678 33.4177 79.1989C34.2823 79.2794 35.7407 79.9363 35.7046 80.3119C35.6092 81.3132 33.5707 80.7541 32.9725 80.6477C33.5509 80.7671 35.1812 81.5694 35.0669 81.8991C34.8564 82.511 33.135 82.1527 32.3606 82.048C33.0353 82.1579 33.8809 83.1038 33.6833 83.3331C32.9648 84.1674 25.7327 83.2405 25.6399 83.045C24.6129 82.974 24.9962 77.3746 26.0224 77.4464C26.0224 77.4464 30.1863 75.3053 31.2365 76.0106C32.2867 76.7151 29.6199 77.809 29.6199 77.809C29.6199 77.809 34.7696 77.198 34.9604 78.15V78.1509Z" fill="#FFCFC5"/>
<path d="M52.9184 57.9386C52.9184 57.9386 55.409 51.787 56.6044 51.5836C57.5249 51.4279 57.347 54.2137 57.347 54.2137C57.347 54.2137 64.0926 48.3538 64.7956 49.1863C65.4986 50.018 61.541 52.9744 61.541 52.9744C61.541 52.9744 62.5344 52.5936 62.7734 53.286C63.0054 53.9593 62.3944 54.3037 62.3944 54.3037C62.3944 54.3037 63.063 54.0242 63.436 54.5028C63.8133 54.9874 63.1661 55.6261 63.1661 55.6261C63.1661 55.6261 63.8949 55.6988 63.778 56.4786C63.6156 57.5552 58.9292 61.062 58.2442 61.4359C57.5593 61.8097 56.8399 62.1949 56.8399 62.1949L52.9192 57.9395L52.9184 57.9386Z" fill="#FFCFC5"/>
<path d="M59.3773 56.5757C60.1989 56.5757 62.2924 54.6189 62.5331 54.3922L62.3294 54.1732C61.4399 55.0136 59.8491 56.3273 59.3601 56.2745C59.318 56.2702 59.3068 56.2538 59.3016 56.2468C59.2191 56.1266 59.1942 55.9924 59.2243 55.834C59.3695 55.0638 60.7051 54.1499 60.7188 54.1412L60.5521 53.892C60.4928 53.9318 59.0997 54.8846 58.9312 55.7778C58.8865 56.0149 58.9286 56.2304 59.0558 56.4173C59.1169 56.5074 59.2114 56.561 59.3283 56.574C59.3446 56.5757 59.3609 56.5766 59.3781 56.5766L59.3773 56.5757Z" fill="#FFB29F"/>
<path d="M60.2342 57.7907C61.2173 57.7907 63.029 55.8477 63.237 55.6201L63.0178 55.4167C62.4652 56.0191 60.8865 57.5631 60.1903 57.4878C60.0958 57.4774 60.0288 57.4324 59.9798 57.3476C59.7615 56.9659 60.2488 56.3419 60.455 56.1333L60.2445 55.9213C60.2075 55.9585 59.3447 56.8404 59.7219 57.4973C59.8173 57.6652 59.9686 57.7647 60.1577 57.7863C60.1826 57.7889 60.2084 57.7907 60.2342 57.7907Z" fill="#FFB29F"/>
<path d="M60.55 58.9492C61.3226 58.9492 62.6822 58.0621 62.8472 57.9531L62.6831 57.7021C62.2284 58.0041 60.9367 58.7614 60.4391 58.6377C60.3583 58.6177 60.3291 58.5788 60.3136 58.552C60.244 58.4273 60.2277 58.3053 60.2638 58.179C60.3472 57.8838 60.6978 57.6346 60.8259 57.5636L60.6815 57.3005C60.6583 57.3135 60.1117 57.6225 59.9776 58.0967C59.92 58.3019 59.945 58.5044 60.0541 58.6991C60.1194 58.8159 60.2277 58.8956 60.3695 58.9302C60.4254 58.944 60.4864 58.9501 60.5508 58.9501L60.55 58.9492Z" fill="#FFB29F"/>
<path d="M56.1686 57.2903C57.7396 56.5876 57.5058 54.2968 57.4947 54.1998L57.1982 54.2327C57.2008 54.2544 57.4182 56.4024 56.0474 57.016L56.1686 57.2903Z" fill="#FFB29F"/>
<path d="M41.1172 88.4798L41.1198 88.4833L23.652 88.2678C22.7814 88.2583 22.0853 87.5391 22.0948 86.6598C22.0999 86.2427 22.2641 85.8688 22.5245 85.5892C22.7909 85.3071 23.1544 85.1228 23.5661 85.0933L33.0687 84.4607L42.7888 83.8142L41.1164 88.4807L41.1172 88.4798Z" fill="white"/>
<path d="M41.1173 88.6362L23.6504 88.4207C23.1897 88.4155 22.7583 88.2303 22.4369 87.898C22.1154 87.5657 21.941 87.126 21.9453 86.6613C21.9504 86.2251 22.118 85.8088 22.4162 85.4886C22.7179 85.1701 23.1218 84.978 23.5558 84.9468L42.7794 83.6677C42.8344 83.666 42.8782 83.6867 42.9083 83.7274C42.9384 83.7681 42.9461 83.8209 42.9298 83.8685L41.2668 88.5073C41.2642 88.5237 41.2599 88.5402 41.2513 88.5557C41.2256 88.6059 41.1749 88.6371 41.119 88.6371H41.1173V88.6362ZM23.5765 85.2463C23.2172 85.2722 22.882 85.4315 22.6328 85.6954C22.3862 85.9603 22.2478 86.3047 22.2435 86.6647C22.2392 87.0499 22.3836 87.4133 22.65 87.6886C22.9164 87.9638 23.2722 88.117 23.6538 88.1213L41.0116 88.3351L42.5723 83.9819L23.5773 85.2463H23.5765Z" fill="black"/>
<path d="M43.5086 83.8213L41.8362 88.4869L33.1242 88.3805L33.7877 84.4669L43.5086 83.8213Z" fill="black"/>
<path d="M56.48 88.6679L34.2355 88.3961L37.4162 69.6662C37.5916 68.632 38.4879 67.8799 39.5304 67.8929L59.7303 68.1395C61.0323 68.1551 62.0121 69.3399 61.7929 70.632L59.1038 86.4662C58.8855 87.7497 57.7734 88.6826 56.4808 88.667L56.48 88.6679Z" fill="white"/>
<path d="M56.4786 88.8214L34.2342 88.5497C34.1903 88.5497 34.1491 88.5298 34.1216 88.4952C34.0932 88.4614 34.082 88.4173 34.0889 88.374L37.2696 69.6449C37.457 68.5406 38.3938 67.7461 39.5041 67.7461C39.5136 67.7461 39.523 67.7461 39.5325 67.7461L59.7324 67.9927C60.3967 68.0005 61.0215 68.3008 61.4469 68.8141C61.8723 69.3281 62.052 70.0014 61.9402 70.6609L59.2511 86.4951C59.0216 87.8478 57.8734 88.8214 56.5138 88.8214C56.5018 88.8214 56.4906 88.8214 56.4786 88.8214ZM37.5636 69.6951L34.4129 88.2511L56.4829 88.5203C56.4932 88.5203 56.5035 88.5203 56.5138 88.5203C57.7273 88.5203 58.7518 87.6514 58.9572 86.4441L61.6463 70.6099C61.7434 70.0369 61.5879 69.4528 61.2183 69.0062C60.8488 68.5596 60.3065 68.2991 59.7289 68.2922L39.5291 68.0455C39.5205 68.0455 39.5127 68.0455 39.5041 68.0455C38.5407 68.0455 37.7269 68.7353 37.5636 69.6942V69.6951Z" fill="black"/>
<path d="M39.7924 67.8954C39.232 68.2191 38.8221 68.7808 38.7052 69.4567L35.4875 88.4108L34.2362 88.3961L37.4178 69.6687C37.5931 68.6337 38.4904 67.8807 39.5311 67.8928L39.7932 67.8946L39.7924 67.8954Z" fill="black"/>
<path d="M51.4773 78.3288C51.4601 79.7481 50.3051 80.8836 48.8982 80.8663C48.1316 80.8567 47.4484 80.5062 46.9911 79.961C47.2137 80.019 47.4466 80.0493 47.6873 80.0519C49.3795 80.0726 50.7709 78.7078 50.7915 77.0012C50.7932 76.8359 50.7829 76.6714 50.7597 76.5131C51.2109 76.983 51.4859 77.6243 51.4773 78.3288Z" fill="#C5CDE3"/>
<path d="M53.7638 140.218C53.6324 140.885 53.2456 141.449 52.754 141.797C52.3045 142.116 51.7579 142.26 51.2311 142.153C46.6023 141.209 41.9983 140.204 37.4176 139.138C36.4705 138.917 35.8036 137.985 35.9042 136.884C35.9738 136.121 36.364 135.481 36.8899 135.108C37.3257 134.798 37.8645 134.668 38.3888 134.79C43.0021 135.864 47.6387 136.875 52.3002 137.828C53.3092 138.034 53.989 139.074 53.763 140.218H53.7638Z" fill="#242B2B"/>
<path d="M53.1997 135.111L43.2733 135.865L52.6917 137.886L53.1997 135.111Z" fill="black"/>
<path d="M81.9051 134.451C82.1371 135.089 82.0976 135.774 81.857 136.329C81.637 136.836 81.2442 137.245 80.7389 137.429C76.2965 139.043 71.8438 140.591 67.3791 142.075C66.4561 142.382 65.4059 141.934 64.9229 140.941C64.5886 140.252 64.592 139.501 64.849 138.908C65.0621 138.414 65.4549 138.022 65.9662 137.852C70.4627 136.356 74.9472 134.798 79.4222 133.173C80.3899 132.822 81.508 133.355 81.9042 134.45L81.9051 134.451Z" fill="#242B2B"/>
<path d="M77.5661 129.452L70.2352 136.41L79.0571 133.304L77.5661 129.452Z" fill="black"/>
<path d="M138.699 11.3671V101.779C138.699 107.979 133.71 113.002 127.554 113.002H80.1563C74.0037 113.002 69.0147 107.979 69.0147 101.783V11.3697C69.0147 5.17052 74.0037 0.146606 80.1597 0.146606H87.8223C89.1837 0.146606 90.4281 0.917719 91.0426 2.14232L91.5024 3.05624C92.1169 4.28084 93.3613 5.05195 94.7227 5.05195H112.993C114.354 5.05195 115.599 4.28084 116.213 3.05624L116.673 2.14232C117.288 0.917719 118.531 0.146606 119.893 0.146606H127.559C133.711 0.146606 138.7 5.17052 138.7 11.3662L138.699 11.3671Z" fill="#242B2B"/>
<path d="M127.555 113.155H80.1572C73.9316 113.155 68.8661 108.054 68.8661 101.785V11.3728C68.8661 5.1018 73.9324 0 80.1598 0H87.8224C89.2474 0 90.5331 0.79621 91.1759 2.07794L91.6357 2.99185C92.2278 4.17232 93.4104 4.90535 94.7228 4.90535H112.993C114.306 4.90535 115.488 4.17232 116.08 2.99185L116.54 2.07794C117.183 0.79621 118.468 0 119.893 0H127.558C133.784 0 138.849 5.10094 138.849 11.3702V101.783C138.849 108.054 133.783 113.155 127.555 113.155ZM80.1598 0.30031C74.0966 0.30031 69.1644 5.26797 69.1644 11.3728V101.785C69.1644 107.889 74.0957 112.855 80.1572 112.855H127.555C133.619 112.855 138.551 107.887 138.551 101.783V11.3702C138.551 5.26624 133.619 0.30031 127.558 0.30031H119.893C118.58 0.30031 117.398 1.03334 116.806 2.21381L116.346 3.12772C115.703 4.40945 114.418 5.20566 112.992 5.20566H94.7219C93.297 5.20566 92.0113 4.40945 91.3684 3.12772L90.9086 2.21381C90.3165 1.03334 89.1339 0.30031 87.8216 0.30031H80.159H80.1598Z" fill="black"/>
<path d="M139.85 11.3671V101.779C139.85 107.979 134.861 113.002 128.705 113.002H81.3074C75.1548 113.002 70.1658 107.979 70.1658 101.783V11.3697C70.1658 5.17052 75.1548 0.146606 81.3108 0.146606H88.9734C90.3347 0.146606 91.5792 0.917719 92.1937 2.14232L92.6535 3.05624C93.2679 4.28084 94.5124 5.05195 95.8737 5.05195H114.144C115.506 5.05195 116.75 4.28084 117.364 3.05624L117.824 2.14232C118.439 0.917719 119.682 0.146606 121.044 0.146606H128.71C134.862 0.146606 139.851 5.17052 139.851 11.3662L139.85 11.3671Z" fill="white"/>
<path d="M128.705 113.155H81.3074C75.0818 113.155 70.0163 108.054 70.0163 101.785V11.3728C70.0172 5.1018 75.0835 0 81.3109 0H88.9735C90.3984 0 91.6841 0.79621 92.327 2.07794L92.7867 2.99185C93.3789 4.17232 94.5615 4.90535 95.8738 4.90535H114.144C115.457 4.90535 116.639 4.17232 117.231 2.99185L117.691 2.07794C118.334 0.79621 119.619 0 121.044 0H128.709C134.935 0 140 5.10094 140 11.3702V101.783C140 108.054 134.934 113.155 128.706 113.155H128.705ZM81.3109 0.30031C75.2476 0.30031 70.3154 5.26797 70.3154 11.3728V101.785C70.3154 107.889 75.2468 112.855 81.3083 112.855H128.706C134.77 112.855 139.702 107.887 139.702 101.783V11.3702C139.702 5.26624 134.77 0.30031 128.709 0.30031H121.044C119.731 0.30031 118.549 1.03334 117.957 2.21381L117.497 3.12772C116.854 4.40945 115.569 5.20566 114.143 5.20566H95.8729C94.448 5.20566 93.1632 4.40945 92.5203 3.12772L92.0605 2.21381C91.4684 1.03334 90.2858 0.30031 88.9735 0.30031H81.3109Z" fill="black"/>
<path d="M132.796 13.4509H77.2215V48.7005H132.796V13.4509Z" fill="white"/>
<path d="M132.797 48.8542H77.2225C77.14 48.8542 77.0738 48.7867 77.0738 48.7045V13.454C77.0738 13.371 77.1409 13.3043 77.2225 13.3043H132.797C132.88 13.3043 132.946 13.3718 132.946 13.454V48.7037C132.946 48.7867 132.879 48.8534 132.797 48.8534V48.8542ZM77.3712 48.5539H132.648V13.6046H77.3712V48.5548V48.5539Z" fill="black"/>
<path d="M127.847 17.6511H82.1716V44.4938H127.847V17.6511Z" fill="#007AFD"/>
<path d="M79.0134 29.2697H75.4305V32.8725H79.0134V29.2697Z" fill="white"/>
<path d="M79.0137 33.0253H75.4308C75.3483 33.0253 75.2821 32.9578 75.2821 32.8756V29.2728C75.2821 29.1897 75.3492 29.123 75.4308 29.123H79.0137C79.0963 29.123 79.1624 29.1905 79.1624 29.2728V32.8756C79.1624 32.9587 79.0954 33.0253 79.0137 33.0253ZM75.5795 32.725H78.8642V29.4225H75.5795V32.725Z" fill="black"/>
<path d="M75.4565 29.2436L75.394 32.8468L78.9781 32.9098L79.0406 29.3066L75.4565 29.2436Z" fill="white"/>
<path d="M78.9816 33.061H78.979L75.3952 32.9978C75.3127 32.996 75.2474 32.9277 75.2491 32.8446L75.3119 29.2417C75.3119 29.2019 75.329 29.1639 75.3574 29.1362C75.3858 29.1085 75.4279 29.0955 75.4631 29.0938L79.0469 29.1569C79.1294 29.1587 79.1947 29.227 79.193 29.3101L79.1303 32.913C79.1303 32.9528 79.1131 32.9909 79.0847 33.0185C79.0572 33.0454 79.0194 33.061 78.9816 33.061ZM75.5499 32.7001L78.8355 32.758L78.8931 29.4555L75.6075 29.3975L75.5499 32.7001Z" fill="black"/>
<path d="M106.797 46.8915H103.219V50.4943H106.797V46.8915Z" fill="white"/>
<path d="M106.797 50.6472H103.219C103.137 50.6472 103.07 50.5797 103.07 50.4975V46.8946C103.07 46.8115 103.137 46.7449 103.219 46.7449H106.797C106.879 46.7449 106.946 46.8124 106.946 46.8946V50.4975C106.946 50.5805 106.879 50.6472 106.797 50.6472ZM103.368 50.3469H106.647V47.0443H103.368V50.3469Z" fill="black"/>
<path d="M79.0117 11.6477H75.4305V15.2506H79.0117V11.6477Z" fill="white"/>
<path d="M79.012 15.4034H75.4308C75.3483 15.4034 75.2821 15.3359 75.2821 15.2537V11.6508C75.2821 11.5677 75.3492 11.5011 75.4308 11.5011H79.012C79.0945 11.5011 79.1607 11.5686 79.1607 11.6508V15.2537C79.1607 15.3368 79.0937 15.4034 79.012 15.4034ZM75.5804 15.1031H78.8633V11.8005H75.5804V15.1031Z" fill="black"/>
<path d="M134.585 29.2697H131.008V32.8725H134.585V29.2697Z" fill="white"/>
<path d="M134.585 33.0253H131.008C130.925 33.0253 130.859 32.9578 130.859 32.8756V29.2728C130.859 29.1897 130.926 29.123 131.008 29.123H134.585C134.668 29.123 134.734 29.1906 134.734 29.2728V32.8756C134.734 32.9587 134.667 33.0253 134.585 33.0253ZM131.156 32.725H134.436V29.4225H131.156V32.725Z" fill="black"/>
<path d="M134.585 46.8915H131.008V50.4943H134.585V46.8915Z" fill="white"/>
<path d="M134.585 50.6472H131.008C130.925 50.6472 130.859 50.5797 130.859 50.4975V46.8946C130.859 46.8115 130.926 46.7449 131.008 46.7449H134.585C134.668 46.7449 134.734 46.8124 134.734 46.8946V50.4975C134.734 50.5805 134.667 50.6472 134.585 50.6472ZM131.156 50.3469H134.436V47.0443H131.156V50.3469Z" fill="black"/>
<path d="M106.797 11.6477H103.219V15.2506H106.797V11.6477Z" fill="white"/>
<path d="M106.797 15.4034H103.219C103.137 15.4034 103.07 15.3359 103.07 15.2537V11.6508C103.07 11.5677 103.137 11.5011 103.219 11.5011H106.797C106.879 11.5011 106.946 11.5686 106.946 11.6508V15.2537C106.946 15.3368 106.879 15.4034 106.797 15.4034ZM103.368 15.1031H106.647V11.8005H103.368V15.1031Z" fill="black"/>
<path d="M79.011 46.8988H75.4332V50.4965H79.011V46.8988Z" fill="white"/>
<path d="M79.0111 50.6502H75.4333C75.3508 50.6502 75.2846 50.5827 75.2846 50.5004V46.9019C75.2846 46.8188 75.3517 46.7522 75.4333 46.7522H79.0111C79.0936 46.7522 79.1598 46.8197 79.1598 46.9019V50.5004C79.1598 50.5835 79.0927 50.6502 79.0111 50.6502ZM75.582 50.3499H78.8615V47.0516H75.582V50.3499Z" fill="black"/>
<path d="M134.585 11.6477H131.007V15.2506H134.585V11.6477Z" fill="white"/>
<path d="M134.585 15.4034H131.008C130.925 15.4034 130.859 15.3359 130.859 15.2537V11.6508C130.859 11.5677 130.926 11.5011 131.008 11.5011H134.585C134.668 11.5011 134.734 11.5686 134.734 11.6508V15.2537C134.734 15.3368 134.667 15.4034 134.585 15.4034ZM131.156 15.1031H134.436V11.8005H131.156V15.1031Z" fill="black"/>
<path d="M119.711 41.1403H89.7014C89.6894 41.1403 89.6808 41.1256 89.6868 41.1135L99.7111 25.9483C99.7171 25.9396 99.7291 25.9396 99.7352 25.9483L107.491 36.0489C107.497 36.0575 107.509 36.0575 107.515 36.0489L112.342 31.6083C112.348 31.5996 112.36 31.5996 112.366 31.6083L119.728 41.1143C119.734 41.1265 119.728 41.1412 119.713 41.1412L119.711 41.1403Z" fill="white"/>
<path d="M110.823 27.4484C110.823 28.6765 109.833 29.6735 108.61 29.6735C107.388 29.6735 106.401 28.6765 106.401 27.4484C106.401 26.2204 107.391 25.2234 108.61 25.2234C109.83 25.2234 110.823 26.2204 110.823 27.4484Z" fill="white"/>
<path d="M113.461 60.4582V70.7077C113.461 72.9206 111.678 74.7156 109.481 74.7156H81.5816C79.384 74.7156 77.6016 72.9198 77.6016 70.7077V60.4582C77.6016 58.2435 79.3849 56.4503 81.5816 56.4503H109.481C111.679 56.4503 113.461 58.2435 113.461 60.4582Z" fill="#C5CDE3"/>
<path d="M112.383 59.6079V69.8556C112.383 72.0703 110.599 73.8635 108.4 73.8635H80.5033C78.304 73.8635 76.5233 72.0703 76.5233 69.8556V59.6079C76.5233 57.3932 78.304 55.6 80.5033 55.6H108.4C110.599 55.6 112.383 57.3932 112.383 59.6079Z" fill="#FF4148"/>
<path d="M108.4 74.0107H80.5034C78.2267 74.0107 76.3738 72.1457 76.3738 69.8523V59.6045C76.3738 57.3119 78.2259 55.446 80.5034 55.446H108.4C110.679 55.446 112.531 57.3111 112.531 59.6045V69.8523C112.531 72.1448 110.679 74.0107 108.4 74.0107ZM80.5034 55.7472C78.3909 55.7472 76.672 57.4781 76.672 59.6054V69.8531C76.672 71.9804 78.3909 73.7113 80.5034 73.7113H108.4C110.514 73.7113 112.233 71.9804 112.233 69.8531V59.6054C112.233 57.4781 110.514 55.7472 108.4 55.7472H80.5034Z" fill="black"/>
<path d="M135.139 60.4582V70.7077C135.139 72.9206 133.356 74.7156 131.159 74.7156H120.981C118.784 74.7156 117.001 72.9198 117.001 70.7077V60.4582C117.001 58.2435 118.784 56.4503 120.981 56.4503H131.159C133.357 56.4503 135.139 58.2435 135.139 60.4582Z" fill="#C5CDE3"/>
<path d="M134.061 59.6079V69.8556C134.061 72.0703 132.278 73.8635 130.078 73.8635H119.902C117.703 73.8635 115.922 72.0703 115.922 69.8556V59.6079C115.922 57.3932 117.703 55.6 119.902 55.6H130.078C132.278 55.6 134.061 57.3932 134.061 59.6079Z" fill="white"/>
<path d="M130.079 74.0107H119.902C117.625 74.0107 115.773 72.1457 115.773 69.8523V59.6045C115.773 57.3119 117.625 55.446 119.902 55.446H130.079C132.357 55.446 134.21 57.3111 134.21 59.6045V69.8523C134.21 72.1448 132.357 74.0107 130.079 74.0107ZM119.902 55.7472C117.79 55.7472 116.071 57.4781 116.071 59.6054V69.8531C116.071 71.9804 117.79 73.7113 119.902 73.7113H130.079C132.192 73.7113 133.912 71.9804 133.912 69.8531V59.6054C133.912 57.4781 132.192 55.7472 130.079 55.7472H119.902Z" fill="black"/>
<path d="M130.572 58.7464L119.866 69.5273L120.077 69.7397L130.783 58.9588L130.572 58.7464Z" fill="black"/>
<path d="M120.078 58.7524L119.868 58.9647L130.573 69.7457L130.784 69.5333L120.078 58.7524Z" fill="black"/>
<path d="M91.0019 67.5453C91.0019 67.6873 90.9968 67.7989 90.9847 67.8794C90.9736 67.9599 90.9555 68.0179 90.9306 68.0525C90.9065 68.0871 90.8756 68.1027 90.8403 68.0983C90.8042 68.0949 90.7578 68.0793 90.7011 68.0525L86.3541 65.8508C86.3009 65.8205 86.2622 65.7556 86.2381 65.6578C86.2141 65.56 86.2012 65.4129 86.2012 65.2173C86.2012 65.1177 86.2046 65.0303 86.2123 64.955C86.2201 64.8797 86.2295 64.8183 86.2407 64.7707C86.2519 64.7231 86.2682 64.6842 86.2888 64.6556C86.3095 64.627 86.3335 64.6045 86.3602 64.589L90.7011 62.3994C90.8103 62.3457 90.8885 62.3561 90.9331 62.4314C90.9787 62.5067 91.001 62.659 91.001 62.8892C91.001 63.0467 90.9985 63.1714 90.9925 63.264C90.9873 63.3566 90.9761 63.4293 90.9615 63.4829C90.9469 63.5366 90.9254 63.5755 90.8988 63.598C90.8721 63.6214 90.836 63.6439 90.7914 63.6673L87.5273 65.2233L90.7295 66.7327C90.7862 66.7595 90.8326 66.7863 90.8687 66.8132C90.9048 66.84 90.9323 66.8815 90.9512 66.9369C90.9701 66.9923 90.983 67.0676 90.9907 67.1619C90.9976 67.2563 91.0019 67.3835 91.0019 67.5453Z" fill="white"/>
<path d="M93.025 70.0377C93.0061 70.0879 92.982 70.1278 92.9511 70.1589C92.921 70.1901 92.878 70.2143 92.8239 70.2342C92.7689 70.2532 92.701 70.268 92.6202 70.2775C92.5385 70.287 92.4363 70.2922 92.3117 70.2922C92.157 70.2922 92.0306 70.2844 91.9318 70.2688C91.8338 70.2532 91.7591 70.2307 91.7083 70.1996C91.6568 70.1684 91.6276 70.1295 91.6207 70.081C91.6129 70.0326 91.6207 69.9763 91.643 69.9114L95.0317 60.2357C95.0472 60.1855 95.0696 60.144 95.0996 60.1119C95.1297 60.0791 95.171 60.0531 95.2242 60.0341C95.2767 60.015 95.3463 60.0003 95.4314 59.9908C95.5165 59.9813 95.6196 59.9761 95.7399 59.9761C95.8989 59.9761 96.0261 59.9839 96.1223 59.9994C96.2186 60.015 96.2916 60.0375 96.3406 60.0687C96.3896 60.0998 96.418 60.1388 96.4257 60.1864C96.4335 60.2348 96.4274 60.2911 96.4085 60.3569L93.025 70.0386V70.0377Z" fill="white"/>
<path d="M101.968 65.2337C101.968 65.3341 101.965 65.4198 101.957 65.4933C101.949 65.566 101.939 65.6284 101.926 65.6777C101.912 65.7279 101.896 65.7668 101.875 65.7963C101.855 65.8248 101.831 65.8456 101.804 65.8568L97.4571 68.0464C97.4047 68.0732 97.3592 68.0854 97.3214 68.081C97.2835 68.0776 97.2526 68.0559 97.2277 68.0179C97.2036 67.9798 97.1864 67.9227 97.177 67.8482C97.1675 67.7729 97.1624 67.6786 97.1624 67.5626C97.1624 67.4051 97.1649 67.2805 97.171 67.1879C97.1761 67.0962 97.1873 67.0226 97.2019 66.9689C97.2165 66.9153 97.238 66.8755 97.2646 66.8504C97.2904 66.8253 97.3274 66.8036 97.3721 66.7837L100.637 65.2277L97.4348 63.7175C97.3746 63.6906 97.3257 63.6638 97.2904 63.637C97.2543 63.6101 97.2268 63.5686 97.2079 63.5132C97.189 63.4578 97.177 63.3825 97.171 63.2882C97.1649 63.1939 97.1624 63.0666 97.1624 62.9048C97.1624 62.7629 97.1667 62.6512 97.177 62.5707C97.1864 62.4902 97.2036 62.4323 97.2277 62.3976C97.2517 62.363 97.2835 62.3475 97.3214 62.3518C97.3592 62.3561 97.4047 62.3708 97.4571 62.3976L101.81 64.6045C101.859 64.6279 101.898 64.6893 101.926 64.7889C101.955 64.8884 101.968 65.0364 101.968 65.2328V65.2337Z" fill="white"/>
<path d="M81.8253 78.507H129.918C131.886 78.507 133.484 80.1167 133.484 82.0986V104.051C133.484 106.033 131.886 107.643 129.918 107.643H81.8253C79.8573 107.643 78.2587 106.033 78.2587 104.051V82.0986C78.2587 80.1167 79.8573 78.507 81.8253 78.507Z" fill="white"/>
<path d="M129.918 107.789H81.8254C79.7765 107.789 78.1093 106.11 78.1093 104.047V82.0944C78.1093 80.0311 79.7765 78.353 81.8254 78.353H129.918C131.967 78.353 133.633 80.0311 133.633 82.0944V104.047C133.633 106.11 131.966 107.789 129.918 107.789ZM81.8254 78.6533C79.9407 78.6533 78.4075 80.1973 78.4075 82.0944V104.047C78.4075 105.945 79.9407 107.489 81.8254 107.489H129.918C131.803 107.489 133.335 105.945 133.335 104.047V82.0944C133.335 80.1964 131.802 78.6533 129.918 78.6533H81.8254Z" fill="black"/>
<path d="M94.9778 88.6373H82.3202V89.5287H94.9778V88.6373Z" fill="#C5CDE3"/>
<path d="M113.75 88.6373H100.892V89.5287H113.75V88.6373Z" fill="#C5CDE3"/>
<path d="M129.565 88.6373H116.578V89.5287H129.565V88.6373Z" fill="#C5CDE3"/>
<path d="M93.8631 91.8627H82.3202V92.7541H93.8631V91.8627Z" fill="#C5CDE3"/>
<path d="M107.321 91.8627H99.7773V92.7541H107.321V91.8627Z" fill="#C5CDE3"/>
<path d="M85.5482 95.0953H82.3202V95.9867H85.5482V95.0953Z" fill="#C5CDE3"/>
<path d="M100.377 95.0953H92.4911V95.9867H100.377V95.0953Z" fill="#C5CDE3"/>
<path d="M129.565 95.0953H115.122V95.9867H129.565V95.0953Z" fill="#C5CDE3"/>
<path d="M113.75 95.0953H103.806V95.9867H113.75V95.0953Z" fill="#C5CDE3"/>
<path d="M85.5482 98.3206H82.3202V99.212H85.5482V98.3206Z" fill="#C5CDE3"/>
<path d="M111.692 98.3206H103.806V98.363H100.377V98.3206H92.4911V99.2111H111.692V98.3206Z" fill="#C5CDE3"/>
<path d="M129.565 98.3206H113.836V99.212H129.565V98.3206Z" fill="#C5CDE3"/>
<path d="M98.7486 101.553H92.4911V102.445H98.7486V101.553Z" fill="#C5CDE3"/>
<path d="M106.464 101.553H102.607V102.445H106.464V101.553Z" fill="#C5CDE3"/>
<path d="M114.35 101.553H109.55V102.445H114.35V101.553Z" fill="#C5CDE3"/>
<path d="M129.564 101.553H115.207V102.445H129.564V101.553Z" fill="#C5CDE3"/>
<path d="M85.5482 101.553H82.3202V102.445H85.5482V101.553Z" fill="#C5CDE3"/>
<path d="M85.0445 85.29C85.0445 85.3878 85.041 85.4639 85.0324 85.5193C85.0247 85.5747 85.0127 85.6145 84.9955 85.6379C84.9783 85.6613 84.9577 85.6725 84.9328 85.6699C84.9087 85.6673 84.8769 85.6569 84.8374 85.6379L81.8517 84.126C81.8156 84.1052 81.789 84.0602 81.7718 83.9935C81.7546 83.926 81.7469 83.8256 81.7469 83.6906C81.7469 83.6223 81.7495 83.5617 81.7546 83.5106C81.7598 83.4587 81.7666 83.4172 81.7744 83.3843C81.7821 83.3514 81.7933 83.3246 81.8079 83.3055C81.8216 83.2856 81.838 83.2709 81.8569 83.2596L84.8391 81.7555C84.9138 81.7183 84.9671 81.7261 84.9989 81.7771C85.0299 81.8282 85.0453 81.9338 85.0453 82.0922C85.0453 82.2003 85.0436 82.286 85.0393 82.3492C85.0359 82.4124 85.0281 82.4626 85.0178 82.4998C85.0075 82.537 84.9929 82.563 84.9749 82.5785C84.9568 82.5941 84.9319 82.6106 84.901 82.6261L82.6587 83.695L84.858 84.7318C84.8967 84.7499 84.9285 84.769 84.9534 84.7872C84.9783 84.8053 84.9964 84.8339 85.0101 84.872C85.023 84.9101 85.0324 84.962 85.0376 85.026C85.0428 85.0909 85.0453 85.1783 85.0453 85.2891L85.0445 85.29Z" fill="black"/>
<path d="M86.4345 87.0018C86.4216 87.0364 86.4044 87.0641 86.3838 87.0849C86.3631 87.1056 86.3339 87.1229 86.2961 87.1359C86.2583 87.1489 86.2119 87.1593 86.156 87.1654C86.1001 87.1714 86.0297 87.1749 85.9437 87.1749C85.8372 87.1749 85.7504 87.1697 85.6825 87.1593C85.6146 87.1489 85.5639 87.1325 85.5286 87.1117C85.4934 87.0909 85.4736 87.0632 85.4685 87.0303C85.4633 86.9975 85.4685 86.9585 85.4839 86.9135L87.8121 80.2677C87.8224 80.2331 87.8379 80.2054 87.8585 80.1829C87.8792 80.1604 87.9084 80.1423 87.9445 80.1293C87.9806 80.1163 88.0278 80.1059 88.0863 80.0999C88.1447 80.0938 88.2152 80.0903 88.2986 80.0903C88.4077 80.0903 88.4954 80.0955 88.5615 80.1059C88.6277 80.1163 88.6776 80.1319 88.7111 80.1535C88.7446 80.1743 88.7644 80.202 88.7695 80.2349C88.7747 80.2678 88.7704 80.3067 88.7575 80.3517L86.4336 87.0018H86.4345Z" fill="black"/>
<path d="M92.5765 83.7046C92.5765 83.773 92.5739 83.8327 92.5688 83.8829C92.5636 83.9331 92.5567 83.9755 92.5473 84.0093C92.5387 84.0439 92.5267 84.0707 92.5121 84.0906C92.4974 84.1105 92.4811 84.1244 92.4631 84.1321L89.4774 85.6363C89.4413 85.6545 89.4095 85.6623 89.3838 85.6597C89.358 85.6571 89.3365 85.6423 89.3193 85.6164C89.3021 85.5904 89.2909 85.5506 89.2841 85.4996C89.278 85.4476 89.2746 85.3827 89.2746 85.304C89.2746 85.1958 89.2763 85.1101 89.2806 85.0469C89.2841 84.9837 89.2918 84.9335 89.3021 84.8963C89.3124 84.8591 89.327 84.8323 89.3451 84.815C89.3631 84.7977 89.3881 84.783 89.419 84.7691L91.6612 83.7003L89.462 82.6635C89.4207 82.6453 89.3872 82.6263 89.3631 82.6081C89.3382 82.5899 89.3193 82.5614 89.3064 82.5233C89.2935 82.4852 89.2849 82.4333 89.2815 82.3684C89.2772 82.3035 89.2755 82.216 89.2755 82.1053C89.2755 82.0075 89.2789 81.9313 89.2849 81.8759C89.2909 81.8205 89.303 81.7807 89.3202 81.7574C89.3374 81.734 89.3588 81.7227 89.3846 81.7253C89.4104 81.7279 89.4413 81.7383 89.4783 81.7574L92.4682 83.2736C92.5017 83.2892 92.5284 83.3316 92.5482 83.4C92.5679 83.4683 92.5774 83.5705 92.5774 83.7046H92.5765Z" fill="black"/>
<path d="M56.1542 28.4979C60.7749 28.4979 64.5207 24.7259 64.5207 20.0728C64.5207 15.4198 60.7749 11.6477 56.1542 11.6477C51.5336 11.6477 47.7878 15.4198 47.7878 20.0728C47.7878 24.7259 51.5336 28.4979 56.1542 28.4979Z" fill="white"/>
<path d="M56.1534 28.6508C51.4584 28.6508 47.6383 24.8039 47.6383 20.0759C47.6383 15.348 51.4584 11.5011 56.1534 11.5011C60.8485 11.5011 64.6686 15.348 64.6686 20.0759C64.6686 24.8039 60.8485 28.6508 56.1534 28.6508ZM56.1534 11.8014C51.6226 11.8014 47.9365 15.5133 47.9365 20.0759C47.9365 24.6386 51.6226 28.3505 56.1534 28.3505C60.6843 28.3505 64.3704 24.6386 64.3704 20.0759C64.3704 15.5133 60.6843 11.8014 56.1534 11.8014Z" fill="#242B2B"/>
<path d="M56.1543 19.1301C57.2493 19.1301 58.137 18.2362 58.137 17.1335C58.137 16.0309 57.2493 15.137 56.1543 15.137C55.0593 15.137 54.1716 16.0309 54.1716 17.1335C54.1716 18.2362 55.0593 19.1301 56.1543 19.1301Z" fill="#04B5A4"/>
<path d="M59.5605 24.7681H52.7479C51.8653 24.7681 51.2662 23.8568 51.6126 23.0363C52.3629 21.2578 54.1126 20.0116 56.1555 20.0116C58.1983 20.0116 59.9447 21.2578 60.695 23.0363C61.0413 23.8576 60.4432 24.7681 59.5597 24.7681H59.5605Z" fill="#04B5A4"/>
</g>
<defs>
<clipPath id="clip0_206_984">
<rect width="140" height="152" fill="white"/>
</clipPath>
</defs>
</svg>
