<svg width="127" height="133" viewBox="0 0 127 133" fill="none" xmlns="http://www.w3.org/2000/svg">
<g clip-path="url(#clip0_343_62)">
<path d="M52.2557 104C45.2033 104 38.3606 102.627 31.9134 99.9126C25.6921 97.2947 20.1002 93.5446 15.3071 88.7666C10.506 83.9886 6.73772 78.4316 4.10719 72.2403C1.37982 65.8321 0 59.0225 0 51.996C0 44.9695 1.37982 38.1679 4.10719 31.7517C6.73772 25.5603 10.506 19.9954 15.3071 15.2254C20.1083 10.4474 25.6921 6.69724 31.9134 4.07938C38.3526 1.37318 45.1952 0 52.2557 0C59.3162 0 66.1507 1.37318 72.5979 4.08741C78.8192 6.70527 84.4111 10.4554 89.2042 15.2334L88.0665 16.3657C83.4186 11.7403 78.0043 8.10254 71.9686 5.56498C65.723 2.93908 59.0983 1.60605 52.2557 1.60605C45.4131 1.60605 38.7883 2.93908 32.5428 5.56498C26.5152 8.10254 21.1008 11.7403 16.4449 16.3657C11.7971 20.9911 8.14175 26.3794 5.59191 32.3861C2.9533 38.6015 1.61383 45.1944 1.61383 52.004C1.61383 58.8137 2.9533 65.4065 5.59191 71.622C8.14175 77.6206 11.7971 83.0089 16.4449 87.6424C21.0927 92.2678 26.5152 95.9055 32.5428 98.4431C38.7883 101.069 45.4131 102.402 52.2557 102.402C59.0983 102.402 65.723 101.069 71.9686 98.4431C77.9962 95.9055 83.4106 92.2678 88.0665 87.6424C92.7143 83.0169 96.3696 77.6206 98.9194 71.622C101.558 65.4065 102.898 58.8137 102.898 52.004V51.201H125.257V52.807H104.503C104.398 59.5444 103.027 66.0811 100.404 72.2483C97.7736 78.4397 94.0053 84.0046 89.2042 88.7746C84.4031 93.5526 78.8192 97.3028 72.5979 99.9206C66.1588 102.635 59.3162 104.008 52.2557 104.008V104Z" fill="#16CABD"/>
<path d="M119.899 58.567L118.802 57.3946L124.628 52.0063L118.802 46.6099L119.899 45.4375L127 52.0063L119.899 58.567Z" fill="#16CABD"/>
<g clip-path="url(#clip1_343_62)">
<g clip-path="url(#clip2_343_62)">
<path d="M95.8481 57.1531C99.4758 33.3424 83.0627 11.107 59.1885 7.48896C35.3142 3.87092 13.0195 20.2403 9.39176 44.051C5.76407 67.8617 22.1772 90.0971 46.0514 93.7151C69.9257 97.3331 92.2204 80.9637 95.8481 57.1531Z" fill="white"/>
<path d="M52.6144 14.9717C72.3076 14.9717 88.3372 30.9586 88.3372 50.5993C88.3372 70.24 72.3076 86.227 52.6144 86.227C32.9212 86.227 16.8916 70.24 16.8916 50.5993C16.8916 30.9586 32.908 14.9717 52.6144 14.9717ZM52.6144 11.3047C30.858 11.3047 13.2148 28.9009 13.2148 50.5993C13.2148 72.2978 30.858 89.894 52.6144 89.894C74.3708 89.894 92.0139 72.2978 92.0139 50.5993C92.0139 28.9009 74.3708 11.3047 52.6144 11.3047Z" fill="#16CABD"/>
<path d="M64.7556 50.2474C64.7556 49.878 64.7292 49.5087 64.7027 49.1394L68.234 47.3323C67.9827 46.066 67.5859 44.8656 67.0569 43.7312L63.1421 44.338C62.7585 43.7049 62.3353 43.1113 61.846 42.5573L63.6314 39.0222C62.7056 38.1648 61.6873 37.3998 60.5763 36.793L57.7592 39.5762C57.0847 39.286 56.3837 39.0618 55.6563 38.9035L55.0215 34.9991C54.3999 34.92 53.765 34.8672 53.1302 34.8672C52.4954 34.8672 51.8605 34.92 51.2389 34.9991L50.6041 38.9035C49.8767 39.0618 49.1757 39.286 48.5012 39.5762L45.6841 36.793C44.5731 37.413 43.5415 38.1648 42.6289 39.0222L44.4144 42.5573C43.9251 43.1113 43.4886 43.7049 43.1183 44.338L39.2035 43.7312C38.6744 44.8656 38.2644 46.066 38.0264 47.3323L41.5444 49.1394C41.5047 49.5087 41.4915 49.8648 41.4915 50.2474C41.4915 50.6299 41.518 50.986 41.5444 51.3554L38.0264 53.1625C38.2644 54.4288 38.6744 55.6291 39.2035 56.7635L43.1183 56.1699C43.5018 56.8031 43.9251 57.3966 44.4144 57.9506L42.6289 61.4857C43.5547 62.3431 44.5731 63.1081 45.6841 63.7149L48.5012 60.9317C49.1757 61.2219 49.8767 61.4461 50.6041 61.6044L51.2389 65.5088C51.8605 65.588 52.4954 65.6407 53.1302 65.6407C53.765 65.6407 54.3999 65.588 55.0215 65.5088L55.6563 61.6044C56.3837 61.4461 57.0847 61.2219 57.7592 60.9317L60.5763 63.7149C61.6873 63.095 62.7056 62.3431 63.6314 61.4857L61.846 57.9506C62.3353 57.3966 62.7718 56.8031 63.1421 56.1699L67.0569 56.7635C67.5859 55.6291 67.996 54.4288 68.234 53.1625L64.7027 51.3554C64.7424 50.9992 64.7556 50.6299 64.7556 50.2474ZM53.0905 57.5285C49.0567 57.5285 45.7899 54.2705 45.7899 50.2474C45.7899 46.2242 49.0567 42.9662 53.0905 42.9662C57.1244 42.9662 60.3911 46.2242 60.3911 50.2474C60.3911 54.2705 57.1244 57.5285 53.0905 57.5285Z" fill="#16CABD"/>
</g>
</g>
</g>
<g clip-path="url(#clip3_343_62)">
<path d="M34.9045 130.13C34.1247 129.924 33.4949 129.659 33 129.335L33.9448 127.244C34.4096 127.539 34.9345 127.774 35.5344 127.966C36.1342 128.142 36.7341 128.231 37.3189 128.231C38.4286 128.231 38.9835 127.966 38.9835 127.421C38.9835 127.141 38.8185 126.92 38.5036 126.788C38.1887 126.655 37.6788 126.508 36.974 126.346C36.2092 126.184 35.5644 126.008 35.0545 125.816C34.5446 125.625 34.0947 125.33 33.7198 124.918C33.3449 124.506 33.165 123.947 33.165 123.255C33.165 122.651 33.3299 122.092 33.6748 121.606C34.0197 121.12 34.5296 120.722 35.2044 120.443C35.8793 120.148 36.7041 120.016 37.6938 120.016C38.3687 120.016 39.0285 120.089 39.6733 120.236C40.3182 120.384 40.903 120.605 41.3979 120.884L40.5131 122.99C39.5384 122.474 38.5936 122.209 37.6788 122.209C37.109 122.209 36.6891 122.298 36.4191 122.46C36.1492 122.622 36.0292 122.842 36.0292 123.107C36.0292 123.372 36.1792 123.578 36.4941 123.711C36.809 123.843 37.3039 123.976 37.9938 124.123C38.7736 124.285 39.4184 124.462 39.9283 124.653C40.4381 124.845 40.888 125.139 41.2629 125.537C41.6378 125.949 41.8328 126.494 41.8328 127.186C41.8328 127.789 41.6678 128.334 41.3229 128.82C40.978 129.306 40.4681 129.703 39.7933 129.983C39.1185 130.277 38.2787 130.424 37.3189 130.424C36.4941 130.424 35.6843 130.321 34.9195 130.13H34.9045Z" fill="#16CABD"/>
<path d="M48.9114 129.907C48.6714 130.054 48.3865 130.157 48.0566 130.23C47.7267 130.304 47.3667 130.348 46.9918 130.348C45.9571 130.348 45.1623 130.098 44.6074 129.597C44.0526 129.097 43.7826 128.361 43.7826 127.374V124.768H42.6279V122.737H43.7826V120.734H46.5569V122.751H48.3715V124.783H46.5569V127.36C46.5569 127.639 46.6319 127.86 46.7819 128.007C46.9319 128.169 47.1268 128.243 47.3817 128.243C47.6967 128.243 47.9816 128.169 48.2215 128.007L48.9114 129.907Z" fill="#16CABD"/>
<path d="M58.2239 127.04H52.4804C52.6003 127.438 52.8253 127.747 53.1552 127.968C53.4851 128.189 53.905 128.292 54.4149 128.292C54.7898 128.292 55.1197 128.233 55.4046 128.13C55.6896 128.027 55.9595 127.85 56.2444 127.614L57.6991 129.101C56.9342 129.941 55.8095 130.368 54.3249 130.368C53.3951 130.368 52.5853 130.191 51.8955 129.852C51.1907 129.514 50.6508 129.028 50.2759 128.424C49.886 127.806 49.7061 127.114 49.7061 126.348C49.7061 125.583 49.886 124.905 50.2609 124.287C50.6358 123.684 51.1607 123.198 51.8205 122.859C52.4804 122.52 53.2302 122.344 54.055 122.344C54.8798 122.344 55.5546 122.506 56.1994 122.83C56.8443 123.153 57.3541 123.61 57.729 124.214C58.104 124.817 58.2839 125.539 58.2839 126.363C58.2839 126.378 58.2839 126.599 58.2389 127.04H58.2239ZM52.9752 124.626C52.6903 124.861 52.5104 125.185 52.4354 125.597H55.6746C55.5996 125.185 55.4196 124.861 55.1347 124.626C54.8498 124.39 54.4899 124.272 54.055 124.272C53.6201 124.272 53.2752 124.39 52.9902 124.626H52.9752Z" fill="#16CABD"/>
<path d="M66.9218 122.83C67.5066 123.153 67.9715 123.625 68.3164 124.228C68.6613 124.832 68.8413 125.539 68.8413 126.334C68.8413 127.129 68.6613 127.835 68.3164 128.439C67.9715 129.043 67.5066 129.514 66.9218 129.838C66.3369 130.161 65.6771 130.323 64.9573 130.323C64.0275 130.323 63.2927 130.058 62.7528 129.514V132.973H59.9785V122.462H62.6179V123.242C63.1277 122.638 63.9075 122.344 64.9573 122.344C65.6771 122.344 66.3369 122.506 66.9218 122.83ZM65.5721 127.703C65.887 127.379 66.037 126.922 66.037 126.348C66.037 125.774 65.887 125.318 65.5721 124.994C65.2572 124.67 64.8673 124.493 64.3724 124.493C63.8775 124.493 63.4876 124.655 63.1727 124.994C62.8578 125.318 62.7078 125.774 62.7078 126.348C62.7078 126.922 62.8578 127.379 63.1727 127.703C63.4876 128.027 63.8775 128.203 64.3724 128.203C64.8673 128.203 65.2572 128.041 65.5721 127.703Z" fill="#16CABD"/>
<path d="M77.029 129.805C76.3542 129.393 75.8143 128.789 75.4244 128.009C75.0345 127.214 74.8545 126.287 74.8545 125.212C74.8545 124.137 75.0495 123.195 75.4244 122.414C75.8143 121.634 76.3392 121.031 77.029 120.618C77.7038 120.206 78.4836 120 79.3684 120C80.2532 120 81.003 120.206 81.6928 120.618C82.3677 121.031 82.9075 121.634 83.2974 122.414C83.6873 123.21 83.8673 124.137 83.8673 125.212C83.8673 126.287 83.6723 127.229 83.2974 128.009C82.9075 128.804 82.3827 129.393 81.6928 129.805C81.018 130.217 80.2382 130.424 79.3684 130.424C78.4986 130.424 77.7188 130.217 77.029 129.805ZM80.5231 127.405C80.8081 126.949 80.958 126.213 80.958 125.212C80.958 124.211 80.8081 123.475 80.5231 123.018C80.2382 122.562 79.8483 122.326 79.3684 122.326C78.8885 122.326 78.4836 122.562 78.1987 123.018C77.9138 123.475 77.7638 124.211 77.7638 125.212C77.7638 126.213 77.9138 126.949 78.1987 127.405C78.4836 127.862 78.8735 128.097 79.3684 128.097C79.8633 128.097 80.2382 127.862 80.5231 127.405Z" fill="#16CABD"/>
<path d="M92.3253 125.238C92.7752 125.754 93.0002 126.372 93.0002 127.093C93.0002 127.682 92.8352 128.242 92.5053 128.742C92.1754 129.243 91.6805 129.655 91.0207 129.964C90.3608 130.273 89.536 130.435 88.5463 130.435C87.8265 130.435 87.1066 130.347 86.4018 130.185C85.697 130.008 85.0821 129.773 84.5723 129.449L85.622 127.314C86.0269 127.579 86.4768 127.785 86.9717 127.932C87.4665 128.08 87.9614 128.153 88.4563 128.153C88.9512 128.153 89.3411 128.065 89.641 127.888C89.9259 127.712 90.0759 127.447 90.0759 127.108C90.0759 126.46 89.551 126.136 88.5163 126.136H87.3016V124.34L89.1311 122.412H85.0971V120.203H92.4753V121.985L90.3608 124.222C91.2006 124.399 91.8604 124.738 92.3103 125.253L92.3253 125.238Z" fill="#16CABD"/>
</g>
<defs>
<clipPath id="clip0_343_62">
<rect width="127" height="104" fill="white"/>
</clipPath>
<clipPath id="clip1_343_62">
<rect width="100" height="101" fill="white" transform="translate(1.80469 7.24219)"/>
</clipPath>
<clipPath id="clip2_343_62">
<rect width="100" height="101" fill="white" transform="translate(2 7)"/>
</clipPath>
<clipPath id="clip3_343_62">
<rect width="60" height="13" fill="white" transform="translate(33 120)"/>
</clipPath>
</defs>
</svg>
